<svg width="255" height="45" viewBox="0 0 255 45" fill="none" xmlns="http://www.w3.org/2000/svg">
<path d="M147.807 10.636H146.686V5.35381H150.903V10.636H149.782V10.8246H153.313V10.636H152.206V0.427174H153.313V0.238525H149.782V0.427174H150.903V5.04907H146.686V0.427174H147.807V0.238525H144.276V0.427174H145.383V10.636H144.276V10.8246H147.807V10.636Z" fill="black"/>
<path d="M153.4 10.8762H149.688V10.5859H150.809V5.40534H146.774V10.5932H147.894V10.8834H144.182V10.5932H145.288V0.478706H144.182V0.188477H147.894V0.478706H146.774V5.00628H150.809V0.478706H149.688V0.188477H153.4V0.478706H152.294V10.5932H153.4V10.8762ZM149.87 10.7818H153.218V10.6803H152.111V0.384381H153.218V0.2828H149.87V0.384381H150.991V5.09335H146.605V0.384381H147.726V0.2828H144.378V0.384381H145.485V10.6803H144.378V10.7818H147.726V10.6803H146.605V5.31102H150.991V10.6803H149.87V10.7818Z" fill="black"/>
<path d="M156.132 10.6374H155.039L156.006 7.22718H159.214L160.237 10.6374H159.158L159.172 10.8333H162.451V10.6374H161.554L158.458 0.0512695H157.673L154.605 10.6374H153.736V10.8333H156.132V10.6374ZM157.701 1.25572L159.2 6.91519H156.132L157.701 1.25572Z" fill="black"/>
<path d="M162.532 10.8763H159.085L159.071 10.5861H160.136L159.141 7.27024H156.087L155.148 10.5861H156.241L156.227 10.8763H153.663V10.5861H154.532L157.6 0H158.539L158.553 0.0362786L161.635 10.5788H162.546V10.8763H162.532ZM159.253 10.782H162.349V10.6804H161.453L161.439 10.6442L158.357 0.10158H157.726L154.658 10.6877H153.803V10.7893H156.017V10.6877H154.91L155.905 7.18317H159.267L160.318 10.6877H159.225L159.253 10.782ZM159.309 6.95824H156.031L157.712 0.914222L159.309 6.95824ZM156.241 6.87117H159.099L157.698 1.59626L156.241 6.87117Z" fill="black"/>
<path d="M171.066 11.637C171.164 11.8038 171.262 12.1376 171.346 12.6383H171.627V10.6284H170.366V0.426861H171.472V0.230957H167.942V0.426861H169.063V10.5268H165.28V0.426861H166.401V0.230957H162.87V0.426861H163.977V10.6284H162.87V10.8316H169.147C169.637 10.8316 170.057 10.9041 170.394 11.042C170.716 11.1871 170.94 11.383 171.066 11.637Z" fill="black"/>
<path d="M171.71 12.6831H171.261L171.247 12.6395C171.163 12.1462 171.079 11.8124 170.967 11.6528C170.855 11.4133 170.631 11.2174 170.309 11.0868C169.986 10.9562 169.594 10.8837 169.118 10.8837H162.743V10.5862H163.85V0.47895H162.743V0.188721H166.456V0.47895H165.335V10.4846H168.936V0.47895H167.815V0.188721H171.528V0.47895H170.421V10.5862H171.682V12.6831H171.71ZM171.43 12.5888H171.528V10.6732H170.267V0.384625H171.374V0.283044H168.025V0.384625H169.146V10.5717H165.181V0.384625H166.302V0.283044H162.953V0.384625H164.06V10.6805H162.953V10.7966H169.146C169.664 10.7966 170.099 10.8692 170.449 11.0215C170.799 11.1666 171.037 11.3771 171.163 11.6383C171.261 11.7979 171.345 12.1099 171.43 12.5888Z" fill="black"/>
<path d="M179.235 1.23354V10.637H178.114V10.8256H181.645V10.637H180.538V0.42815H181.645V0.239502H179.319L175.032 9.76627V0.42815H176.153V0.239502H172.622V0.42815H173.729V10.637H172.622V10.8256H174.906L179.235 1.23354Z" fill="black"/>
<path d="M181.742 10.8764H178.029V10.5862H179.15V1.63987L174.975 10.8764H172.523V10.5862H173.63V0.47895H172.523V0.188721H176.236V0.47895H175.115V9.35996L179.248 0.188721H181.742V0.47895H180.635V10.5934H181.742V10.8764ZM178.212 10.7821H181.56V10.6805H180.453V0.384625H181.56V0.283044H179.388L174.933 10.1726V0.384625H176.054V0.283044H172.706V0.384625H173.812V10.6805H172.706V10.7821H174.835L179.332 0.827224V10.6805H178.212V10.7821Z" fill="black"/>
<path d="M183.647 9.22834C183.815 9.64191 184.067 9.99019 184.389 10.2804C184.655 10.4981 185.006 10.6722 185.44 10.8028C185.874 10.9262 186.323 10.9915 186.813 10.9915C187.485 10.9915 188.06 10.8899 188.508 10.6867C188.971 10.4836 189.335 10.1571 189.615 9.71447C189.895 9.27187 190.091 8.69141 190.217 7.9731C190.344 7.25478 190.414 6.34781 190.414 5.26671C190.414 4.12031 190.344 3.21334 190.189 2.56032C190.035 1.90731 189.783 1.36313 189.405 0.935042C189.139 0.623046 188.816 0.398118 188.424 0.245748C188.032 0.100633 187.541 0.0280762 186.939 0.0280762C186.267 0.0280762 185.678 0.129657 185.202 0.332818C184.725 0.535978 184.319 0.847974 184.025 1.27606C183.717 1.69689 183.493 2.24833 183.338 2.91586C183.184 3.58338 183.114 4.39602 183.114 5.33927C183.114 6.17368 183.156 6.92102 183.254 7.58854C183.352 8.25607 183.479 8.80025 183.647 9.22834ZM184.445 5.48438C184.445 4.51937 184.473 3.74301 184.515 3.15529C184.557 2.56758 184.641 2.09596 184.767 1.74768C184.894 1.39941 185.062 1.09467 185.286 0.833462C185.678 0.427142 186.197 0.223982 186.827 0.223982C187.598 0.223982 188.158 0.485188 188.508 1.00034C188.788 1.42118 188.957 1.95085 189.013 2.58935C189.083 3.48906 189.111 4.41053 189.111 5.35378C189.111 6.41312 189.083 7.25478 189.041 7.88603C188.985 8.51002 188.886 9.01066 188.774 9.38796C188.662 9.75801 188.494 10.0555 188.27 10.2659C188.116 10.411 187.892 10.5344 187.612 10.6287C187.331 10.7303 187.079 10.7811 186.827 10.7811C185.762 10.7811 185.076 10.2224 184.739 9.09773C184.557 8.52453 184.459 7.74091 184.445 6.73962V5.48438Z" fill="black"/>
<path d="M186.828 11.0432C186.323 11.0432 185.847 10.9779 185.413 10.8473C184.964 10.7167 184.6 10.5353 184.334 10.3104C183.998 10.0129 183.731 9.65737 183.577 9.23654C183.409 8.80845 183.269 8.25702 183.185 7.59675C183.087 6.93648 183.045 6.17462 183.045 5.34747C183.045 4.40423 183.115 3.59158 183.269 2.92406C183.423 2.24927 183.647 1.69784 183.956 1.26975C184.264 0.841664 184.67 0.515157 185.16 0.311996C185.651 0.10158 186.267 0 186.954 0C187.57 0 188.089 0.0798134 188.495 0.224928C188.901 0.377298 189.237 0.609481 189.504 0.928733C189.868 1.35682 190.134 1.90826 190.288 2.56127C190.442 3.21429 190.512 4.12851 190.512 5.27491C190.512 6.34876 190.442 7.26298 190.316 7.9813C190.19 8.69962 189.98 9.29459 189.7 9.73719C189.42 10.187 189.041 10.5208 188.565 10.7312C188.103 10.9344 187.514 11.0432 186.828 11.0432ZM186.954 0.0798134C186.295 0.0798134 185.735 0.181393 185.273 0.377298C184.81 0.573202 184.418 0.885198 184.124 1.29877C183.829 1.71961 183.591 2.26379 183.451 2.93131C183.297 3.59884 183.227 4.41148 183.227 5.34747C183.227 6.17462 183.269 6.92922 183.367 7.58949C183.465 8.24976 183.591 8.8012 183.759 9.22203C183.928 9.62835 184.166 9.97662 184.502 10.2669C184.754 10.4773 185.104 10.6514 185.511 10.7748C185.931 10.8908 186.379 10.9561 186.842 10.9561C187.5 10.9561 188.047 10.8618 188.481 10.6659C188.929 10.47 189.294 10.1435 189.56 9.71542C189.84 9.28007 190.036 8.69236 190.162 7.9813C190.288 7.26298 190.358 6.35602 190.358 5.28217C190.358 4.14302 190.288 3.2288 190.134 2.58304C189.98 1.93728 189.728 1.3931 189.364 0.972267C189.111 0.667526 188.789 0.442599 188.411 0.30474C188.005 0.15237 187.514 0.0798134 186.954 0.0798134ZM186.828 10.8328C185.721 10.8328 184.992 10.2523 184.656 9.11319C184.474 8.54725 184.376 7.74912 184.362 6.74783V5.48533C184.362 4.52757 184.39 3.74395 184.432 3.15624C184.474 2.56853 184.558 2.08965 184.684 1.74137C184.81 1.3931 184.978 1.0811 185.203 0.819897C185.623 0.399065 186.155 0.181393 186.828 0.181393C187.626 0.181393 188.229 0.449855 188.593 0.986779C188.873 1.40761 189.041 1.95179 189.097 2.5903C189.167 3.49001 189.195 4.41874 189.195 5.35473C189.195 6.40681 189.167 7.26298 189.125 7.89423C189.069 8.51822 188.971 9.02612 188.859 9.40342C188.747 9.78072 188.565 10.0782 188.341 10.2959C188.173 10.4482 187.949 10.5788 187.654 10.6804C187.374 10.7748 187.094 10.8328 186.828 10.8328ZM186.828 0.275718C186.225 0.275718 185.749 0.464366 185.371 0.863431C185.146 1.11738 184.978 1.42212 184.866 1.76314C184.754 2.11142 184.67 2.58304 184.614 3.1635C184.572 3.74396 184.544 4.52757 184.544 5.48533V6.74783C184.558 7.74186 184.67 8.53273 184.838 9.09868C185.16 10.187 185.833 10.7385 186.828 10.7385C187.066 10.7385 187.304 10.6877 187.57 10.5934C187.836 10.499 188.047 10.3829 188.201 10.2451C188.411 10.0419 188.579 9.7517 188.691 9.38165C188.803 9.01161 188.901 8.51097 188.957 7.88698C188.999 7.25573 189.027 6.40681 189.027 5.35473C189.027 4.41874 188.999 3.49001 188.929 2.5903C188.873 1.95905 188.705 1.42938 188.425 1.0158C188.075 0.522412 187.556 0.275718 186.828 0.275718Z" fill="black"/>
<path d="M195.432 10.6374H194.311V5.35528H198.514V10.6374H197.393V10.8261H200.924V10.6374H199.817V0.428638H200.924V0.23999H197.393V0.428638H198.514V5.05054H194.311V0.428638H195.432V0.23999H191.901V0.428638H193.008V10.6374H191.901V10.8261H195.432V10.6374Z" fill="black"/>
<path d="M201.02 10.8764H197.307V10.5862H198.428V5.40559H194.393V10.5934H195.514V10.8837H191.801V10.5934H192.908V0.47895H191.801V0.188721H195.514V0.47895H194.393V5.00652H198.428V0.47895H197.307V0.188721H201.02V0.47895H199.913V10.5934H201.02V10.8764ZM197.489 10.7821H200.837V10.6805H199.731V0.384625H200.837V0.283044H197.489V0.384625H198.61V5.09359H194.225V0.384625H195.345V0.283044H191.997V0.384625H193.104V10.6805H191.997V10.7821H195.345V10.6805H194.225V5.31126H198.61V10.6805H197.489V10.7821Z" fill="black"/>
<path d="M203.751 10.6369H202.658L203.625 7.2267H206.833L207.856 10.6369H206.777L206.791 10.8328H210.07V10.6369H209.173L206.077 0.0507812H205.292L202.224 10.6369H201.355V10.8328H203.751V10.6369ZM205.32 1.25523L206.819 6.9147H203.751L205.32 1.25523Z" fill="black"/>
<path d="M210.14 10.8763H206.693L206.679 10.5861H207.744L206.75 7.27024H203.695L202.757 10.5861H203.849L203.835 10.8763H201.271V10.5861H202.14L205.208 0H206.147L206.161 0.0362786L209.243 10.5788H210.154V10.8763H210.14ZM206.862 10.782H209.958V10.6804H209.061L209.047 10.6442L205.965 0.10158H205.334L202.266 10.6877H201.412V10.7893H203.625V10.6877H202.518L203.513 7.18317H206.876L206.89 7.21945L207.926 10.6877H206.834L206.862 10.782ZM206.918 6.95824H203.639L205.32 0.914222L206.918 6.95824ZM203.849 6.87117H206.707L205.306 1.59626L203.849 6.87117Z" fill="black"/>
<path d="M211.205 10.9472C211.878 10.9472 212.34 10.7151 212.592 10.2507C212.746 9.98949 212.858 9.72103 212.928 9.4308C212.999 9.14057 213.055 8.71974 213.111 8.16105C213.195 7.14525 213.237 6.35437 213.237 5.79568V0.542533H216.263V10.6353H215.128V10.8312H218.673V10.6353H217.538V0.433697H218.687V0.237793H211.682V0.433697H212.802V5.97707C212.802 7.47901 212.69 8.58914 212.466 9.3002C212.438 9.4308 212.354 9.5614 212.242 9.69201C212.032 9.94596 211.738 10.0693 211.345 10.0693C210.953 10.0693 210.687 9.95321 210.519 9.71377C210.365 9.47433 210.281 9.0535 210.281 8.45853V8.40049H209.986V8.71248C209.986 9.6775 210.084 10.3015 210.281 10.5917C210.463 10.8312 210.771 10.9472 211.205 10.9472Z" fill="black"/>
<path d="M211.205 10.9996C210.742 10.9996 210.406 10.869 210.196 10.615C209.986 10.3103 209.888 9.69355 209.888 8.71403V8.3585H210.364V8.46008C210.364 9.04779 210.448 9.46862 210.588 9.70081C210.728 9.91848 210.981 10.0273 211.331 10.0273C211.695 10.0273 211.961 9.91122 212.157 9.67904C212.269 9.54843 212.34 9.41783 212.382 9.29448C212.606 8.58342 212.718 7.4733 212.718 5.97862V0.48603H211.597V0.195801H218.77V0.48603H217.621V10.5933H218.756V10.8835H215.029V10.5933H216.164V0.594866H213.32V5.80448C213.32 6.37043 213.278 7.16856 213.194 8.1771C213.138 8.72854 213.082 9.15663 213.012 9.44685C212.942 9.73708 212.83 10.0201 212.676 10.274C212.41 10.7529 211.905 10.9996 211.205 10.9996ZM210.07 8.44556V8.70677C210.07 9.65727 210.168 10.2885 210.364 10.5715C210.546 10.7892 210.812 10.898 211.205 10.898C211.835 10.898 212.255 10.6803 212.508 10.2377C212.662 9.98378 212.774 9.70806 212.844 9.42509C212.914 9.14211 212.97 8.71403 213.026 8.16259C213.11 7.15404 213.152 6.36317 213.152 5.79722V0.500541H216.36V10.6803H215.226V10.7819H218.602V10.6803H217.467V0.38445H218.616V0.275614H211.793V0.38445H212.914V5.97136C212.914 7.46604 212.802 8.59068 212.578 9.30174C212.55 9.43234 212.466 9.5702 212.339 9.70806C212.115 9.97652 211.793 10.1144 211.359 10.1144C210.924 10.1144 210.616 9.98378 210.448 9.72257C210.294 9.48313 210.21 9.05505 210.21 8.45282V8.44556H210.07Z" fill="black"/>
<path d="M225.789 10.4323C226.293 10.1638 226.686 9.7865 226.966 9.28586C227.246 8.78521 227.372 8.20476 227.372 7.54449C227.372 5.51288 226.209 4.49708 223.898 4.49708H222.216V0.426617H223.337V0.230713H219.807V0.426617H220.913V10.6282H219.807V10.8313H223.982C224.682 10.8313 225.285 10.7007 225.789 10.4323ZM222.216 10.5266V4.80908H223.968C224.738 4.80908 225.271 5.00498 225.565 5.38953C225.761 5.62897 225.887 5.87567 225.943 6.12962C226.013 6.38357 226.041 6.76087 226.041 7.26877C226.041 8.5748 225.887 9.43823 225.593 9.86632C225.453 10.0695 225.215 10.2364 224.906 10.3525C224.598 10.4685 224.234 10.5266 223.856 10.5266H222.216Z" fill="black"/>
<path d="M223.982 10.8837H219.709V10.5862H220.816V0.47895H219.709V0.188721H223.422V0.47895H222.301V4.45509H223.898C226.266 4.45509 227.457 5.49266 227.457 7.54603C227.457 8.21355 227.317 8.80127 227.036 9.30191C226.756 9.80256 226.364 10.1944 225.845 10.4701C225.341 10.7458 224.711 10.8837 223.982 10.8837ZM219.905 10.7893H223.996C224.669 10.7893 225.257 10.6587 225.733 10.4048C226.224 10.1436 226.616 9.76628 226.882 9.28015C227.148 8.78676 227.289 8.2063 227.289 7.54603C227.289 5.55796 226.154 4.54941 223.912 4.54941H222.133V0.384625H223.254V0.283044H219.905V0.384625H221.012V10.6805H219.905V10.7893ZM223.87 10.5717H222.133V4.75983H223.968C224.767 4.75983 225.341 4.96299 225.649 5.36931C225.845 5.60875 225.972 5.8627 226.042 6.11665C226.112 6.3706 226.14 6.75515 226.14 7.26305C226.14 8.56909 225.986 9.44703 225.691 9.88237C225.537 10.0928 225.299 10.2669 224.977 10.3903C224.641 10.5136 224.276 10.5717 223.87 10.5717ZM222.315 10.4773H223.87C224.234 10.4773 224.571 10.4193 224.879 10.3105C225.173 10.2016 225.397 10.042 225.537 9.84609C225.831 9.42526 225.972 8.55457 225.972 7.26305C225.972 6.76241 225.944 6.37786 225.874 6.13116C225.803 5.88447 225.677 5.63777 225.495 5.40559C225.201 5.03555 224.711 4.85415 223.982 4.85415H222.329V10.4773H222.315Z" fill="black"/>
<path d="M234.24 0.428638H235.347V5.05054H231.144V0.428638H232.265V0.23999H228.734V0.428638H229.841V10.6374H228.734V10.8261H232.265V10.6374H231.144V5.35528H235.347V10.6374H234.24V10.8261H237.771V10.6374H236.65V0.428638H237.771V0.23999H234.24V0.428638Z" fill="black"/>
<path d="M237.853 10.8764H234.14V10.5862H235.261V5.40559H231.226V10.5934H232.347V10.8837H228.634V10.5934H229.741V0.47895H228.634V0.188721H232.347V0.47895H231.226V5.00652H235.261V0.47895H234.14V0.188721H237.853V0.47895H236.746V10.5934H237.853V10.8764ZM234.322 10.7821H237.67V10.6805H236.564V0.384625H237.67V0.283044H234.322V0.384625H235.443V5.09359H231.058V0.384625H232.178V0.283044H228.83V0.384625H229.937V10.6805H228.83V10.7821H232.178V10.6805H231.058V5.31126H235.443V10.6805H234.322V10.7821Z" fill="black"/>
<path d="M245.517 0.94261C245.251 0.630614 244.929 0.405687 244.536 0.253316C244.144 0.108202 243.654 0.0356445 243.051 0.0356445C242.379 0.0356445 241.79 0.137224 241.314 0.340385C240.838 0.543545 240.431 0.855542 240.137 1.28363C239.829 1.70446 239.605 2.2559 239.451 2.92342C239.297 3.59095 239.227 4.40359 239.227 5.34684C239.227 6.18125 239.269 6.92859 239.367 7.59611C239.465 8.26364 239.591 8.80782 239.759 9.2359C239.927 9.64948 240.179 9.99776 240.502 10.288C240.768 10.5057 241.118 10.6798 241.552 10.8104C241.987 10.9337 242.435 10.999 242.925 10.999C243.598 10.999 244.172 10.8975 244.621 10.6943C245.083 10.4911 245.447 10.1646 245.727 9.72204C246.008 9.27944 246.204 8.69898 246.33 7.98066C246.456 7.26235 246.526 6.35538 246.526 5.27428C246.526 4.12787 246.456 3.22091 246.302 2.56789C246.148 1.90762 245.895 1.36344 245.517 0.94261ZM245.153 7.8936C245.097 8.51759 244.999 9.01823 244.887 9.39553C244.775 9.76557 244.607 10.0631 244.382 10.2735C244.228 10.4186 244.004 10.5419 243.724 10.6363C243.444 10.7378 243.191 10.7886 242.939 10.7886C241.875 10.7886 241.188 10.2299 240.852 9.1053C240.67 8.5321 240.572 7.74848 240.558 6.74719V5.4847C240.558 4.51968 240.586 3.74332 240.628 3.15561C240.67 2.56789 240.754 2.09627 240.88 1.748C241.006 1.39972 241.174 1.09498 241.398 0.833774C241.79 0.427454 242.309 0.224294 242.939 0.224294C243.71 0.224294 244.27 0.4855 244.621 1.00066C244.901 1.42149 245.069 1.95116 245.125 2.58966C245.195 3.48937 245.223 4.41085 245.223 5.35409C245.223 6.41343 245.195 7.25509 245.153 7.8936Z" fill="black"/>
<path d="M242.938 11.0432C242.434 11.0432 241.957 10.9779 241.523 10.8473C241.075 10.7167 240.71 10.5353 240.444 10.3104C240.108 10.0129 239.856 9.65737 239.688 9.23654C239.52 8.80845 239.379 8.25702 239.295 7.59675C239.197 6.93648 239.155 6.17462 239.155 5.34747C239.155 4.40423 239.225 3.59158 239.379 2.92406C239.534 2.25653 239.758 1.69784 240.066 1.26975C240.374 0.841664 240.78 0.515157 241.271 0.311996C241.761 0.10158 242.378 0 243.064 0C243.681 0 244.199 0.0798134 244.605 0.224928C245.012 0.377298 245.348 0.609481 245.614 0.928733C245.992 1.35682 246.245 1.90826 246.399 2.56853C246.553 3.22154 246.623 4.13576 246.623 5.28217C246.623 6.35602 246.553 7.27024 246.427 7.98855C246.301 8.70687 246.09 9.30184 245.824 9.74444C245.544 10.1943 245.166 10.5281 244.689 10.7385C244.227 10.9344 243.625 11.0432 242.938 11.0432ZM243.064 0.0798134C242.406 0.0798134 241.845 0.181393 241.383 0.377298C240.921 0.573202 240.528 0.885198 240.234 1.29877C239.94 1.71961 239.702 2.26379 239.562 2.93131C239.407 3.59884 239.337 4.41148 239.337 5.34747C239.337 6.17462 239.379 6.92922 239.478 7.58949C239.576 8.24976 239.702 8.8012 239.87 9.22203C240.038 9.62835 240.276 9.97662 240.612 10.2669C240.865 10.4773 241.215 10.6514 241.621 10.7748C242.041 10.8908 242.49 10.9561 242.952 10.9561C243.611 10.9561 244.157 10.8618 244.591 10.6659C245.04 10.47 245.404 10.1435 245.67 9.71542C245.95 9.28007 246.146 8.69236 246.273 7.9813C246.399 7.26298 246.469 6.35602 246.469 5.28217C246.469 4.14302 246.399 3.2288 246.245 2.58304C246.09 1.93728 245.838 1.3931 245.474 0.972267C245.222 0.667526 244.9 0.449855 244.521 0.30474C244.115 0.15237 243.625 0.0798134 243.064 0.0798134ZM242.938 10.8328C241.831 10.8328 241.103 10.2523 240.766 9.11319C240.584 8.54725 240.486 7.74912 240.472 6.74783V5.48533C240.472 4.52757 240.5 3.74395 240.542 3.15624C240.584 2.56853 240.668 2.08965 240.795 1.74137C240.921 1.3931 241.089 1.0811 241.313 0.819897C241.719 0.399065 242.266 0.181393 242.938 0.181393C243.737 0.181393 244.339 0.449855 244.703 0.986779C244.984 1.40761 245.152 1.95179 245.208 2.5903C245.278 3.49001 245.306 4.41874 245.306 5.35473C245.306 6.40681 245.278 7.26298 245.236 7.89423C245.18 8.51822 245.082 9.02612 244.97 9.40342C244.857 9.78072 244.675 10.0782 244.451 10.2959C244.283 10.4482 244.059 10.5788 243.765 10.6804C243.484 10.7748 243.204 10.8328 242.938 10.8328ZM242.938 0.275718C242.336 0.275718 241.859 0.464366 241.481 0.863431C241.257 1.11738 241.089 1.41487 240.977 1.76314C240.865 2.11142 240.78 2.58304 240.724 3.1635C240.682 3.74396 240.654 4.52757 240.654 5.48533V6.74783C240.668 7.74186 240.78 8.53273 240.949 9.09868C241.271 10.187 241.943 10.7385 242.938 10.7385C243.176 10.7385 243.414 10.6877 243.681 10.5934C243.947 10.499 244.157 10.3829 244.311 10.2451C244.521 10.0419 244.689 9.7517 244.801 9.38165C244.914 9.01161 245.012 8.51097 245.068 7.88698C245.11 7.25573 245.138 6.40681 245.138 5.35473C245.138 4.41874 245.11 3.49001 245.04 2.5903C244.984 1.95905 244.815 1.42938 244.535 1.0158C244.185 0.522412 243.667 0.275718 242.938 0.275718Z" fill="black"/>
<path d="M254.635 8.34213C254.635 8.68315 254.621 8.91533 254.593 9.04593C254.523 9.45225 254.397 9.75699 254.228 9.96741C253.948 10.3375 253.22 10.5261 252.071 10.5261H250.418V5.35277H251.594C252.239 5.35277 252.701 5.4616 252.981 5.67927C253.262 5.89695 253.416 6.2815 253.444 6.82568H253.738V3.58963H253.444L253.402 3.88711C253.346 4.3152 253.234 4.59817 253.066 4.72878C252.785 4.94645 252.295 5.05528 251.594 5.05528H250.418V0.542221H252.295C252.757 0.542221 253.094 0.578499 253.318 0.643801C253.542 0.709102 253.724 0.839706 253.878 1.0211C254.046 1.20975 254.172 1.43467 254.256 1.69588C254.354 1.9716 254.41 2.33439 254.425 2.79875H254.705V0.230225H248.008V0.426129H249.115V10.6277H248.008V10.8308H254.915V8.33487H254.635V8.34213Z" fill="black"/>
<path d="M254.999 10.8837H247.91V10.5862H249.017V0.47895H247.91V0.188721H254.789V2.85157H254.327V2.80804C254.313 2.35093 254.257 1.98089 254.159 1.71242C254.075 1.45847 253.949 1.23354 253.781 1.05215C253.64 0.878014 253.458 0.754667 253.262 0.696622C253.052 0.63132 252.73 0.602297 252.295 0.602297H250.502V5.01378H251.595C252.253 5.01378 252.73 4.9122 252.982 4.70904C253.136 4.58569 253.248 4.30997 253.304 3.88914L253.346 3.54812H253.809V6.88576H253.332V6.84222C253.318 6.31255 253.164 5.93526 252.884 5.72484C252.618 5.51442 252.197 5.41284 251.581 5.41284H250.488V10.4919H252.057C253.164 10.4919 253.865 10.3105 254.131 9.96218C254.285 9.75902 254.411 9.45428 254.481 9.04796C254.509 8.91736 254.523 8.68518 254.523 8.35141V8.30788H254.985V10.8837H254.999ZM248.092 10.7893H254.817V8.38769H254.719C254.719 8.69969 254.705 8.92462 254.677 9.04796C254.607 9.45428 254.481 9.77354 254.313 9.98395C254.019 10.3758 253.262 10.5717 252.071 10.5717H250.32V5.31126H251.581C252.253 5.31126 252.744 5.42736 253.038 5.65954C253.332 5.88447 253.486 6.24725 253.514 6.78418H253.626V3.63519H253.5L253.472 3.88914C253.416 4.33174 253.304 4.61471 253.122 4.75257C252.828 4.9775 252.309 5.09359 251.581 5.09359H250.32V0.500716H252.295C252.772 0.500716 253.122 0.536995 253.36 0.609552C253.598 0.682109 253.795 0.819968 253.949 1.00862C254.117 1.19727 254.257 1.42945 254.327 1.69065C254.425 1.95186 254.481 2.31465 254.495 2.75725H254.593V0.283044H248.078V0.39188H249.185V10.6805H248.078V10.7893H248.092Z" fill="black"/>
<path d="M147.654 26.6436H146.687V21.2525H147.416L150.554 26.6436H149.573V26.8395H152.824V26.6436H152.067L148.144 20.4544L150.722 16.4347H151.717V16.2461H149.363V16.442H150.372L147.388 21.0566H146.687V16.442H147.654V16.2461H144.277V16.442H145.384V26.6436H144.277V26.8395H147.654V26.6436Z" fill="black"/>
<path d="M152.922 26.8825H149.489V26.5923H150.442L147.346 21.2956H146.785V26.5923H147.752V26.8825H144.193V26.5923H145.3V16.4851H144.193V16.1948H147.752V16.4851H146.785V21.0126H147.332L150.246 16.4851H149.279V16.1948H151.815V16.4778H150.792L148.242 20.4539L152.137 26.5995H152.922V26.8825ZM149.671 26.7882H152.74V26.6866H152.011L151.997 26.6576L148.06 20.4539L148.074 20.4394L150.68 16.3835H151.647V16.2891H149.461V16.3907H150.498L147.458 21.0997H146.603V16.3907H147.57V16.2891H144.376V16.3907H145.482V26.6866H144.376V26.7882H147.57V26.6866H146.603V21.2013H147.472L150.68 26.6866H149.657V26.7882H149.671Z" fill="black"/>
<path d="M154.854 26.9896C155.737 26.9896 156.409 26.3294 156.871 25.0016L159.94 16.4325H160.626V16.2439H158.497V16.4398H159.491L157.25 22.9409L154.7 16.4398H155.68V16.2439H152.696V16.4398H153.397L156.689 24.3268C156.521 24.8274 156.353 25.2265 156.171 25.5095C156.115 25.6183 156.017 25.7489 155.877 25.894C155.652 26.1262 155.316 26.2423 154.854 26.2423C154.434 26.2423 154.125 26.1117 153.957 25.8505C153.831 25.6618 153.761 25.3208 153.747 24.8129H153.467C153.467 25.3716 153.481 25.7707 153.523 26.0174C153.565 26.2641 153.649 26.46 153.775 26.6123C153.999 26.859 154.349 26.9896 154.854 26.9896Z" fill="black"/>
<path d="M154.856 27.0348C154.324 27.0348 153.931 26.8969 153.707 26.6357C153.567 26.4833 153.483 26.2802 153.441 26.0262C153.399 25.7795 153.385 25.3732 153.385 24.8218V24.7782H153.847V24.8218C153.861 25.3152 153.931 25.6634 154.043 25.8448C154.211 26.0915 154.478 26.2076 154.856 26.2076C155.29 26.2076 155.598 26.0988 155.795 25.8811C155.935 25.736 156.033 25.6054 156.089 25.5038C156.271 25.2208 156.439 24.829 156.607 24.3356L153.329 16.4995H152.614V16.2092H155.781V16.4995H154.814L157.238 22.7031L159.381 16.4995H158.401V16.2092H160.698V16.4922H159.998L156.943 25.0177C156.481 26.3745 155.781 27.0348 154.856 27.0348ZM153.553 24.8653C153.553 25.395 153.581 25.7795 153.609 26.019C153.651 26.2584 153.735 26.4543 153.861 26.5994C154.057 26.8316 154.38 26.9477 154.842 26.9477C155.669 26.9477 156.313 26.2947 156.775 24.9959L159.858 16.3906H160.53V16.289H158.583V16.3906H159.591L157.238 23.182L154.576 16.3906H155.584V16.289H152.782V16.3906H153.469L153.483 16.4269L156.775 24.3211V24.3284C156.607 24.829 156.439 25.2354 156.243 25.5183C156.187 25.6272 156.075 25.765 155.935 25.9101C155.697 26.1641 155.332 26.2874 154.828 26.2874C154.366 26.2874 154.029 26.1423 153.833 25.8593C153.707 25.6707 153.637 25.3442 153.623 24.8581H153.553V24.8653Z" fill="black"/>
<path d="M163.683 24.1747C163.767 23.1589 163.809 22.368 163.809 21.8093V16.5561H166.835V26.6489H165.7V26.8448H169.245V26.6489H168.11V16.44H169.259V16.2441H162.254V16.44H163.375V21.9834C163.375 23.4854 163.263 24.5955 163.038 25.3065C163.01 25.4372 162.926 25.5678 162.814 25.6984C162.604 25.9523 162.31 26.0757 161.918 26.0757C161.525 26.0757 161.259 25.9596 161.091 25.7201C160.937 25.4807 160.853 25.0599 160.853 24.4649V24.4068H160.559V24.7188C160.559 25.6838 160.657 26.3078 160.853 26.5981C161.049 26.8375 161.357 26.9536 161.777 26.9536C162.45 26.9536 162.912 26.7214 163.165 26.2571C163.319 25.9958 163.431 25.7274 163.501 25.4372C163.571 25.1542 163.641 24.7261 163.683 24.1747Z" fill="black"/>
<path d="M161.791 27.0059C161.328 27.0059 160.992 26.8753 160.782 26.6214C160.572 26.3166 160.474 25.6999 160.474 24.7204V24.3648H160.95V24.4664C160.95 25.0541 161.034 25.475 161.188 25.7072C161.328 25.9248 161.566 26.0337 161.931 26.0337C162.295 26.0337 162.561 25.9176 162.757 25.6854C162.869 25.5548 162.939 25.4242 162.981 25.3008C163.206 24.5898 163.318 23.4796 163.318 21.985V16.4924H162.197V16.2021H169.37V16.4924H168.221V26.5996H169.356V26.8898H165.615V26.5996H166.75V16.6012H163.906V21.8036C163.906 22.3695 163.864 23.1676 163.78 24.1762C163.724 24.7276 163.668 25.1557 163.598 25.4459C163.528 25.7362 163.416 26.0191 163.262 26.2731C162.995 26.7592 162.505 27.0059 161.791 27.0059ZM160.656 24.4592V24.7204C160.656 25.6709 160.754 26.3021 160.95 26.5851C161.132 26.8028 161.398 26.9116 161.791 26.9116C162.421 26.9116 162.841 26.6939 163.094 26.2513C163.248 25.9974 163.36 25.7217 163.43 25.4387C163.5 25.1485 163.556 24.7276 163.612 24.1762C163.696 23.1676 163.738 22.3695 163.738 21.8108V16.5141H166.946V26.6939H165.812V26.7955H169.188V26.6939H168.053V16.3981H169.202V16.2892H162.379V16.3908H163.5V21.9777C163.5 23.4796 163.388 24.597 163.164 25.3081C163.136 25.4387 163.052 25.5766 162.925 25.7144C162.701 25.9829 162.379 26.1207 161.945 26.1207C161.51 26.1207 161.202 25.9901 161.034 25.7289C160.866 25.4822 160.796 25.0686 160.796 24.4592V24.4519H160.656V24.4592Z" fill="black"/>
<path d="M176.393 26.4484C176.897 26.1799 177.289 25.8026 177.569 25.302C177.85 24.8013 177.976 24.2209 177.976 23.5606C177.976 21.529 176.813 20.5132 174.501 20.5132H172.82V16.4427H173.941V16.2468H170.41V16.4427H171.517V26.6443H170.41V26.8474H174.585C175.286 26.8474 175.888 26.7096 176.393 26.4484ZM172.82 26.5354V20.8179H174.571C175.342 20.8179 175.874 21.0138 176.168 21.3984C176.365 21.6378 176.491 21.8845 176.547 22.1385C176.617 22.3924 176.645 22.7697 176.645 23.2776C176.645 24.5836 176.491 25.4471 176.196 25.8752C176.056 26.0783 175.818 26.2452 175.51 26.3613C175.202 26.4774 174.837 26.5354 174.459 26.5354H172.82Z" fill="black"/>
<path d="M174.583 26.8898H170.31V26.5923H171.416V16.4851H170.31V16.1948H174.022V16.4851H172.901V20.4612H174.499C176.866 20.4612 178.057 21.4988 178.057 23.5521C178.057 24.2197 177.917 24.8074 177.637 25.308C177.357 25.8087 176.964 26.2005 176.446 26.4762C175.928 26.7519 175.297 26.8898 174.583 26.8898ZM170.492 26.7954H174.583C175.255 26.7954 175.844 26.6648 176.32 26.4109C176.81 26.1497 177.203 25.7724 177.469 25.2862C177.735 24.7929 177.875 24.2124 177.875 23.5521C177.875 21.5641 176.74 20.5555 174.499 20.5555H172.719V16.3907H173.84V16.2891H170.492V16.3907H171.599V26.6866H170.492V26.7954ZM174.457 26.585H172.719V20.7732H174.555C175.353 20.7732 175.928 20.9763 176.236 21.3827C176.432 21.6221 176.558 21.8761 176.628 22.13C176.698 22.384 176.726 22.7685 176.726 23.2764C176.726 24.5824 176.572 25.4604 176.278 25.8957C176.124 26.1061 175.886 26.2803 175.563 26.4036C175.241 26.5197 174.863 26.585 174.457 26.585ZM172.901 26.4907H174.457C174.821 26.4907 175.157 26.4327 175.465 26.3238C175.76 26.215 175.984 26.0554 176.124 25.8595C176.418 25.4386 176.558 24.5679 176.558 23.2764C176.558 22.7758 176.53 22.3912 176.46 22.1445C176.39 21.8978 176.264 21.6511 176.082 21.4189C175.788 21.0489 175.297 20.8675 174.569 20.8675H172.901V26.4907Z" fill="black"/>
<path d="M180.51 26.6441V26.84H184.335V26.6441H183.074V16.5586H183.844C184.447 16.5586 184.895 16.7691 185.189 17.1972C185.484 17.618 185.638 18.3 185.68 19.2433H185.96V16.2539H178.885V19.2433H179.151C179.193 18.3073 179.361 17.618 179.655 17.1899C179.95 16.7691 180.398 16.5586 181 16.5586H181.757V26.6514H180.51V26.6441Z" fill="black"/>
<path d="M184.43 26.8826H180.423V26.5924H181.684V16.6012H181.011C180.451 16.6012 180.031 16.7971 179.751 17.2034C179.456 17.6243 179.288 18.3136 179.246 19.2423V19.2858H178.798V16.2021H186.055V19.2858H185.607V19.2423C185.565 18.3063 185.397 17.6243 185.116 17.2107C184.836 16.8044 184.43 16.6085 183.856 16.6085H183.169V26.6069H184.43V26.8826ZM180.605 26.7883H184.248V26.6867H182.987V16.5069H183.856C184.5 16.5069 184.976 16.7318 185.285 17.1744C185.565 17.5953 185.733 18.27 185.789 19.1915H185.887V16.2892H178.994V19.1915H179.078C179.12 18.2773 179.288 17.5952 179.582 17.1672C179.891 16.7246 180.367 16.5069 181.011 16.5069H181.866V26.6867H180.605V26.7883Z" fill="black"/>
<path d="M190.288 24.9948L193.357 16.433H194.043V16.2444H191.914V16.4403H192.908L190.667 22.9414L188.117 16.4403H189.097V16.2444H186.113V16.4403H186.814L190.106 24.3273C189.938 24.8279 189.77 25.227 189.588 25.5099C189.532 25.6188 189.434 25.7494 189.294 25.8945C189.069 26.1267 188.733 26.2428 188.271 26.2428C187.851 26.2428 187.542 26.1122 187.374 25.851C187.248 25.6623 187.178 25.3213 187.164 24.8134H186.884C186.884 25.3721 186.898 25.7712 186.94 26.0178C186.982 26.2645 187.066 26.4604 187.192 26.6128C187.402 26.8595 187.766 26.9829 188.257 26.9829C189.153 26.9901 189.826 26.3226 190.288 24.9948Z" fill="black"/>
<path d="M188.269 27.0348C187.737 27.0348 187.344 26.8969 187.12 26.6357C186.98 26.4833 186.896 26.2802 186.854 26.0262C186.812 25.7795 186.798 25.3732 186.798 24.8218V24.7782H187.26V24.8218C187.274 25.3152 187.344 25.6634 187.456 25.8448C187.625 26.0915 187.891 26.2076 188.269 26.2076C188.703 26.2076 189.012 26.0988 189.208 25.8811C189.348 25.736 189.446 25.6054 189.502 25.5038C189.684 25.2208 189.852 24.829 190.02 24.3356L186.742 16.4995H186.027V16.2092H189.194V16.4995H188.227L190.651 22.7031L192.794 16.4995H191.814V16.2092H194.111V16.4922H193.411L190.357 25.0177C189.894 26.3745 189.208 27.0348 188.269 27.0348ZM186.98 24.8653C186.98 25.395 187.008 25.7795 187.036 26.019C187.078 26.2584 187.162 26.4543 187.288 26.5994C187.484 26.8316 187.807 26.9477 188.269 26.9477C189.096 26.9477 189.74 26.2947 190.202 24.9959L193.285 16.3906H193.957V16.289H192.01V16.3906H193.018L190.665 23.182L188.003 16.3906H189.012V16.289H186.209V16.3906H186.896L186.91 16.4269L190.202 24.3211V24.3284C190.034 24.829 189.866 25.2354 189.67 25.5183C189.614 25.6272 189.502 25.7578 189.362 25.9101C189.124 26.1641 188.759 26.2874 188.255 26.2874C187.793 26.2874 187.456 26.1423 187.26 25.8593C187.134 25.6707 187.064 25.3442 187.05 24.8581H186.98V24.8653Z" fill="black"/>
<path d="M198.497 16.2441H194.477V16.44H195.583V26.6416H194.477V26.8375H198.007V26.6416H196.886V22.4043H198.554C199.688 22.4043 200.557 22.1285 201.159 21.5771C201.762 21.0329 202.056 20.2493 202.056 19.219C202.056 18.2322 201.776 17.4849 201.215 16.9842C200.683 16.4908 199.772 16.2441 198.497 16.2441ZM200.263 21.4247C200.123 21.6134 199.871 21.773 199.534 21.8964C199.198 22.027 198.848 22.0995 198.512 22.0995H196.886V16.5561H198.441C198.988 16.5561 199.422 16.6432 199.758 16.8246C200.095 17.006 200.333 17.289 200.487 17.688C200.641 18.0798 200.725 18.595 200.725 19.2262C200.739 20.2711 200.585 21.0039 200.263 21.4247Z" fill="black"/>
<path d="M198.105 26.8826H194.393V26.5924H195.499V16.4924H194.393V16.2021H198.498C199.815 16.2021 200.753 16.4561 201.3 16.964C201.86 17.4719 202.154 18.2338 202.154 19.2205C202.154 20.2581 201.846 21.0562 201.244 21.6004C200.627 22.1664 199.73 22.4493 198.554 22.4493H196.984V26.5924H198.105V26.8826ZM194.575 26.7883H197.923V26.6867H196.802V22.355H198.554C199.646 22.355 200.501 22.0865 201.075 21.5496C201.664 21.02 201.972 20.2291 201.972 19.2133C201.972 18.241 201.692 17.4937 201.146 17.0003C200.627 16.5214 199.744 16.282 198.498 16.282H194.575V16.3835H195.682V26.6794H194.575V26.7883ZM198.512 22.1446H196.802V16.5069H198.456C199.03 16.5069 199.492 16.6012 199.843 16.7899C200.179 16.9713 200.445 17.2687 200.599 17.6751C200.753 18.0741 200.837 18.5893 200.837 19.2205C200.837 20.2654 200.669 21.0127 200.347 21.4408C200.193 21.6367 199.941 21.8036 199.59 21.9342C199.226 22.072 198.862 22.1446 198.512 22.1446ZM196.984 22.0503H198.512C198.82 22.0503 199.156 21.985 199.478 21.8616C199.801 21.7455 200.039 21.5932 200.179 21.4118C200.501 20.9982 200.655 20.2654 200.655 19.2278C200.655 18.6038 200.571 18.0886 200.417 17.6968C200.263 17.3123 200.025 17.0293 199.702 16.8624C199.394 16.6955 198.974 16.6085 198.442 16.6085H196.97V22.0503H196.984Z" fill="black"/>
<path d="M205.613 21.3677H209.816V26.6426H208.709V26.8385H212.24V26.6426H211.119V16.441H212.24V16.2451H208.709V16.441H209.816V21.0557H205.613V16.441H206.734V16.2451H203.203V16.441H204.31V26.6426H203.203V26.8385H206.734V26.6426H205.613V21.3677Z" fill="black"/>
<path d="M212.327 26.8825H208.614V26.5923H209.735V21.4044H205.7V26.5923H206.821V26.8825H203.108V26.5923H204.215V16.4851H203.108V16.1948H206.821V16.4851H205.7V21.0126H209.735V16.4851H208.614V16.1948H212.327V16.4851H211.22V26.5923H212.327V26.8825ZM208.797 26.7882H212.145V26.6866H211.038V16.3907H212.145V16.2891H208.797V16.3907H209.917V21.0997H205.532V16.3907H206.653V16.2891H203.305V16.3907H204.411V26.6866H203.305V26.7882H206.653V26.6866H205.532V21.3174H209.917V26.6866H208.797V26.7882Z" fill="black"/>
<path d="M219.987 16.9465C219.721 16.6345 219.398 16.4096 219.006 16.2572C218.614 16.1121 218.124 16.0396 217.521 16.0396C216.849 16.0396 216.26 16.1411 215.784 16.3443C215.307 16.5475 214.901 16.8594 214.607 17.2875C214.299 17.7084 214.075 18.2598 213.92 18.9273C213.766 19.5949 213.696 20.4075 213.696 21.3507C213.696 22.1851 213.738 22.9325 213.836 23.6C213.934 24.2675 214.061 24.8117 214.229 25.2398C214.397 25.6534 214.649 26.0017 214.971 26.2919C215.237 26.5096 215.588 26.6837 216.022 26.8143C216.456 26.9376 216.905 27.003 217.395 27.003C218.068 27.003 218.642 26.9014 219.09 26.6982C219.553 26.4951 219.917 26.1685 220.197 25.7259C220.477 25.2833 220.673 24.7029 220.8 23.9846C220.926 23.2663 220.996 22.3665 220.996 21.2782C220.996 20.1318 220.926 19.2248 220.772 18.5718C220.617 17.9115 220.365 17.3746 219.987 16.9465ZM219.623 23.8975C219.567 24.5215 219.469 25.0221 219.356 25.3994C219.244 25.7695 219.076 26.067 218.852 26.2774C218.698 26.4225 218.474 26.5458 218.194 26.6402C217.913 26.7417 217.661 26.7925 217.409 26.7925C216.344 26.7925 215.658 26.2338 215.322 25.1092C215.139 24.536 215.041 23.7524 215.027 22.7511V21.4886C215.027 20.5236 215.055 19.7472 215.097 19.1595C215.139 18.5718 215.223 18.1002 215.35 17.7519C215.476 17.4036 215.644 17.0989 215.868 16.8377C216.26 16.4314 216.779 16.2282 217.409 16.2282C218.18 16.2282 218.74 16.4894 219.09 17.0046C219.37 17.4254 219.539 17.9551 219.595 18.5936C219.665 19.4933 219.693 20.4148 219.693 21.358C219.693 22.4173 219.665 23.2663 219.623 23.8975Z" fill="black"/>
<path d="M217.412 27.0493C216.907 27.0493 216.431 26.984 215.997 26.8533C215.548 26.7227 215.184 26.5414 214.918 26.3164C214.582 26.0189 214.315 25.6634 214.161 25.2426C213.993 24.8145 213.853 24.2631 213.769 23.6028C213.671 22.9353 213.629 22.1807 213.629 21.3535C213.629 20.4103 213.699 19.5976 213.853 18.9301C214.007 18.2626 214.231 17.7039 214.54 17.2758C214.848 16.8477 215.254 16.5212 215.744 16.318C216.235 16.1076 216.851 15.9988 217.538 15.9988C218.154 15.9988 218.673 16.0786 219.079 16.2237C219.485 16.3761 219.821 16.6083 220.088 16.9275C220.452 17.3556 220.718 17.907 220.872 18.5601C221.026 19.2131 221.096 20.1273 221.096 21.2737C221.096 22.3548 221.026 23.2618 220.9 23.9801C220.774 24.6984 220.564 25.2934 220.298 25.736C220.018 26.1858 219.639 26.5196 219.163 26.73C218.701 26.9404 218.112 27.0493 217.412 27.0493ZM217.538 16.0931C216.879 16.0931 216.319 16.1947 215.857 16.3906C215.394 16.5865 215.002 16.8985 214.708 17.3121C214.413 17.7329 214.175 18.2771 214.035 18.9446C213.881 19.6121 213.811 20.4248 213.811 21.3608C213.811 22.1879 213.853 22.9425 213.951 23.6028C214.049 24.2631 214.175 24.8145 214.343 25.2353C214.512 25.6416 214.75 25.9899 215.086 26.2801C215.338 26.4906 215.688 26.6647 216.095 26.788C216.515 26.9041 216.963 26.9694 217.426 26.9694C218.084 26.9694 218.631 26.8751 219.065 26.6792C219.513 26.4833 219.877 26.1568 220.144 25.7287C220.424 25.2934 220.62 24.7057 220.746 23.9946C220.872 23.2763 220.942 22.3693 220.942 21.2955C220.942 20.1563 220.872 19.2421 220.718 18.5963C220.564 17.9506 220.312 17.4064 219.948 16.9856C219.695 16.6808 219.373 16.4559 218.995 16.318C218.589 16.1584 218.112 16.0931 217.538 16.0931ZM217.412 26.8388C216.305 26.8388 215.576 26.2584 215.24 25.1192C215.058 24.5533 214.96 23.7552 214.946 22.7539V21.4914C214.946 20.5336 214.974 19.75 215.016 19.1623C215.058 18.5746 215.142 18.0957 215.268 17.7474C215.394 17.3991 215.562 17.0871 215.786 16.8259C216.193 16.4051 216.739 16.1874 217.412 16.1874C218.21 16.1874 218.813 16.4559 219.177 16.9928C219.457 17.4209 219.625 17.9578 219.681 18.5963C219.751 19.4888 219.779 20.4248 219.779 21.3608C219.779 22.4128 219.751 23.269 219.709 23.9003C219.653 24.5243 219.555 25.0322 219.443 25.4095C219.331 25.7868 219.149 26.0842 218.925 26.3019C218.757 26.4543 218.533 26.5849 218.238 26.6865C217.958 26.788 217.678 26.8388 217.412 26.8388ZM217.412 16.2818C216.823 16.2818 216.333 16.4777 215.955 16.8695C215.73 17.1234 215.562 17.4282 215.45 17.7692C215.338 18.1175 215.254 18.5891 215.198 19.1695C215.156 19.75 215.128 20.5336 215.128 21.4914V22.7539C215.142 23.7479 215.254 24.5388 215.422 25.1047C215.744 26.1931 216.417 26.7445 217.412 26.7445C217.65 26.7445 217.888 26.6937 218.154 26.5994C218.42 26.5051 218.631 26.389 218.785 26.2511C218.995 26.048 219.163 25.7577 219.275 25.3877C219.387 25.0177 219.485 24.5097 219.541 23.893C219.583 23.2618 219.611 22.4128 219.611 21.3608C219.611 20.4248 219.583 19.4888 219.513 18.5963C219.457 17.9651 219.289 17.4354 219.009 17.0218C218.659 16.5284 218.14 16.2818 217.412 16.2818Z" fill="black"/>
<path d="M229.068 25.0533C228.998 25.4596 228.872 25.7644 228.704 25.9748C228.424 26.3448 227.695 26.5335 226.546 26.5335H224.893V21.3674H226.07C226.714 21.3674 227.177 21.4763 227.457 21.6939C227.737 21.9116 227.891 22.2961 227.919 22.8403H228.214V19.597H227.919L227.877 19.8945C227.821 20.3226 227.709 20.6056 227.541 20.7362C227.261 20.9538 226.771 21.0627 226.07 21.0627H224.893V16.5569H226.771C227.233 16.5569 227.569 16.5931 227.793 16.6585C228.017 16.7238 228.2 16.8544 228.354 17.0357C228.522 17.2244 228.648 17.4493 228.732 17.7105C228.83 17.9862 228.886 18.349 228.9 18.8134H229.18V16.2449H222.483V16.4408H223.59V26.6351H222.483V26.8382H229.39V24.3423H229.11C229.11 24.6905 229.096 24.9227 229.068 25.0533Z" fill="black"/>
<path d="M229.473 26.8898H222.384V26.5924H223.491V16.4924H222.384V16.2021H229.263V18.865H228.801V18.8215C228.786 18.3644 228.73 17.9943 228.632 17.7259C228.548 17.4719 228.422 17.247 228.254 17.0656C228.114 16.8914 227.932 16.7681 227.736 16.7028C227.526 16.6375 227.203 16.6085 226.769 16.6085H224.976V21.02H226.069C226.727 21.02 227.203 20.9184 227.456 20.7152C227.61 20.5919 227.722 20.3161 227.778 19.8953L227.82 19.5543H228.282V22.8919H227.806V22.8484C227.792 22.3187 227.638 21.9414 227.357 21.731C227.091 21.5206 226.671 21.419 226.054 21.419H224.962V26.498H226.531C227.638 26.498 228.338 26.3166 228.604 25.9684C228.758 25.7652 228.885 25.4532 228.955 25.0541C228.983 24.9235 228.997 24.6914 228.997 24.3576V24.3141H229.459V26.8898H229.473ZM222.566 26.7955H229.291V24.3939H229.193C229.193 24.7059 229.179 24.9308 229.151 25.0541C229.081 25.4605 228.955 25.7797 228.786 25.9901C228.492 26.3819 227.736 26.5778 226.545 26.5778H224.794V21.3174H226.054C226.727 21.3174 227.217 21.4335 227.512 21.6657C227.806 21.8906 227.96 22.2534 227.988 22.7903H228.1V19.6414H227.974L227.946 19.8953C227.89 20.3379 227.778 20.6209 227.596 20.7587C227.301 20.9837 226.783 21.0998 226.054 21.0998H224.794V16.5069H226.769C227.245 16.5069 227.596 16.5432 227.834 16.6157C228.072 16.6883 228.268 16.8261 228.436 17.0148C228.604 17.2107 228.744 17.4356 228.815 17.6968C228.913 17.958 228.969 18.3208 228.983 18.7634H229.081V16.2892H222.566V16.3908H223.673V26.6794H222.566V26.7955Z" fill="black"/>
<path d="M149.785 32.4461H150.906V37.0608H146.689V32.4461H147.81V32.2502H144.279V32.4461H145.386V42.6477H144.279V42.8436H147.81V42.6477H146.689V37.3728H150.906V42.6477H149.785V42.8436H153.316V42.6477H152.209V32.4461H153.316V32.2502H149.785V32.4461Z" fill="black"/>
<path d="M153.398 42.8959H149.686V42.6057H150.807V37.4179H146.772V42.6057H147.892V42.8959H144.18V42.6057H145.287V32.4985H144.18V32.2083H147.892V32.4985H146.772V37.0261H150.807V32.4985H149.686V32.2083H153.398V32.4985H152.292V42.6057H153.398V42.8959ZM149.868 42.8016H153.216V42.7H152.11V32.4042H153.216V32.3026H149.868V32.4042H150.989V37.1131H146.603V32.4042H147.724V32.3026H144.376V32.4042H145.483V42.7H144.376V42.8016H147.724V42.7H146.603V37.3308H150.989V42.7H149.868V42.8016Z" fill="black"/>
<path d="M158.442 32.0701H157.658L154.589 42.6562H153.721V42.8521H156.116L156.13 42.6562H155.038L156.004 39.246H159.213L160.235 42.6562H159.157L159.171 42.8521H162.449V42.6562H161.552L158.442 32.0701ZM156.13 38.934L157.7 33.2745L159.199 38.934H156.13Z" fill="black"/>
<path d="M162.534 42.8959H159.087L159.073 42.6056H160.138L159.143 39.2898H156.089L155.15 42.6056H156.243L156.229 42.8959H153.665V42.6056H154.534L157.602 32.0195H158.541L158.555 32.0558L161.637 42.5984H162.548V42.8959H162.534ZM159.255 42.8015H162.351V42.7H161.455L161.441 42.6637L158.358 32.1211H157.728L154.674 42.7H153.819V42.8015H156.033V42.7H154.926L155.921 39.1954H159.283L160.334 42.7H159.241L159.255 42.8015ZM159.311 38.9778H156.033L157.714 32.9338L159.311 38.9778ZM156.243 38.8835H159.101L157.7 33.6085L156.243 38.8835Z" fill="black"/>
<path d="M168.793 39.4346C168.793 40.5955 168.639 41.4517 168.317 41.9886C168.009 42.5328 167.504 42.8013 166.846 42.8013C165.921 42.8013 165.291 42.3659 164.968 41.5025C164.8 41.0454 164.674 40.581 164.618 40.1239C164.562 39.6668 164.52 38.992 164.52 38.1068C164.52 37.5481 164.548 36.8734 164.59 36.097C164.632 35.3206 164.674 34.7619 164.716 34.4137C164.758 34.1815 164.842 33.913 164.968 33.6083C165.333 32.7086 166.005 32.2587 166.944 32.2587C167.392 32.2587 167.757 32.3603 168.009 32.5562C168.275 32.7594 168.471 33.0859 168.583 33.5357C168.695 33.9856 168.751 34.5951 168.751 35.3714H169.97C169.942 34.566 169.83 33.913 169.634 33.4341C169.424 32.948 169.116 32.5997 168.695 32.3893C168.275 32.1789 167.714 32.0701 167 32.0701C166.117 32.0701 165.389 32.2587 164.814 32.6288C164.254 32.9988 163.834 33.5793 163.567 34.3774C163.301 35.1683 163.161 36.1841 163.161 37.4393C163.161 38.7816 163.273 39.8627 163.511 40.6681C163.75 41.4807 164.128 42.0685 164.632 42.4312C165.151 42.8085 165.823 42.9972 166.664 42.9972C168.121 42.9972 169.073 42.4675 169.522 41.4154C169.844 40.7334 169.998 39.9861 169.998 39.1807V38.9558H168.751V39.4346H168.793Z" fill="black"/>
<path d="M166.692 43.041C165.823 43.041 165.109 42.8451 164.591 42.4533C164.072 42.0832 163.694 41.481 163.456 40.6684C163.218 39.863 163.105 38.7674 163.105 37.4323C163.105 36.1843 163.246 35.154 163.512 34.3631C163.778 33.565 164.212 32.97 164.773 32.5927C165.347 32.2082 166.104 32.0195 167.028 32.0195C167.757 32.0195 168.345 32.1284 168.78 32.346C169.214 32.5637 169.536 32.9265 169.746 33.4199C169.943 33.906 170.055 34.559 170.083 35.3644V35.4152H168.682V35.3717C168.682 34.6026 168.626 33.9858 168.513 33.536C168.401 33.0934 168.219 32.7741 167.953 32.5782C167.715 32.3968 167.379 32.3025 166.958 32.3025C166.062 32.3025 165.417 32.7451 165.067 33.6158C164.941 33.9133 164.857 34.1817 164.829 34.4139C164.787 34.7549 164.745 35.3209 164.703 36.09C164.661 36.8664 164.633 37.5411 164.633 38.0998C164.633 38.9778 164.661 39.6598 164.731 40.1169C164.787 40.574 164.913 41.0311 165.081 41.4883C165.403 42.3227 166.006 42.7508 166.874 42.7508C167.491 42.7508 167.967 42.4895 168.261 41.9744C168.57 41.4375 168.724 40.5813 168.724 39.4349V38.9125H170.139V39.1809C170.139 39.9863 169.971 40.7409 169.648 41.423C169.172 42.4968 168.191 43.041 166.692 43.041ZM167.014 32.1139C166.16 32.1139 165.445 32.2952 164.899 32.6508C164.352 33.0136 163.932 33.594 163.666 34.3776C163.4 35.1613 163.274 36.1843 163.274 37.4323C163.274 38.7674 163.386 39.8557 163.624 40.6538C163.862 41.452 164.226 42.0397 164.731 42.4025C165.221 42.7653 165.88 42.9539 166.692 42.9539C168.107 42.9539 169.018 42.446 169.466 41.4084C169.788 40.7264 169.943 39.9791 169.943 39.1882V39.0141H168.878V39.4421C168.878 40.6031 168.724 41.4665 168.401 42.0107C168.079 42.5694 167.547 42.8523 166.832 42.8523C165.866 42.8523 165.207 42.4025 164.871 41.5173C164.703 41.0602 164.577 40.5885 164.521 40.1314C164.464 39.6743 164.422 38.9923 164.422 38.1071C164.422 37.5484 164.45 36.8736 164.492 36.0973C164.535 35.3209 164.577 34.7549 164.619 34.4139C164.661 34.1745 164.745 33.906 164.871 33.6013C165.249 32.6798 165.95 32.2154 166.944 32.2154C167.421 32.2154 167.813 32.3243 168.079 32.5274C168.359 32.7306 168.556 33.0716 168.668 33.5215C168.78 33.9641 168.836 34.5663 168.836 35.3209H169.872C169.844 34.5373 169.732 33.906 169.536 33.4417C169.34 32.9628 169.032 32.6218 168.626 32.4186C168.233 32.2154 167.687 32.1139 167.014 32.1139Z" fill="black"/>
<path d="M172.647 32.4532H173.768V37.9965C173.768 39.4985 173.656 40.6086 173.432 41.3197C173.404 41.4503 173.32 41.5809 173.208 41.7115C172.998 41.9654 172.703 42.0888 172.311 42.0888C171.919 42.0888 171.653 41.9727 171.485 41.7332C171.33 41.4938 171.246 41.073 171.246 40.478V40.42H170.952V40.732C170.952 41.697 171.05 42.321 171.246 42.6112C171.443 42.8506 171.751 42.9667 172.171 42.9667C172.844 42.9667 173.306 42.7345 173.558 42.2702C173.712 42.009 173.824 41.7405 173.894 41.4503C173.964 41.16 174.02 40.7392 174.076 40.1805C174.161 39.1647 174.203 38.3738 174.203 37.8151V32.562H177.229V42.6547H176.094V42.8506H179.639V42.6547H178.504V32.4532H179.653V32.25H172.647V32.4532Z" fill="black"/>
<path d="M172.171 43.012C171.709 43.012 171.373 42.8814 171.163 42.6275C170.953 42.3227 170.854 41.706 170.854 40.7265V40.3709H171.331V40.4725C171.331 41.0602 171.415 41.4811 171.569 41.7133C171.709 41.9309 171.961 42.0398 172.312 42.0398C172.676 42.0398 172.942 41.9237 173.138 41.6915C173.25 41.5609 173.32 41.4303 173.362 41.3069C173.587 40.5959 173.699 39.4857 173.699 37.9911V32.4985H172.578V32.2083H179.751V32.4985H178.602V42.6057H179.737V42.8959H175.982V42.6057H177.117V32.6073H174.273V37.8169C174.273 38.3829 174.231 39.181 174.147 40.1896C174.091 40.741 174.035 41.1691 173.965 41.4593C173.895 41.7495 173.783 42.0325 173.629 42.2865C173.376 42.7726 172.872 43.012 172.171 43.012ZM171.037 40.4653V40.7265C171.037 41.677 171.135 42.3082 171.331 42.5912C171.513 42.8089 171.779 42.9177 172.171 42.9177C172.802 42.9177 173.222 42.7 173.474 42.2574C173.629 42.0035 173.741 41.7278 173.811 41.4448C173.881 41.1618 173.937 40.7337 173.993 40.1823C174.077 39.1737 174.119 38.3756 174.119 37.8169V32.5202H177.327V42.7H176.192V42.8016H179.569V42.7H178.434V32.4042H179.583V32.2953H172.76V32.4042H173.881V37.9911C173.881 39.4857 173.769 40.6104 173.544 41.3214C173.516 41.4521 173.432 41.5899 173.306 41.7278C173.082 41.9962 172.76 42.1341 172.326 42.1341C171.891 42.1341 171.583 42.0035 171.415 41.7423C171.261 41.5028 171.177 41.0748 171.177 40.4725V40.4653H171.037Z" fill="black"/>
<path d="M187.376 41.0594C187.306 41.4657 187.18 41.7705 187.012 41.9809C186.731 42.3509 186.003 42.5396 184.854 42.5396H183.201V37.3663H184.378C185.022 37.3663 185.484 37.4751 185.765 37.6928C186.045 37.9104 186.199 38.295 186.227 38.8392H186.521V35.5959H186.227L186.185 35.8934C186.129 36.3214 186.017 36.6044 185.849 36.735C185.569 36.9527 185.078 37.0615 184.378 37.0615H183.201V32.5557H185.078C185.541 32.5557 185.877 32.592 186.101 32.6573C186.325 32.7226 186.507 32.8532 186.661 33.0346C186.829 33.2232 186.956 33.4482 187.04 33.7094C187.138 33.9851 187.194 34.3479 187.208 34.8122H187.488V32.251H180.791V32.4469H181.898V42.6412H180.791V42.8443H187.698V40.3484H187.418C187.404 40.6966 187.39 40.9361 187.376 41.0594Z" fill="black"/>
<path d="M187.78 42.9032H180.69V42.6057H181.797V32.4985H180.69V32.2083H187.569V34.8711H187.107V34.8276C187.093 34.3705 187.037 34.0004 186.939 33.732C186.855 33.478 186.729 33.2531 186.561 33.0717C186.421 32.8975 186.238 32.7742 186.042 32.7089C185.832 32.6436 185.51 32.6146 185.076 32.6146H183.282V37.0261H184.375C185.034 37.0261 185.51 36.9245 185.762 36.7213C185.916 36.598 186.028 36.3222 186.084 35.9014L186.126 35.5604H186.589V38.898H186.112V38.8545C186.098 38.3248 185.944 37.9475 185.664 37.7371C185.398 37.5267 184.978 37.4251 184.361 37.4251H183.268V42.5041H184.837C185.944 42.5041 186.645 42.3227 186.911 41.9745C187.065 41.7713 187.191 41.4593 187.261 41.0602C187.289 40.9296 187.303 40.6975 187.303 40.3637V40.3202H187.766V42.9032H187.78ZM180.873 42.8089H187.597V40.4072H187.499C187.499 40.7192 187.485 40.9441 187.457 41.0675C187.387 41.4738 187.261 41.7931 187.093 42.0035C186.799 42.3953 186.042 42.5912 184.851 42.5912H183.1V37.3308H184.361C185.034 37.3308 185.524 37.4469 185.818 37.6791C186.098 37.8967 186.267 38.274 186.295 38.8037H186.407V35.6547H186.281L186.253 35.9087C186.196 36.3513 186.084 36.6342 185.902 36.7721C185.608 36.997 185.09 37.1131 184.361 37.1131H183.1V32.5202H185.076C185.552 32.5202 185.902 32.5565 186.14 32.6291C186.379 32.7016 186.575 32.8395 186.743 33.0281C186.911 33.2168 187.051 33.449 187.121 33.7102C187.219 33.9714 187.275 34.3342 187.289 34.7768H187.387V32.3026H180.873V32.4114H181.979V42.7H180.873V42.8089Z" fill="black"/>
<path d="M189.516 32.4546H190.623V37.3595C190.623 38.5349 190.553 39.4999 190.412 40.24C190.272 40.9874 190.062 41.5388 189.754 41.8871C189.46 42.2426 189.068 42.4313 188.577 42.453V44.949H188.843C188.871 44.1726 189.025 43.6284 189.306 43.3092C189.586 43.0045 190.048 42.8521 190.707 42.8521H194.279C194.728 42.8521 195.092 42.9319 195.386 43.0915C195.68 43.2512 195.876 43.4761 195.961 43.7736C196.031 44.042 196.087 44.4338 196.129 44.949H196.409V42.5401H195.288V32.4546H196.409V32.2515H189.516V32.4546ZM191.057 37.4248V32.5635H193.999V42.5473H189.166C189.796 42.3007 190.244 41.9088 190.511 41.3864C190.791 40.7842 190.959 39.9208 191.015 38.8034C191.043 38.1504 191.057 37.6933 191.057 37.4248Z" fill="black"/>
<path d="M196.508 45H196.059V44.9565C196.031 44.4413 195.975 44.0495 195.891 43.7811C195.793 43.4981 195.611 43.2732 195.331 43.1208C195.051 42.9684 194.714 42.8959 194.294 42.8959H190.721C190.105 42.8959 189.671 43.041 189.404 43.3312C189.138 43.636 188.984 44.1801 188.956 44.9492V44.9928H188.508V42.4097L188.592 42.4025C189.04 42.3807 189.404 42.1993 189.699 41.8656C189.993 41.5173 190.203 40.9658 190.343 40.233C190.483 39.4929 190.553 38.5207 190.553 37.3525V32.4912H189.446V32.2009H196.522V32.4912H195.401V42.4895H196.522V45H196.508ZM196.227 44.9057H196.326V42.5911H195.205V32.4041H196.326V32.2953H189.615V32.4041H190.721V37.3598C190.721 38.5279 190.651 39.5002 190.511 40.2475C190.371 40.9949 190.147 41.5536 189.853 41.9091C189.559 42.2574 189.166 42.4533 188.69 42.4968V44.8984H188.774C188.816 44.1439 188.97 43.5997 189.236 43.2877C189.531 42.9612 190.035 42.8015 190.707 42.8015H194.28C194.742 42.8015 195.135 42.8886 195.443 43.0555C195.751 43.2224 195.947 43.4546 196.045 43.7593C196.143 44.0278 196.199 44.4123 196.227 44.9057ZM194.084 42.5911H188.886L189.096 42.5041C189.713 42.2646 190.147 41.8801 190.413 41.3649C190.693 40.7699 190.862 39.9065 190.918 38.7964C190.946 38.1506 190.96 37.6863 190.96 37.4178V32.5129H194.084V42.5911ZM189.418 42.4968H193.916V32.6073H191.156V37.4251C191.156 37.6935 191.142 38.1506 191.114 38.8036C191.058 39.921 190.89 40.7917 190.609 41.3939C190.357 41.8728 189.965 42.2429 189.418 42.4968Z" fill="black"/>
<path d="M199.972 41.785V32.4469H201.093V32.251H197.562V32.4469H198.669V42.6484H197.562V42.8443H199.846L204.189 33.2523V42.6484H203.069V42.8443H206.599V42.6484H205.492V32.4469H206.599V32.251H204.259L199.972 41.785Z" fill="black"/>
<path d="M206.68 42.8959H202.967V42.6057H204.088V33.6594L199.913 42.8959H197.461V42.6057H198.568V32.4985H197.461V32.2083H201.174V32.4985H200.053V41.3795L204.186 32.2083H206.68V32.4985H205.573V42.6057H206.68V42.8959ZM203.149 42.8016H206.498V42.7H205.391V32.4042H206.498V32.3026H204.326L199.885 42.1921V32.4042H201.006V32.3026H197.657V32.4042H198.764V42.7H197.657V42.8016H199.787L204.284 32.8468V42.7H203.163V42.8016H203.149Z" fill="black"/>
<path d="M214.317 41.0592C214.247 41.4655 214.121 41.7702 213.953 41.9807C213.673 42.3507 212.944 42.5394 211.795 42.5394H210.142V37.366H211.319C211.964 37.366 212.426 37.4749 212.706 37.6925C212.986 37.9102 213.14 38.2948 213.168 38.8389H213.463V35.5956H213.168L213.126 35.8931C213.07 36.3212 212.958 36.6042 212.79 36.7348C212.51 36.9524 212.02 37.0613 211.319 37.0613H210.142V32.5555H212.02C212.482 32.5555 212.818 32.5917 213.042 32.6571C213.267 32.7224 213.449 32.853 213.603 33.0343C213.771 33.223 213.897 33.4479 213.981 33.7091C214.079 33.9848 214.135 34.3476 214.149 34.812H214.429V32.2507H207.732V32.4466H208.839V42.6409H207.732V42.8441H214.64V40.3481H214.359C214.359 40.6964 214.345 40.9358 214.317 41.0592Z" fill="black"/>
<path d="M214.721 42.9032H207.646V42.6057H208.752V32.4985H207.646V32.2083H214.525V34.8711H214.062V34.8276C214.048 34.3705 213.992 34.0004 213.894 33.732C213.81 33.478 213.684 33.2531 213.516 33.0717C213.376 32.8975 213.194 32.7742 212.997 32.7089C212.787 32.6436 212.465 32.6146 212.031 32.6146H210.237V37.0261H211.33C211.989 37.0261 212.465 36.9245 212.717 36.7213C212.871 36.598 212.983 36.3222 213.039 35.9014L213.081 35.5604H213.544V38.898H213.067V38.8545C213.053 38.3248 212.899 37.9475 212.619 37.7371C212.353 37.5267 211.933 37.4251 211.316 37.4251H210.223V42.5041H211.793C212.899 42.5041 213.6 42.3227 213.866 41.9745C214.02 41.7713 214.146 41.4593 214.216 41.0602C214.244 40.9296 214.258 40.6975 214.258 40.3637V40.3202H214.721V42.9032ZM207.814 42.8089H214.539V40.4072H214.44C214.44 40.7192 214.426 40.9441 214.398 41.0675C214.328 41.4738 214.202 41.7931 214.034 42.0035C213.74 42.3953 212.983 42.5912 211.793 42.5912H210.041V37.3308H211.302C211.975 37.3308 212.465 37.4469 212.759 37.6791C213.053 37.904 213.208 38.2668 213.236 38.8037H213.348V35.6547H213.222L213.194 35.9087C213.138 36.3513 213.025 36.6342 212.843 36.7721C212.549 36.997 212.031 37.1131 211.302 37.1131H210.041V32.5202H212.017C212.493 32.5202 212.843 32.5565 213.081 32.6291C213.32 32.7016 213.516 32.8395 213.684 33.0281C213.852 33.2168 213.992 33.449 214.062 33.7102C214.16 33.9714 214.202 34.3342 214.23 34.7768H214.328V32.3026H207.814V32.4114H208.92V42.7H207.814V42.8089Z" fill="black"/>
<path d="M70.1212 14.983L79.0457 1.26238H83.9353V0.246582H71.242V1.26238H76.1316L64.2369 19.7717H62.2194V1.26238H67.109V0.246582H47.7188V1.26238H52.5663V41.8437H47.7188V42.8522H67.109V41.8437H61.9392V20.9617H64.9934L75.0948 41.8437H70.1212V42.8522H89.5534V41.8437H85.0141L70.1212 14.983Z" fill="black"/>
<path d="M133.855 1.26392V0.255371H114.465V1.26392H119.397V19.6064H106.157V1.26392H111.046V0.255371H91.6562V1.26392H93.7017V41.8452H91.6562V42.8537H93.9679H95.411H111.046V41.8452H106.157V21.1664H119.397V41.8452H114.465V42.8537H133.855V41.8452H128.966V1.26392H133.855ZM96.5038 41.8452H94.8646V1.26392H96.5038V41.8452Z" fill="black"/>
<path d="M39.9573 0.246826H38.7805H22.8087V1.26263H27.7404V19.5978H14.5006V1.26263H19.3902V0.246826H0V1.26263H4.84756V41.8439H0V42.8524H19.3902V41.8439H14.5006V21.1578H27.7404V41.8439H22.8087V42.8524H42.199V41.8439H39.9573V1.26263H38.7805V41.8439H37.2954V1.26263H42.199V0.246826H39.9573Z" fill="black"/>
</svg>
