<svg width="175" height="43" viewBox="0 0 175 43" fill="none" xmlns="http://www.w3.org/2000/svg">
<path d="M28.535 0H14.2676V42.7738H28.535V0Z" fill="black"/>
<path d="M42.802 12.7581L30.0439 0H42.802V12.7581Z" fill="black"/>
<path d="M0 12.7866L12.7866 0H0V12.7866Z" fill="black"/>
<path d="M57.2402 7.48975H65.8121V9.9958H62.6795V18.055H60.3728V9.9958H57.2402V7.48975Z" fill="black"/>
<path d="M93.3216 12.331H90.8155V18.0551H88.5373V12.331H86.0312V9.99585H93.3216V12.331Z" fill="black"/>
<path d="M97.1384 9.99585V11.8469H98.7047C100.613 11.8469 101.951 12.9291 101.951 14.951C101.951 16.9729 100.613 18.0551 98.7047 18.0551H94.8887V9.99585H97.1384ZM97.053 15.9762H98.6193C99.3027 15.9762 99.6729 15.549 99.6729 15.0649C99.6729 14.5523 99.3027 14.1536 98.6193 14.1536H97.053V15.9762Z" fill="black"/>
<path d="M112.715 9.99585H114.965V13.0145L117.67 9.99585H120.66L117.043 13.9828L120.945 18.0551H117.955L114.965 15.008V18.0551H112.715V9.99585Z" fill="black"/>
<path d="M129.603 14.0112C129.603 16.4888 127.581 18.2829 125.246 18.2829C122.911 18.2829 120.889 16.4888 120.889 14.0112C120.889 11.5621 122.911 9.7395 125.246 9.7395C127.552 9.76798 129.603 11.5621 129.603 14.0112ZM127.296 14.0112C127.296 12.9005 126.356 12.1601 125.246 12.1601C124.135 12.1601 123.195 12.9005 123.195 14.0112C123.195 15.1218 124.135 15.8622 125.246 15.8622C126.356 15.8907 127.296 15.1218 127.296 14.0112Z" fill="black"/>
<path d="M135.128 9.99585C136.779 9.99585 138.175 10.7078 138.175 12.3595C138.175 13.0145 137.947 13.2993 137.634 13.6695C138.175 14.0682 138.516 14.6377 138.516 15.5206C138.516 17.2007 137.064 18.0551 135.441 18.0551H131.312V9.99585H135.128ZM133.447 13.2138H135.327C135.726 13.2138 136.01 12.986 136.01 12.6158C136.01 12.2456 135.726 12.0178 135.327 12.0178H133.447V13.2138ZM133.447 16.0332H135.64C136.039 16.0332 136.324 15.8053 136.324 15.4351C136.324 15.0649 136.039 14.8371 135.64 14.8371H133.447V16.0332Z" fill="black"/>
<path d="M146.575 14.8655L147.287 16.8305C146.718 17.6564 145.465 18.2829 144.041 18.2829C141.649 18.2829 139.655 16.5457 139.655 14.0112C139.655 11.4767 141.649 9.7395 144.041 9.7395C145.465 9.7395 146.689 10.3945 147.23 11.1919L146.547 13.1284C146.148 12.6158 145.379 12.1316 144.24 12.1316C142.873 12.1316 141.934 12.9005 141.934 13.9827C141.934 15.0649 142.873 15.8338 144.24 15.8338C145.379 15.8907 146.148 15.3781 146.575 14.8655Z" fill="black"/>
<path d="M149.053 9.99585H151.302V13.0145L154.008 9.99585H156.97L153.381 13.9828L157.283 18.0551H154.264L151.302 15.008V18.0551H149.053V9.99585Z" fill="black"/>
<path d="M167.62 13.0999C167.62 11.135 169.073 9.99585 170.952 9.99585H174.74V18.0551H172.49V15.9192H171.75L170.069 18.0551H167.421L169.158 15.8623C168.332 15.4636 167.62 14.4099 167.62 13.0999ZM172.49 12.1886H170.924C170.24 12.1886 169.87 12.6158 169.87 13.0999C169.87 13.6125 170.24 14.0112 170.924 14.0112H172.49V12.1886Z" fill="black"/>
<path d="M103.374 13.0999C103.374 11.135 104.827 9.99585 106.706 9.99585H110.494V18.0551H108.244V15.9192H107.503L105.823 18.0551H103.175L104.912 15.8623C104.058 15.4636 103.374 14.4099 103.374 13.0999ZM108.215 12.1886H106.649C105.966 12.1886 105.595 12.6158 105.595 13.0999C105.595 13.6125 105.966 14.0112 106.649 14.0112H108.215V12.1886Z" fill="black"/>
<path d="M113.855 30.6422C113.855 28.6772 115.307 27.5381 117.187 27.5381H120.974V35.5973H118.724V33.4615H117.984L116.304 35.5973H113.655L115.392 33.4045C114.538 33.0058 113.855 31.9522 113.855 30.6422ZM118.696 29.7024H117.13C116.446 29.7024 116.076 30.1296 116.076 30.6137C116.076 31.1263 116.446 31.525 117.13 31.525H118.696V29.7024Z" fill="black"/>
<path d="M64.1316 27.5098V29.9019H60.4294V35.5975H58.1797V27.5098H64.1316Z" fill="black"/>
<path d="M74.8965 33.4615C76.121 33.433 76.8045 33.2906 76.8899 28.3639L76.9184 27.5381H83.2405V35.5973H80.9907V29.9017H78.9973L78.9688 30.5567C78.798 34.2019 77.8582 35.6543 76.2065 35.6543C75.8647 35.6543 75.4945 35.5973 75.3237 35.5119L74.8965 33.4615Z" fill="black"/>
<path d="M84.9497 14.7232H79.0832C79.3111 15.5775 80.1084 16.1186 81.3045 16.1186C82.2443 16.1186 83.2125 15.7484 83.6682 15.2358L84.3801 16.916C83.8106 17.7419 82.5575 18.2829 81.1336 18.2829C78.6561 18.2829 76.748 16.6597 76.748 14.0397C76.748 11.733 78.3713 9.76807 80.9628 9.76807C83.3834 9.76807 84.9781 11.79 84.9781 14.0397C85.0066 14.296 84.9782 14.5523 84.9497 14.7232ZM82.7284 13.1569C82.586 12.3596 81.8171 11.9324 80.9628 11.9324C80.08 11.9324 79.3395 12.3596 79.1402 13.1569H82.7284Z" fill="black"/>
<path d="M93.1508 32.2654H87.2844C87.5122 33.1198 88.3096 33.6609 89.5057 33.6609C90.4454 33.6609 91.4137 33.2907 91.8693 32.7781L92.5813 34.4582C92.0117 35.2841 90.7587 35.8252 89.3348 35.8252C86.8572 35.8252 84.9492 34.2019 84.9492 31.582C84.9492 29.2753 86.5725 27.3103 89.1639 27.3103C91.5846 27.3103 93.1793 29.3322 93.1793 31.582C93.2078 31.8383 93.1793 32.0946 93.1508 32.2654ZM90.9296 30.6707C90.7872 29.8733 90.0183 29.4461 89.1639 29.4461C88.2811 29.4461 87.5407 29.8733 87.3414 30.6707H90.9296Z" fill="black"/>
<path d="M112.687 32.2654H106.821C107.048 33.1198 107.846 33.6609 109.042 33.6609C109.982 33.6609 110.95 33.2907 111.405 32.7781L112.117 34.4582C111.548 35.2841 110.295 35.8252 108.871 35.8252C106.393 35.8252 104.485 34.2019 104.485 31.582C104.485 29.2753 106.109 27.3103 108.7 27.3103C111.121 27.3103 112.715 29.3322 112.715 31.582C112.715 31.8383 112.715 32.0946 112.687 32.2654ZM110.466 30.6707C110.323 29.8733 109.554 29.4461 108.7 29.4461C107.817 29.4461 107.077 29.8733 106.877 30.6707H110.466Z" fill="black"/>
<path d="M161.413 9.76807C162.666 9.76807 163.492 10.2522 163.776 10.8217V9.99589H165.969V18.0551H163.776V17.2293C163.492 17.8273 162.694 18.2829 161.413 18.2829C159.277 18.2829 157.426 16.5458 157.426 14.0113C157.426 11.4767 159.277 9.76807 161.413 9.76807ZM161.783 15.8908C162.694 15.8908 163.435 15.4921 163.662 14.9795V13.1C163.435 12.5874 162.694 12.1887 161.783 12.1887C160.53 12.1887 159.704 12.9861 159.704 14.0397C159.704 15.0934 160.53 15.8908 161.783 15.8908Z" fill="black"/>
<path d="M69.1441 27.2249C70.3972 27.2249 71.223 27.709 71.5078 28.2785V27.4527H73.7006V35.5119H71.5078V34.6861C71.223 35.2841 70.4256 35.7397 69.1441 35.7397C67.0083 35.7397 65.1572 34.0026 65.1572 31.4681C65.1572 28.9335 67.0083 27.2249 69.1441 27.2249ZM69.5428 33.3476C70.4541 33.3476 71.1945 32.9489 71.4224 32.4363V30.5568C71.1945 30.0442 70.4541 29.6455 69.5428 29.6455C68.2898 29.6455 67.4639 30.4429 67.4639 31.4965C67.4639 32.5502 68.2898 33.3476 69.5428 33.3476Z" fill="black"/>
<path d="M71.5075 18.2829C70.2544 18.2829 69.514 17.7988 69.2292 17.2293V21.3301H66.9795V9.99589H69.1723V10.8217C69.4571 10.2237 70.2544 9.76807 71.536 9.76807C73.6718 9.76807 75.5229 11.5052 75.5229 14.0397C75.5229 16.5743 73.6433 18.2829 71.5075 18.2829ZM71.1088 12.1602C70.1975 12.1602 69.4571 12.5589 69.2292 13.0715V14.951C69.4571 15.4636 70.1975 15.8623 71.1088 15.8623C72.3618 15.8623 73.1877 15.0649 73.1877 14.0113C73.1877 12.9576 72.3618 12.1602 71.1088 12.1602Z" fill="black"/>
<path d="M97.1952 38.8725V34.7717C97.48 35.3697 98.2489 35.8253 99.445 35.8253C101.495 35.8253 103.318 34.0882 103.318 31.5537C103.318 29.0191 101.495 27.282 99.445 27.282C98.2204 27.282 97.3946 27.7661 97.1098 28.3357V27.5098H94.917V31.5537V38.8725H97.1952ZM97.1952 30.6139C97.423 30.1013 98.2204 29.7026 99.0748 29.7026C100.271 29.7026 101.04 30.5 101.04 31.5537C101.04 32.6358 100.271 33.4047 99.0748 33.4047C98.2204 33.4047 97.423 33.006 97.1952 32.4934V31.5537V30.6139Z" fill="black"/>
</svg>
