<svg width="40" height="8" viewBox="0 0 40 8" fill="none" xmlns="http://www.w3.org/2000/svg">
<path d="M1.11361 3.5L0.613609 3.5L0.613609 4.5L1.11361 4.5L1.11361 3.5ZM39.0047 4.35355C39.2 4.15829 39.2 3.84171 39.0047 3.64645L35.8228 0.464466C35.6275 0.269204 35.3109 0.269204 35.1157 0.464466C34.9204 0.659728 34.9204 0.976311 35.1157 1.17157L37.9441 4L35.1157 6.82843C34.9204 7.02369 34.9204 7.34027 35.1157 7.53553C35.3109 7.7308 35.6275 7.7308 35.8228 7.53553L39.0047 4.35355ZM1.11361 4.5L38.6512 4.5L38.6512 3.5L1.11361 3.5L1.11361 4.5Z" fill="#D96B4F"/>
</svg>
