<svg width="60" height="8" viewBox="0 0 60 8" fill="none" xmlns="http://www.w3.org/2000/svg">
<path d="M1.17639 3.5L0.676393 3.5L0.676393 4.5L1.17639 4.5L1.17639 3.5ZM59.812 4.35355C60.0072 4.15829 60.0072 3.84171 59.812 3.64644L56.63 0.464464C56.4347 0.269202 56.1181 0.269202 55.9229 0.464464C55.7276 0.659726 55.7276 0.976308 55.9229 1.17157L58.7513 4L55.9229 6.82842C55.7276 7.02369 55.7276 7.34027 55.9229 7.53553C56.1181 7.73079 56.4347 7.73079 56.63 7.53553L59.812 4.35355ZM1.17639 4.5L59.4584 4.5L59.4584 3.5L1.17639 3.5L1.17639 4.5Z" fill="#D96B4F"/>
</svg>
