<?xml version="1.0" encoding="utf-8"?>
<!-- Generator: Adobe Illustrator 23.1.1, SVG Export Plug-In . SVG Version: 6.00 Build 0)  -->
<svg version="1.1" id="Слой_1" xmlns="http://www.w3.org/2000/svg" xmlns:xlink="http://www.w3.org/1999/xlink" x="0px" y="0px"
	 viewBox="0 0 48 48" style="enable-background:new 0 0 48 48;" xml:space="preserve">
<style type="text/css">
	.st0{fill:#1D2332;}
</style>
<path class="st0" d="M20.5,15.9c0,0.7,0,3.6,0,3.6h-2.7V24h2.7v13.2H26V24h3.7c0,0,0.3-2.1,0.5-4.5c-0.5,0-4.2,0-4.2,0s0-2.6,0-3
	c0-0.5,0.6-1.1,1.2-1.1c0.6,0,1.8,0,3,0c0-0.6,0-2.7,0-4.6c-1.5,0-3.3,0-4,0C20.4,10.8,20.5,15.3,20.5,15.9z"/>
</svg>
