<svg width="16" height="21" viewBox="0 0 16 21" fill="none" xmlns="http://www.w3.org/2000/svg">
<path d="M2.18182 20.3636H13.8182C15.0213 20.3636 16 19.385 16 18.1818V10.1818C16 8.97867 15.0213 8 13.8182 8V5.09091C13.8182 2.28364 11.5345 0 8.72727 0H7.27273C4.46545 0 2.18182 2.28364 2.18182 5.09091V8C0.978667 8 0 8.97867 0 10.1818V18.1818C0 19.385 0.978667 20.3636 2.18182 20.3636ZM3.63636 5.09091C3.63636 3.08582 5.26764 1.45455 7.27273 1.45455H8.72727C10.7324 1.45455 12.3636 3.08582 12.3636 5.09091V8H3.63636V5.09091ZM1.45455 10.1818C1.45455 9.78085 1.78085 9.45455 2.18182 9.45455C6.46933 9.45455 9.52679 9.45455 13.8182 9.45455C14.2192 9.45455 14.5455 9.78085 14.5455 10.1818V18.1818C14.5455 18.5828 14.2192 18.9091 13.8182 18.9091H2.18182C1.78085 18.9091 1.45455 18.5828 1.45455 18.1818V10.1818Z" fill="#E86B4C"/>
<path d="M6.54541 13.0913C6.54541 12.2891 7.19777 11.6367 7.99996 11.6367C8.80214 11.6367 9.4545 12.2891 9.4545 13.0913C9.4545 13.6273 9.15996 14.0913 8.72723 14.3436V16.0004C8.72723 16.4021 8.40165 16.7276 7.99996 16.7276C7.59826 16.7276 7.27268 16.4021 7.27268 16.0004V14.3436C6.83996 14.0913 6.54541 13.6273 6.54541 13.0913Z" fill="#E86B4C"/>
</svg>
