<svg width="91" height="30" viewBox="0 0 91 30" fill="none" xmlns="http://www.w3.org/2000/svg">
<path d="M13.2133 6.23926H5.14883C5.19536 6.39215 5.25739 6.54503 5.33494 6.69792H13.0427C13.1357 6.56032 13.1978 6.40743 13.2133 6.23926Z" fill="#BBCDDB"/>
<path d="M12.8721 6.97363H5.47452C5.53655 7.11123 5.6296 7.24883 5.73816 7.37114H12.5619C12.686 7.24883 12.779 7.12652 12.8721 6.97363Z" fill="#BBCDDB"/>
<path d="M12.3138 7.69238H6.0018C6.0018 7.69238 6.15689 7.86056 6.29646 7.99816H11.9881C12.1122 7.90642 12.2207 7.81469 12.3138 7.69238Z" fill="#BBCDDB"/>
<path d="M11.6314 8.33447H6.69969C6.69969 8.33447 6.69969 8.36505 7.05639 8.5638H11.2437C11.3833 8.50265 11.5073 8.4262 11.6314 8.33447Z" fill="#BBCDDB"/>
<path d="M10.825 8.93018H7.61469C7.61469 8.93018 8.14198 9.23595 9.15004 9.23595C9.72385 9.23595 10.2977 9.12893 10.825 8.93018Z" fill="#BBCDDB"/>
<path d="M10.6389 9.60303C10.3132 9.66418 9.9875 9.80178 9.70835 9.98525C9.46021 10.184 9.27411 10.4286 9.13453 10.7038C8.96394 10.4133 8.76233 10.1381 8.51419 9.9088C8.14199 9.6336 7.53715 9.60303 7.53715 9.60303H1.2717L0 11.4988H5.8157C6.14138 11.5447 6.45155 11.6517 6.73071 11.8352C6.97885 11.9728 7.19596 12.1868 7.35105 12.4314C7.41308 12.5079 7.36656 12.4773 7.42859 12.5843C7.47512 12.6455 7.53715 12.7066 7.6147 12.7372H10.5923C10.5923 12.7372 10.5768 12.7525 10.6544 12.7219C10.7319 12.6761 10.8095 12.6149 10.856 12.5385C10.9025 12.462 10.949 12.3856 10.9645 12.3091C11.1196 12.1104 11.3057 11.9422 11.5228 11.8199C11.8175 11.6211 12.1742 11.4988 12.5309 11.453H18.238L16.9819 9.61832L10.6389 9.60303Z" fill="#BBCDDB"/>
<path d="M3.03967 12.1865V21.5432C3.03967 21.5432 3.07069 22.3688 3.78408 23.4849C4.20281 24.1576 4.80765 24.7233 5.50553 25.1208L6.31197 23.8824C5.8157 23.5614 5.39697 23.1639 5.07129 22.6746C4.77663 22.2465 4.59053 21.7267 4.55951 21.2069V12.1865H3.03967Z" fill="#BBCDDB"/>
<path d="M14.609 23.4088C15.1829 22.522 15.3069 21.1766 15.3069 21.1766V12.1562H13.8026V21.1766C13.8026 21.1766 13.6785 22.0787 13.2598 22.7208C12.9341 23.1794 12.5464 23.577 12.0967 23.9133L12.8721 25.1364C12.8721 25.1364 14.0352 24.2955 14.609 23.4088Z" fill="#BBCDDB"/>
<path d="M5.05579 25.8853C4.28036 25.4266 3.61349 24.7845 3.13273 24.0353C2.62095 23.3015 2.29527 22.4453 2.21772 21.5432V12.1865H0.66687V21.5738C0.790938 22.6287 1.13213 23.6378 1.69043 24.5398C2.60544 26.0534 4.28036 27.1084 4.28036 27.1084L5.05579 25.8853Z" fill="#BBCDDB"/>
<path d="M10.8405 23.1494L10.8094 22.8895V13.1964H9.55324V23.2717C9.55324 23.3635 9.56875 23.4552 9.59977 23.5316C9.63079 23.654 9.70833 23.8221 9.70833 23.8221L11.771 27.1857H6.52908L8.5607 23.8374C8.60722 23.7457 8.65375 23.654 8.68476 23.5622C8.70027 23.4705 8.71578 23.3635 8.73129 23.2717V13.1812H7.52162V23.1036C7.52162 23.1036 7.49061 23.1341 7.4751 23.287C7.45959 23.3788 7.42857 23.4705 7.35103 23.5316L4.00118 29.0203H14.2989L10.9335 23.4246L10.8405 23.1494Z" fill="#BBCDDB"/>
<path d="M16.1289 21.3754C16.1289 21.3754 16.1134 22.5679 15.2294 23.9286C14.3454 25.2893 13.3218 25.8703 13.3218 25.8703L14.0817 27.124C14.0817 27.124 15.6171 26.176 16.5941 24.6472C17.5712 23.1183 17.6642 21.3754 17.6642 21.3754V12.1562H16.1289V21.3754Z" fill="#BBCDDB"/>
<path d="M13.2443 5.97971C13.2443 5.97971 13.9112 3.42649 11.6624 1.79059C11.6624 1.79059 10.7319 0.949707 9.10353 0.949707C8.20403 0.949707 7.33556 1.24019 6.65318 1.80588C4.57504 3.19716 5.10233 5.97971 5.10233 5.97971H13.2443Z" fill="#BBCDDB"/>
<path d="M22.3633 4.83325C22.6115 4.74152 22.7976 4.68037 22.9061 4.6345V7.31003H23.4955V7.01955H26.5972V7.31003H27.1865V4.60392C27.2795 4.64979 27.3726 4.69566 27.4656 4.71094C27.5587 4.74152 27.6517 4.7721 27.7448 4.80268L28.0239 4.23699C27.1089 4.05353 26.4111 3.74775 25.9458 3.28909H27.9774V2.78456H25.3099V2.26474C26.0233 2.21888 26.7367 2.11185 27.4501 1.98954L27.171 1.46973C26.3025 1.66848 25.0463 1.76021 23.3714 1.76021C23.0147 1.76021 22.72 1.76021 22.4874 1.74492L22.689 2.3259C23.1077 2.3259 23.7901 2.31061 24.7361 2.29532V2.78456H22.1307V3.30438H24.0848C23.511 3.77833 22.8131 4.11468 22.0842 4.28286L22.3633 4.83325ZM26.5816 6.51502H23.4799V5.96462H26.5816V6.51502ZM25.2944 3.31967C25.6977 3.83949 26.2405 4.23699 26.8608 4.46632H25.2944V3.31967ZM26.5816 5.00143V5.47538H23.4799V4.98614L26.5816 5.00143ZM24.6896 3.31967V4.46632H23.2628C23.8366 4.2217 24.3329 3.8242 24.6896 3.31967Z" fill="#BBCDDB"/>
<path d="M31.5134 3.83894C31.2187 3.60961 30.9086 3.41085 30.5829 3.24268L30.2107 3.71663C30.5208 3.91538 30.8155 4.14471 31.0947 4.38933L31.5134 3.83894Z" fill="#BBCDDB"/>
<path d="M31.4669 5.38356L30.9241 5.0625C30.7845 5.65876 30.5363 6.22445 30.1641 6.72898L30.6759 7.2335C31.0326 6.65253 31.3118 6.02569 31.4669 5.38356Z" fill="#BBCDDB"/>
<path d="M31.6995 2.32559V2.66195H32.5369V3.28879H31.5754V3.8086H32.5834C32.3973 4.19082 31.9631 4.54246 31.2497 4.86353L31.6064 5.38335C31.808 5.26104 31.9941 5.13873 32.1802 4.98584V6.37712C32.1802 6.6676 32.2267 6.85107 32.3353 6.95809C32.5059 7.0804 32.7075 7.12627 32.9091 7.11098H34.9563C35.2819 7.11098 35.4991 7.04982 35.6076 6.9428C35.7162 6.83578 35.8092 6.48414 35.8868 5.90316L35.2819 5.68912C35.2664 5.91845 35.2354 6.14778 35.1889 6.37712C35.1579 6.49943 35.0493 6.57587 34.8787 6.57587H33.0022C32.8936 6.59116 32.8006 6.51472 32.7851 6.40769C32.7851 6.39241 32.7851 6.37712 32.7851 6.36183V5.96432H34.8167V4.68006C35.1113 4.93997 35.437 5.1693 35.7782 5.35277L36.0574 4.80237C35.375 4.46602 34.9563 4.12967 34.7857 3.79331H35.9953V3.2735H34.8632V2.63137H35.9023V2.14213H34.8632V1.5H34.2894V2.14213H33.1418V1.5H32.5679V2.14213H31.7305V2.21857C31.4823 2.03511 31.1722 1.82106 30.8155 1.60702L30.3967 2.06568C30.7379 2.27973 31.0481 2.52435 31.3428 2.79955L31.6995 2.32559ZM33.1262 2.67724H34.2739V3.28879H33.1262V2.67724ZM33.2658 3.8086H34.1188C34.2274 4.00736 34.3514 4.19082 34.5065 4.37429H32.8781C33.0332 4.20611 33.1573 4.00736 33.2658 3.8086ZM32.7851 4.84824H34.2429V5.45979H32.7851V4.84824Z" fill="#BBCDDB"/>
<path d="M38.5698 6.14794C38.9109 5.71985 39.2056 5.26119 39.4227 4.75666V7.30988L39.9965 7.2793V4.38973C40.1051 4.54262 40.2137 4.68021 40.3377 4.80252C40.4618 4.94012 40.5859 5.1083 40.7099 5.27648L41.0666 4.74137C40.834 4.48146 40.4773 4.14511 39.9965 3.70173V3.64058H40.9581V3.10547H40.012V2.2493C40.3377 2.18815 40.6479 2.09641 40.9736 1.98939L40.7564 1.48486C39.981 1.76006 39.1591 1.91295 38.3216 1.92824L38.4457 2.44806C38.7714 2.43277 39.097 2.40219 39.4227 2.34103V3.12076H38.2441V3.65587H39.3917C39.1125 4.35915 38.7093 5.01657 38.1975 5.58225L38.5698 6.14794Z" fill="#BBCDDB"/>
<path d="M40.896 5.91808L43.0052 5.59702V7.30936H43.5945V5.52058L44.1683 5.42884V4.86316L43.5945 4.95489V1.43848H43.0052V5.01605L40.896 5.33711V5.91808Z" fill="#BBCDDB"/>
<path d="M42.7725 2.6619C42.4003 2.3867 42.0126 2.12679 41.6094 1.89746L41.2372 2.31026C41.6404 2.55488 42.0126 2.83008 42.3693 3.12056L42.7725 2.6619Z" fill="#BBCDDB"/>
<path d="M42.6485 4.17557C42.2763 3.88508 41.8886 3.64046 41.4853 3.41113L41.1131 3.82393C41.5164 4.06855 41.9041 4.34375 42.2763 4.64952L42.6485 4.17557Z" fill="#BBCDDB"/>
<path d="M46.3085 4.72556L46.4636 5.39827C46.6652 5.3524 46.9444 5.27596 47.3011 5.18422V6.45319C47.3166 6.54492 47.2546 6.65194 47.146 6.66723C47.1305 6.66723 47.0995 6.66723 47.084 6.66723L46.5412 6.65194L46.6807 7.27878H47.177C47.4872 7.27878 47.6888 7.23292 47.7818 7.1259C47.8749 7.01888 47.9059 6.83541 47.9059 6.54492V5.01605C48.154 4.9396 48.4022 4.84787 48.6503 4.72556V4.11401C48.4177 4.22103 48.1696 4.31276 47.9059 4.38921V3.28842H48.6503V2.89091H50.0151V3.73179H48.7744V4.31276H51.2868C51.1162 4.81729 50.806 5.27596 50.3718 5.59702C50.0306 5.24538 49.7359 4.84787 49.5033 4.4045L48.976 4.61854C49.2241 5.10778 49.5498 5.55115 49.922 5.94866C49.3792 6.33088 48.7589 6.59079 48.1075 6.74368L48.4487 7.30936C49.0535 7.18705 49.6894 6.86599 50.3563 6.36146C50.806 6.77425 51.3333 7.09532 51.9071 7.27878L52.2328 6.69781C51.7055 6.56021 51.2247 6.31559 50.806 5.96395C51.0852 5.71933 51.3178 5.42884 51.4884 5.10778C51.6745 4.83258 51.8141 4.5421 51.9071 4.23632V3.7165H50.6354V2.87562H52.1242V2.32522H50.6354V1.43848H50.0151V2.32522H48.6503V2.72273H47.9059V1.43848H47.2856V2.72273H46.3551V3.28842H47.2856V4.5421C46.9754 4.61854 46.6497 4.67969 46.3085 4.72556Z" fill="#BBCDDB"/>
<path d="M54.373 6.69815L54.8537 7.29441C56.265 6.37708 57.118 5.16927 57.3971 3.67097H57.4902C57.9089 5.33745 58.6843 6.54526 59.832 7.27912L60.3127 6.69815C59.7234 6.33122 59.2116 5.84198 58.8394 5.261C58.5137 4.77176 58.2811 4.23666 58.157 3.67097H60.1732V3.01356H57.5057C57.5367 2.69249 57.5522 2.17267 57.5522 1.4541H56.8853C56.9008 1.97392 56.8698 2.49374 56.8078 3.01356H54.528V3.67097H56.7148C56.5907 4.29781 56.327 4.87878 55.9238 5.36802C55.5051 5.91842 54.9778 6.36179 54.373 6.69815Z" fill="#BBCDDB"/>
<path d="M65.2134 6.59137C65.2289 6.6831 65.1669 6.75954 65.0739 6.77483C65.0584 6.77483 65.0428 6.77483 65.0273 6.77483L64.1589 6.74426L64.2984 7.24878H65.2289C65.6167 7.24878 65.8028 7.01945 65.8028 6.57608V6.31617H68.4237V5.81164H65.8028C66.268 5.67404 66.7333 5.49058 67.1675 5.27653V4.81787H63.6471V5.27653H66.299C65.9423 5.38356 65.5701 5.47529 65.1979 5.55173V5.82693H62.4684V6.33146H65.2134V6.59137Z" fill="#BBCDDB"/>
<path d="M63.1663 4.55775H67.7258V5.47508H68.2996V4.06851H67.9585L68.036 1.60702H66.4696V2.09626H67.4777V2.43261H66.5472V2.8607H67.4622L67.4467 3.21234H66.5472V3.64043H67.4312V4.05322H63.4765L63.461 3.64043H64.407V3.21234H63.4455V2.8607H64.407V2.4479H63.4299L63.4144 2.12684C63.8022 2.11155 64.1744 2.06568 64.5311 1.95866L64.2519 1.5C63.8022 1.60702 63.3214 1.66818 62.8561 1.68347L62.9182 4.06851H62.608V5.47508H63.1663V4.55775Z" fill="#BBCDDB"/>
<path d="M64.4845 2.27936L64.8102 2.69216C65.0739 2.58513 65.3065 2.46282 65.5546 2.30994C65.6012 2.30994 65.7097 2.43225 65.8803 2.66158L66.268 2.38638C66.1284 2.24878 66.0199 2.12647 65.9268 2.05003C66.0664 1.95829 66.1905 1.85127 66.299 1.71367L65.9889 1.43848C65.8803 1.57608 65.7562 1.6831 65.6012 1.77483C65.4306 1.65252 65.2755 1.53021 65.1049 1.43848L64.7637 1.72896C64.9188 1.8207 65.0584 1.91243 65.1979 2.01945C64.9653 2.14176 64.7327 2.23349 64.4845 2.27936Z" fill="#BBCDDB"/>
<path d="M66.0509 2.67773C65.9268 2.83062 65.7717 2.95293 65.6167 3.05995C65.5236 2.98351 65.4306 2.92235 65.353 2.8612C65.291 2.83062 65.2134 2.76947 65.1359 2.7236L64.8102 2.9988C65.0118 3.1364 65.1514 3.22813 65.2289 3.28928C65.0273 3.39631 64.7947 3.47275 64.5776 3.51862L64.8567 3.93141C65.1204 3.85497 65.3685 3.73266 65.6011 3.57977C65.6322 3.57977 65.7407 3.70208 65.9423 3.9467L66.3455 3.64093C66.2215 3.51862 66.1129 3.41159 65.9889 3.30457C66.1439 3.19755 66.2835 3.05995 66.4231 2.93764L66.0509 2.67773Z" fill="#BBCDDB"/>
<path d="M23.9142 14.2964V10.2449H25.0153V9.7251H22.2393V10.2449H23.3404V14.2964H23.9142Z" fill="#BBCDDB"/>
<path d="M26.0699 9.7251H25.4806V14.2964H26.0699V12.1101H28.2721V14.2964H28.8459V9.7251H28.2721V11.575H26.0699V9.7251Z" fill="#BBCDDB"/>
<path d="M32.2423 13.7766H30.3347V12.049H32.1802V11.5292H30.3347V10.2449H32.2423V9.7251H29.7454V14.2964H32.2423V13.7766Z" fill="#BBCDDB"/>
<path d="M35.3905 9.7251H34.8012V14.2964H35.3905V12.1101H37.5927V14.2964H38.1665V9.7251H37.5927V11.575H35.3905V9.7251Z" fill="#BBCDDB"/>
<path d="M41.1907 9.6333C39.857 9.6333 38.7559 10.7035 38.7559 12.0183C38.7869 13.3485 39.9035 14.3881 41.2527 14.3575C42.5399 14.327 43.5945 13.3026 43.6255 12.0183C43.5945 10.7035 42.5244 9.6333 41.1907 9.6333ZM41.1907 13.8683C40.1671 13.8683 39.3297 13.0427 39.3297 12.0336V12.0183C39.3297 11.0093 40.1516 10.199 41.1752 10.199C42.1988 10.199 43.0207 11.0093 43.0207 12.0183C43.0362 13.0274 42.2143 13.853 41.1907 13.8683Z" fill="#BBCDDB"/>
<path d="M44.7577 10.8872L48.2316 14.4954V9.72527H47.6577V13.1041L44.1683 9.51123V14.2966H44.7577V10.8872Z" fill="#BBCDDB"/>
<path d="M48.8054 12.034C48.8054 13.303 49.86 14.4038 51.1472 14.4038C52.4344 14.4038 53.3494 13.4406 53.3494 12.1869V12.0034H51.5039V12.5232H52.698C52.667 13.2724 51.9071 13.8839 51.1782 13.8839C50.1701 13.8839 49.3792 12.9666 49.3792 12.0187C49.3482 11.0249 50.1391 10.1993 51.1627 10.1688C51.7675 10.1535 52.3413 10.4287 52.698 10.9179L53.1013 10.5357C52.2638 9.51135 50.744 9.34317 49.7049 10.1688C49.1311 10.6121 48.8054 11.3001 48.8054 12.034Z" fill="#BBCDDB"/>
<path d="M59.1651 14.2964L57.0404 11.7891L59.1341 9.7251H58.3742L56.4046 11.7126V9.7251H55.8308V14.2964H56.4046V12.3853L56.6372 12.1713L58.3897 14.2964H59.1651Z" fill="#BBCDDB"/>
<path d="M59.2581 12.0185C59.2581 13.3486 60.3437 14.4188 61.693 14.4188C63.0267 14.4188 64.1278 13.3486 64.1278 12.0185C64.1278 10.6884 63.0422 9.61816 61.693 9.61816C60.3437 9.61816 59.2581 10.6884 59.2581 12.0185ZM61.6775 10.1686C62.6855 10.1533 63.523 10.9636 63.5385 11.9573C63.5385 11.9726 63.5385 12.0032 63.5385 12.0185C63.6316 13.0276 62.8716 13.9143 61.8481 14.006C60.8245 14.0978 59.925 13.3486 59.832 12.3396C59.8165 12.2325 59.8165 12.1102 59.832 12.0032C59.8009 11.0094 60.6074 10.1686 61.6154 10.1533C61.6465 10.1686 61.662 10.1686 61.6775 10.1686Z" fill="#BBCDDB"/>
<path d="M68.1601 13.1041L64.6862 9.51123V14.2966H65.26V10.8872L68.7339 14.4954V9.72527H68.1601V13.1041Z" fill="#BBCDDB"/>
<path d="M71.6494 14.4038C72.9522 14.4038 73.8517 13.4406 73.8517 12.1869V12.0034H72.0061V12.5232H73.2003C73.1693 13.2724 72.3939 13.8839 71.6805 13.8839C70.6724 13.8839 69.8815 12.9666 69.8815 12.0187C69.8505 11.0249 70.6414 10.1993 71.665 10.1688C72.2698 10.1535 72.8436 10.4287 73.2003 10.9179L73.6035 10.5357C72.7661 9.51135 71.2462 9.34317 70.2072 10.1688C69.6333 10.6274 69.3077 11.3154 69.3077 12.034C69.3077 13.303 70.3622 14.4038 71.6494 14.4038Z" fill="#BBCDDB"/>
<path d="M24.2864 21.6818C25.3565 21.6818 25.9768 20.9173 25.9768 19.9083V17.0034H25.403V19.7095C25.403 20.4587 25.1704 21.1467 24.2864 21.1467C23.4024 21.1467 23.1698 20.4587 23.1698 19.7095V17.0034H22.5959V19.9083C22.5804 20.9021 23.2163 21.6818 24.2864 21.6818Z" fill="#BBCDDB"/>
<path d="M27.3726 18.1651L30.8465 21.7732V17.0031H30.2727V20.3819L26.7988 16.7891H26.7832V21.5744H27.3726V18.1651Z" fill="#BBCDDB"/>
<path d="M32.2888 17.0034H31.715V21.5748H32.2888V17.0034Z" fill="#BBCDDB"/>
<path d="M34.7547 20.3975L33.3744 17.0034H32.7386L34.7547 21.8194L36.7708 17.0034H36.1349L34.7547 20.3975Z" fill="#BBCDDB"/>
<path d="M39.7174 21.0549H37.8098V19.3273H39.6709V18.8075H37.8098V17.5232H39.7174V17.0034H37.2205V21.5748H39.7174V21.0549Z" fill="#BBCDDB"/>
<path d="M43.0362 18.3183C43.0517 17.8749 42.8191 17.4621 42.4314 17.2175C42.0592 17.0187 41.6249 17.0034 41.2062 17.0034H40.5083V21.5748H41.0821V19.6484H41.3148L42.6795 21.59H43.3774L41.9196 19.6025C42.571 19.5108 43.0517 18.9604 43.0362 18.3183ZM41.2527 19.1744H41.0666V17.5232H41.2217C41.7955 17.5232 42.4779 17.6303 42.4779 18.3488C42.4779 19.0674 41.8421 19.1744 41.2527 19.1744Z" fill="#BBCDDB"/>
<path d="M45.1299 21.1467C44.6491 21.162 44.2459 20.7951 44.2304 20.3211C44.2304 20.3058 44.2304 20.2906 44.2304 20.2753L43.641 20.3976C43.7186 21.1161 44.3389 21.6665 45.0678 21.6818C45.8588 21.7124 46.5256 21.1009 46.5566 20.3211C46.5566 20.2906 46.5566 20.2753 46.5566 20.2447C46.5566 19.4803 46.0604 19.1286 45.409 18.8687L45.0833 18.7464C44.7887 18.6394 44.432 18.4559 44.432 18.089C44.432 17.6915 44.8352 17.4468 45.2074 17.4468C45.5176 17.4316 45.8122 17.5997 45.9518 17.8749L46.4171 17.5997C46.1844 17.1716 45.7192 16.8965 45.2229 16.9117C44.525 16.9117 43.8582 17.3551 43.8582 18.089C43.8582 18.7311 44.3389 19.0216 44.8662 19.2509L45.1919 19.3885C45.5951 19.5567 45.9983 19.7707 45.9983 20.26C46.0138 20.7339 45.6416 21.1314 45.1609 21.1467C45.1454 21.1467 45.1454 21.1467 45.1299 21.1467Z" fill="#BBCDDB"/>
<path d="M47.8129 17.0034H47.239V21.5748H47.8129V17.0034Z" fill="#BBCDDB"/>
<path d="M49.9996 21.5748V17.5232H51.1007V17.0034H48.3246V17.5232H49.4257V21.5748H49.9996Z" fill="#BBCDDB"/>
<path d="M51.7985 17.0034H51.1472L52.6515 19.5872V21.5748H53.2253V19.5872L54.7451 17.0034H54.0783L52.9462 18.9604L51.7985 17.0034Z" fill="#BBCDDB"/>
<path d="M59.1496 21.6809C60.4678 21.6962 61.5689 20.6566 61.5844 19.357C61.5844 19.3418 61.5844 19.3265 61.5844 19.2959C61.5534 17.9658 60.4368 16.9261 59.0875 16.9567C57.8003 16.9873 56.7458 18.0116 56.7147 19.2959C56.6992 20.5954 57.7693 21.6657 59.0875 21.6809C59.1186 21.6809 59.1341 21.6809 59.1496 21.6809ZM59.1496 17.446C60.1576 17.4307 60.9951 18.241 60.9951 19.2347C60.9951 19.25 60.9951 19.2806 60.9951 19.2959C60.9951 20.305 60.1731 21.1153 59.1496 21.1153C58.126 21.1153 57.3041 20.305 57.3041 19.2959C57.273 18.3021 58.0795 17.4765 59.0875 17.446C59.1031 17.446 59.1341 17.446 59.1496 17.446Z" fill="#BBCDDB"/>
<path d="M62.7786 19.3426H64.3915V18.8075H62.7786V17.5232H64.438V17.0034H62.2048V21.5748H62.7786V19.3426Z" fill="#BBCDDB"/>
<path d="M68.5478 18.8687L68.2221 18.7464C67.9274 18.6394 67.5707 18.4559 67.5707 18.089C67.5707 17.6915 67.9739 17.4468 68.3461 17.4468C68.6563 17.4316 68.951 17.5997 69.0906 17.8749L69.5558 17.5997C69.3232 17.1716 68.8579 16.8965 68.3617 16.9117C67.6638 16.9117 66.9969 17.3551 66.9969 18.089C66.9969 18.7311 67.4777 19.0216 68.005 19.2509L68.3306 19.3885C68.7339 19.5567 69.1371 19.7707 69.1371 20.26C69.1681 20.7339 68.7959 21.1467 68.3151 21.1773C67.8344 21.2079 67.4156 20.841 67.3846 20.367C67.3846 20.3517 67.3846 20.3211 67.3846 20.3058L66.7953 20.4282C66.8728 21.1467 67.4932 21.6971 68.2221 21.7124C69.013 21.743 69.6799 21.1314 69.7109 20.3517C69.7109 20.3211 69.7109 20.3058 69.7109 20.2753C69.6954 19.4955 69.1991 19.1286 68.5478 18.8687Z" fill="#BBCDDB"/>
<path d="M72.5955 16.9116C71.2462 16.8963 70.1451 17.9665 70.1296 19.2814C70.1296 19.2966 70.1296 19.2966 70.1296 19.3119C70.1296 20.6115 71.2152 21.6817 72.5334 21.6664C72.5334 21.6664 72.5334 21.6664 72.549 21.6664C72.9832 21.6664 73.4019 21.5594 73.7741 21.3453V20.6726C72.9832 21.3148 71.8045 21.2077 71.1532 20.4127C70.5018 19.633 70.6104 18.4711 71.4168 17.8289C71.7425 17.569 72.1457 17.4161 72.549 17.4161C72.9987 17.4161 73.4329 17.569 73.7741 17.8595V17.1868C73.4174 17.0033 73.0142 16.8963 72.5955 16.9116Z" fill="#BBCDDB"/>
<path d="M75.0769 17.0034H74.503V21.5748H75.0769V17.0034Z" fill="#BBCDDB"/>
<path d="M76.0073 21.5748H78.5042V21.0549H76.5812V19.3273H78.4422V18.8075H76.5812V17.5232H78.5042V17.0034H76.0073V21.5748Z" fill="#BBCDDB"/>
<path d="M82.707 20.3819L79.2176 16.7891V21.5744H79.7914V18.1651L83.2808 21.7732V17.0031H82.707V20.3819Z" fill="#BBCDDB"/>
<path d="M86.3826 16.9116C85.0333 16.8963 83.9322 17.9665 83.9167 19.2814C83.9167 19.2966 83.9167 19.2966 83.9167 19.3119C83.9167 20.6268 85.0023 21.6817 86.3206 21.6664C86.7548 21.6664 87.1735 21.5594 87.5457 21.3453V20.6726C86.7548 21.3453 85.5761 21.2536 84.8938 20.4739C84.2114 19.6942 84.3044 18.5322 85.0954 17.8595C85.7933 17.2632 86.8478 17.2632 87.5457 17.8595V17.1868C87.189 17.0033 86.7858 16.8963 86.3826 16.9116Z" fill="#BBCDDB"/>
<path d="M90.787 17.5232V17.0034H88.2901V21.5748H90.787V21.0549H88.8795V19.3273H90.7405V18.8075H88.8795V17.5232H90.787Z" fill="#BBCDDB"/>
<path d="M22.1772 28.8516H22.7976L23.3249 27.705H25.4495L25.9768 28.8516H26.5972L24.395 24.0815L22.1772 28.8516ZM23.573 27.1852L24.395 25.3352L25.2169 27.1852H23.573Z" fill="#BBCDDB"/>
<path d="M30.4898 27.6593L27.0004 24.0664V28.8671H27.5742V25.4577L31.0636 29.0505V24.2805H30.4898V27.6593Z" fill="#BBCDDB"/>
<path d="M32.8626 24.2808H31.9011V28.8521H32.8471C34.3049 28.8521 35.468 28.1029 35.468 26.5435C35.468 25.0299 34.2739 24.2808 32.8626 24.2808ZM32.6765 28.3323H32.4749V24.8006H32.6765C33.8551 24.8006 34.8787 25.2287 34.8787 26.5588C34.8787 27.9042 33.8551 28.3323 32.6765 28.3323Z" fill="#BBCDDB"/>
<path d="M37.5152 24.8006H38.6163V28.8674H39.1901V24.8006H40.2912V24.2808H37.5152V24.8006Z" fill="#BBCDDB"/>
<path d="M40.803 28.8674H43.2999V28.3323H41.3923V26.6047H43.2533V26.0848H41.3923V24.8006H43.2999V24.2808H40.803V28.8674Z" fill="#BBCDDB"/>
<path d="M46.293 24.1884C44.9438 24.1732 43.8427 25.2434 43.8272 26.5735C43.8272 26.5888 43.8272 26.5888 43.8272 26.6041C43.8272 27.9189 44.9128 28.9738 46.231 28.9585C46.231 28.9585 46.231 28.9585 46.2465 28.9585C46.6807 28.9585 47.0995 28.8515 47.4717 28.6375V27.9648C46.6807 28.6375 45.5021 28.5457 44.8197 27.7813C44.1373 27.0016 44.2304 25.8396 45.0058 25.1669C45.7037 24.5707 46.7583 24.5707 47.4562 25.1669V24.4942C47.0995 24.2802 46.6962 24.1732 46.293 24.1884Z" fill="#BBCDDB"/>
<path d="M50.9456 26.1307H48.7279V24.2808H48.154V28.8674H48.7279V26.6658H50.9456V28.8674H51.5194V24.2808H50.9456V26.1307Z" fill="#BBCDDB"/>
<path d="M55.8463 27.6593L52.3569 24.0664V28.8671H52.9462V25.4577L56.4201 29.0505V24.2805H55.8463V27.6593Z" fill="#BBCDDB"/>
<path d="M59.4132 24.189C58.0795 24.189 56.9939 25.2592 56.9784 26.574C57.0094 27.9041 58.126 28.9438 59.4753 28.9132C60.7625 28.8826 61.8171 27.8583 61.8481 26.574C61.8326 25.2592 60.747 24.189 59.4132 24.189ZM59.4132 28.424C58.3897 28.424 57.5522 27.5984 57.5677 26.574C57.5677 26.574 57.5677 26.574 57.5677 26.5587C57.5677 25.5497 58.3897 24.7394 59.4132 24.7394C60.4368 24.7394 61.2588 25.5497 61.2588 26.5587C61.2743 27.5831 60.4523 28.4087 59.4132 28.424C59.4288 28.424 59.4132 28.424 59.4132 28.424Z" fill="#BBCDDB"/>
<path d="M63.0423 24.2808H62.4684V28.8674H64.4535V28.3323H63.0423V24.2808Z" fill="#BBCDDB"/>
<path d="M66.9969 24.189C65.6632 24.189 64.5776 25.2592 64.5621 26.574C64.5621 27.9041 65.6477 28.9743 66.9969 28.9743C68.3307 28.9743 69.4318 27.9041 69.4318 26.574C69.4318 25.2592 68.3462 24.189 66.9969 24.189ZM66.9969 28.424C65.9734 28.424 65.1359 27.5984 65.1514 26.574C65.1514 26.574 65.1514 26.574 65.1514 26.5587C65.1514 25.5497 65.9734 24.7394 66.9969 24.7394C68.0205 24.7394 68.8579 25.565 68.8579 26.574C68.8734 27.5831 68.036 28.4087 66.9969 28.424C67.0124 28.424 67.0124 28.424 66.9969 28.424Z" fill="#BBCDDB"/>
<path d="M72.4404 27.0784H73.6346C73.6036 27.8276 72.8281 28.4391 72.1148 28.4391C71.1067 28.4391 70.3158 27.5371 70.3158 26.5739C70.2848 25.5801 71.0757 24.7545 72.0992 24.7239C72.7041 24.7087 73.2779 24.9838 73.6346 25.4731L74.0378 25.0909C73.2004 24.0665 71.6805 23.8983 70.6414 24.7239C70.0676 25.1826 69.742 25.8706 69.742 26.5892C69.742 27.8581 70.7965 28.9589 72.0837 28.9589C73.3865 28.9589 74.2859 27.9957 74.2859 26.7421V26.5586H72.4404V27.0784Z" fill="#BBCDDB"/>
<path d="M76.24 26.2377L75.1079 24.2808H74.441L75.9608 26.8646V28.8521H76.5347V26.8646L78.039 24.2808H77.3876L76.24 26.2377Z" fill="#BBCDDB"/>
</svg>
