<svg width="180" height="56" viewBox="0 0 180 56" fill="none" xmlns="http://www.w3.org/2000/svg">
<path d="M26.0767 10.709H10.1614C10.2532 11.0107 10.3756 11.3124 10.5287 11.6142H25.7401C25.9237 11.3426 26.0461 11.0409 26.0767 10.709Z" fill="#BBCDDB"/>
<path d="M25.4035 12.1582H10.8042C10.9266 12.4298 11.1103 12.7013 11.3245 12.9427H24.7913C25.0362 12.7013 25.2198 12.4599 25.4035 12.1582Z" fill="#BBCDDB"/>
<path d="M24.3016 13.5781H11.8447C11.8447 13.5781 12.1508 13.91 12.4262 14.1816H23.6588C23.9037 14.0005 24.1179 13.8195 24.3016 13.5781Z" fill="#BBCDDB"/>
<path d="M22.9548 14.8457H13.2219C13.2219 14.8457 13.2219 14.906 13.9259 15.2983H22.1896C22.4651 15.1776 22.7099 15.0267 22.9548 14.8457Z" fill="#BBCDDB"/>
<path d="M21.3634 16.0215H15.0278C15.0278 16.0215 16.0685 16.6249 18.0579 16.6249C19.1903 16.6249 20.3227 16.4137 21.3634 16.0215Z" fill="#BBCDDB"/>
<path d="M20.996 17.3516C20.3533 17.4723 19.7105 17.7438 19.1596 18.1059C18.6699 18.4981 18.3027 18.9809 18.0272 19.524C17.6905 18.9507 17.2926 18.4076 16.8029 17.955C16.0684 17.4119 14.8747 17.3516 14.8747 17.3516H2.50973L0 21.093H11.4774C12.1202 21.1835 12.7323 21.3947 13.2832 21.7568C13.7729 22.0283 14.2014 22.4507 14.5075 22.9335C14.6299 23.0844 14.5381 23.024 14.6605 23.2352C14.7523 23.3559 14.8747 23.4766 15.0278 23.537H20.9042C20.9042 23.537 20.8736 23.5671 21.0266 23.5068C21.1797 23.4163 21.3327 23.2956 21.4245 23.1447C21.5163 22.9939 21.6081 22.843 21.6388 22.6921C21.9448 22.2999 22.3121 21.968 22.7406 21.7266C23.3221 21.3344 24.0261 21.093 24.73 21.0025H35.9932L33.5141 17.3817L20.996 17.3516Z" fill="#BBCDDB"/>
<path d="M5.99878 22.4473V40.913C5.99878 40.913 6.05999 42.5423 7.46789 44.7449C8.29426 46.0725 9.48791 47.1889 10.8652 47.9734L12.4567 45.5294C11.4773 44.8958 10.651 44.1113 10.0082 43.1457C9.4267 42.3009 9.05942 41.275 8.99821 40.2492V22.4473H5.99878Z" fill="#BBCDDB"/>
<path d="M28.8313 44.5958C29.9637 42.8458 30.2086 40.1906 30.2086 40.1906V22.3887H27.2398V40.1906C27.2398 40.1906 26.9949 41.9707 26.1685 43.238C25.5258 44.1432 24.7606 44.9277 23.873 45.5915L25.4034 48.0053C25.4034 48.0053 27.6989 46.3458 28.8313 44.5958Z" fill="#BBCDDB"/>
<path d="M9.97778 49.482C8.44746 48.5768 7.13139 47.3096 6.18259 45.8311C5.17257 44.3828 4.52984 42.6931 4.37681 40.913V22.4473H1.31616V40.9733C1.56101 43.0552 2.23436 45.0466 3.33619 46.8268C5.14197 49.8139 8.44746 51.8958 8.44746 51.8958L9.97778 49.482Z" fill="#BBCDDB"/>
<path d="M21.3939 44.0808L21.3327 43.5679V24.4384H18.8536V44.3222C18.8536 44.5032 18.8842 44.6843 18.9454 44.8351C19.0066 45.0765 19.1597 45.4084 19.1597 45.4084L23.2303 52.0464H12.8853L16.8948 45.4386C16.9866 45.2575 17.0784 45.0765 17.1396 44.8955C17.1702 44.7144 17.2008 44.5032 17.2315 44.3222V24.4082H14.8441V43.9903C14.8441 43.9903 14.7829 44.0506 14.7523 44.3524C14.7217 44.5334 14.6605 44.7144 14.5075 44.8351L7.89648 55.6671H28.2192L21.5776 44.6239L21.3939 44.0808Z" fill="#BBCDDB"/>
<path d="M31.8308 40.5828C31.8308 40.5828 31.8002 42.9363 30.0556 45.6217C28.311 48.307 26.291 49.4536 26.291 49.4536L27.7907 51.9277C27.7907 51.9277 30.8208 50.057 32.749 47.0398C34.6772 44.0225 34.8608 40.5828 34.8608 40.5828V22.3887H31.8308V40.5828Z" fill="#BBCDDB"/>
<path d="M26.138 10.1983C26.138 10.1983 27.454 5.15946 23.0161 1.93098C23.0161 1.93098 21.1797 0.271484 17.966 0.271484C16.1909 0.271484 14.4769 0.844766 13.1302 1.96116C9.02897 4.70687 10.0696 10.1983 10.0696 10.1983H26.138Z" fill="#BBCDDB"/>
<path d="M44.1344 7.93487C44.6241 7.75383 44.9914 7.63314 45.2056 7.54262V12.8228H46.3687V12.2496H52.49V12.8228H53.653V7.48228C53.8366 7.5728 54.0203 7.66331 54.2039 7.69349C54.3876 7.75383 54.5712 7.81418 54.7548 7.87452L55.3058 6.75813C53.5 6.39606 52.1227 5.79261 51.2045 4.88743H55.2139V3.89173H49.9496V2.86586C51.3575 2.77534 52.7654 2.56413 54.1733 2.32275L53.6224 1.29688C51.9084 1.68912 49.4293 1.87016 46.1238 1.87016C45.4199 1.87016 44.8384 1.87016 44.3793 1.83998L44.7771 2.98655C45.6035 2.98655 46.9502 2.95637 48.8172 2.9262V3.89173H43.6753V4.9176H47.5317C46.3993 5.85295 45.022 6.51675 43.5835 6.84865L44.1344 7.93487ZM52.4594 11.2539H46.3381V10.1676H52.4594V11.2539ZM49.919 4.94777C50.7148 5.97364 51.786 6.75813 53.0103 7.21072H49.919V4.94777ZM52.4594 8.26677V9.20212H46.3381V8.2366L52.4594 8.26677ZM48.7254 4.94777V7.21072H45.9096C47.042 6.72796 48.0214 5.94347 48.7254 4.94777Z" fill="#BBCDDB"/>
<path d="M62.1923 5.97361C61.6108 5.52102 60.9986 5.12877 60.3559 4.79688L59.6213 5.73223C60.2335 6.12447 60.815 6.57706 61.3659 7.05983L62.1923 5.97361Z" fill="#BBCDDB"/>
<path d="M62.1005 9.0223L61.0293 8.38867C60.7538 9.56541 60.2641 10.6818 59.5295 11.6775L60.5396 12.6732C61.2435 11.5266 61.7944 10.2896 62.1005 9.0223Z" fill="#BBCDDB"/>
<path d="M62.5595 2.9887V3.6525H64.2122V4.88958H62.3146V5.91545H64.304C63.9368 6.66977 63.0798 7.36374 61.6719 7.99737L62.3758 9.02324C62.7737 8.78186 63.141 8.54048 63.5083 8.23875V10.9845C63.5083 11.5577 63.6001 11.9198 63.8143 12.131C64.151 12.3724 64.5489 12.4629 64.9468 12.4328H68.9868C69.6296 12.4328 70.0581 12.3121 70.2723 12.1009C70.4866 11.8896 70.6702 11.1957 70.8232 10.0491L69.6296 9.6267C69.599 10.0793 69.5377 10.5319 69.4459 10.9845C69.3847 11.2258 69.1705 11.3767 68.8338 11.3767H65.1304C64.9162 11.4069 64.7325 11.256 64.7019 11.0448C64.7019 11.0146 64.7019 10.9845 64.7019 10.9543V10.1698H68.7114V7.6353C69.2929 8.14823 69.9356 8.60082 70.609 8.9629L71.1599 7.87668C69.8132 7.21288 68.9868 6.54908 68.6502 5.88528H71.0375V4.85941H68.8032V3.59215H70.8538V2.62663H68.8032V1.35938H67.6708V2.62663H65.4059V1.35938H64.2734V2.62663H62.6207V2.77749C62.131 2.41542 61.5188 1.993 60.8149 1.57058L59.9885 2.47577C60.6619 2.89818 61.274 3.38095 61.8555 3.92405L62.5595 2.9887ZM65.3753 3.68267H67.6401V4.88958H65.3753V3.68267ZM65.6507 5.91545H67.3341C67.5483 6.3077 67.7932 6.66977 68.0992 7.03184H64.8856C65.1916 6.69994 65.4365 6.3077 65.6507 5.91545ZM64.7019 7.9672H67.5789V9.1741H64.7019V7.9672Z" fill="#BBCDDB"/>
<path d="M76.1183 10.5308C76.7917 9.68596 77.3732 8.78078 77.8017 7.78508V12.8239L78.9341 12.7636V7.06094C79.1484 7.36266 79.3626 7.63422 79.6075 7.8756C79.8523 8.14715 80.0972 8.47905 80.342 8.81095L81.046 7.75491C80.5869 7.24197 79.8829 6.57817 78.9341 5.70317V5.58248H80.8317V4.52643H78.9647V2.83676C79.6075 2.71607 80.2196 2.53503 80.8623 2.32382L80.4338 1.32812C78.9035 1.87123 77.2814 2.17296 75.6286 2.20313L75.8735 3.229C76.5162 3.19883 77.159 3.13849 77.8017 3.0178V4.5566H75.4756V5.61265H77.7405C77.1896 7.00059 76.3938 8.29802 75.3838 9.41441L76.1183 10.5308Z" fill="#BBCDDB"/>
<path d="M80.7092 10.075L84.8717 9.44135V12.8207H86.0347V9.29048L87.1672 9.10945V7.99306L86.0347 8.1741V1.23438H84.8717V8.29479L80.7092 8.92841V10.075Z" fill="#BBCDDB"/>
<path d="M84.4126 3.64926C83.6781 3.10615 82.9129 2.59322 82.1171 2.14062L81.3826 2.95529C82.1783 3.43805 82.9129 3.98116 83.6168 4.55444L84.4126 3.64926Z" fill="#BBCDDB"/>
<path d="M84.1677 6.63754C83.4332 6.06426 82.668 5.5815 81.8722 5.12891L81.1377 5.94357C81.9335 6.42633 82.6986 6.96944 83.4332 7.5729L84.1677 6.63754Z" fill="#BBCDDB"/>
<path d="M91.3909 7.7215L91.6969 9.0491C92.0948 8.95859 92.6457 8.80772 93.3497 8.62669V11.131C93.3803 11.3121 93.2579 11.5233 93.0436 11.5534C93.013 11.5534 92.9518 11.5534 92.9212 11.5534L91.85 11.5233L92.1254 12.7603H93.1048C93.717 12.7603 94.1148 12.6698 94.2985 12.4586C94.4821 12.2474 94.5433 11.8853 94.5433 11.3121V8.29479C95.033 8.14392 95.5227 7.96289 96.0124 7.7215V6.5146C95.5533 6.72581 95.0636 6.90684 94.5433 7.05771V4.88527H96.0124V4.10078H98.7058V5.76028H96.2573V6.90684H101.216C100.879 7.90254 100.267 8.80772 99.4097 9.44135C98.7364 8.74738 98.1549 7.96289 97.6958 7.08788L96.6552 7.5103C97.1449 8.47582 97.7876 9.35083 98.5222 10.1353C97.4509 10.8896 96.2267 11.4026 94.9412 11.7043L95.6146 12.8207C96.8082 12.5793 98.0631 11.9457 99.3791 10.95C100.267 11.7646 101.307 12.3983 102.44 12.7603L103.083 11.6138C102.042 11.3422 101.093 10.8595 100.267 10.1655C100.818 9.68273 101.277 9.10945 101.613 8.47582C101.981 7.93271 102.256 7.35943 102.44 6.75598V5.73011H99.9301V4.07061H102.868V2.98439H99.9301V1.23438H98.7058V2.98439H96.0124V3.76888H94.5433V1.23438H93.3191V3.76888H91.4827V4.88527H93.3191V7.35943C92.7069 7.5103 92.0642 7.63099 91.3909 7.7215Z" fill="#BBCDDB"/>
<path d="M107.306 11.6149L108.255 12.7916C111.04 10.9812 112.723 8.59759 113.274 5.64067H113.458C114.284 8.92949 115.815 11.3131 118.08 12.7614L119.028 11.6149C117.865 10.8907 116.855 9.92519 116.121 8.77863C115.478 7.8131 115.019 6.75706 114.774 5.64067H118.753V4.34324H113.489C113.55 3.70961 113.58 2.68374 113.58 1.26562H112.264C112.295 2.2915 112.234 3.31737 112.111 4.34324H107.612V5.64067H111.928C111.683 6.87775 111.163 8.02431 110.367 8.98984C109.54 10.0761 108.5 10.9511 107.306 11.6149Z" fill="#BBCDDB"/>
<path d="M128.7 11.4082C128.731 11.5893 128.608 11.7401 128.425 11.7703C128.394 11.7703 128.363 11.7703 128.333 11.7703L126.619 11.71L126.894 12.7057H128.731C129.496 12.7057 129.863 12.2531 129.863 11.3781V10.8651H135.036V9.86943H129.863C130.781 9.59787 131.699 9.2358 132.556 8.81338V7.9082H125.609V8.81338H130.842C130.139 9.02459 129.404 9.20563 128.669 9.35649V9.8996H123.283V10.8953H128.7V11.4082Z" fill="#BBCDDB"/>
<path d="M124.66 7.39391H133.658V9.20428H134.791V6.42839H134.117L134.27 1.57058H131.179V2.53611H133.169V3.19991H131.332V4.04474H133.138L133.107 4.73872H131.332V5.58355H133.077V6.39821H125.272L125.241 5.58355H127.108V4.73872H125.211V4.04474H127.108V3.23008H125.18L125.15 2.59646C125.915 2.56628 126.649 2.47576 127.353 2.26456L126.802 1.35938C125.915 1.57058 124.966 1.69127 124.048 1.72145L124.17 6.42839H123.558V9.20428H124.66V7.39391Z" fill="#BBCDDB"/>
<path d="M127.262 2.89387L127.904 3.70854C128.425 3.49733 128.884 3.25595 129.374 2.95422C129.465 2.95422 129.68 3.1956 130.016 3.64819L130.781 3.10508C130.506 2.83353 130.292 2.59215 130.108 2.44128C130.384 2.26025 130.628 2.04904 130.843 1.77748L130.231 1.23438C130.016 1.50593 129.771 1.71714 129.465 1.89817C129.129 1.65679 128.823 1.41541 128.486 1.23438L127.813 1.80766C128.119 1.98869 128.394 2.16973 128.67 2.38094C128.211 2.62232 127.751 2.80336 127.262 2.89387Z" fill="#BBCDDB"/>
<path d="M130.353 3.68359C130.108 3.98532 129.802 4.2267 129.496 4.43791C129.312 4.28705 129.129 4.16636 128.976 4.04567C128.853 3.98532 128.7 3.86463 128.547 3.77411L127.904 4.31722C128.302 4.58877 128.578 4.76981 128.731 4.8905C128.333 5.10171 127.874 5.25257 127.445 5.34309L127.996 6.15776C128.517 6.00689 129.006 5.76551 129.465 5.46378C129.527 5.46378 129.741 5.70516 130.139 6.18793L130.934 5.58447C130.69 5.34309 130.475 5.13188 130.23 4.92067C130.537 4.70947 130.812 4.43791 131.087 4.19653L130.353 3.68359Z" fill="#BBCDDB"/>
<path d="M47.1951 26.6115V18.6157H49.3682V17.5898H43.8896V18.6157H46.0627V26.6115H47.1951Z" fill="#BBCDDB"/>
<path d="M51.4494 17.5898H50.2864V26.6115H51.4494V22.2968H55.7955V26.6115H56.928V17.5898H55.7955V21.2407H51.4494V17.5898Z" fill="#BBCDDB"/>
<path d="M63.6308 25.5856H59.8662V22.1761H63.5083V21.1502H59.8662V18.6157H63.6308V17.5898H58.7031V26.6115H63.6308V25.5856Z" fill="#BBCDDB"/>
<path d="M69.844 17.5898H68.6809V26.6115H69.844V22.2968H74.1901V26.6115H75.3225V17.5898H74.1901V21.2407H69.844V17.5898Z" fill="#BBCDDB"/>
<path d="M81.2908 17.4082C78.6587 17.4082 76.4856 19.5203 76.4856 22.1151C76.5468 24.7402 78.7505 26.7919 81.4132 26.7316C83.9536 26.6712 86.0348 24.6497 86.096 22.1151C86.0348 19.5203 83.923 17.4082 81.2908 17.4082ZM81.2908 25.766C79.2708 25.766 77.618 24.1367 77.618 22.1453V22.1151C77.618 20.1237 79.2402 18.5246 81.2602 18.5246C83.2802 18.5246 84.9024 20.1237 84.9024 22.1151C84.933 24.1065 83.3108 25.7359 81.2908 25.766Z" fill="#BBCDDB"/>
<path d="M88.3303 19.8855L95.1861 27.0062V17.5923H94.0537V24.2605L87.1672 17.1699V26.614H88.3303V19.8855Z" fill="#BBCDDB"/>
<path d="M96.3184 22.1483C96.3184 24.6526 98.3996 26.825 100.94 26.825C103.48 26.825 105.286 24.9242 105.286 22.45V22.0879H101.644V23.1138H104.001C103.939 24.5922 102.44 25.7992 101.001 25.7992C99.0117 25.7992 97.4508 23.9888 97.4508 22.1181C97.3896 20.1569 98.9505 18.5275 100.971 18.4672C102.164 18.437 103.297 18.9801 104.001 19.9457L104.796 19.1913C103.144 17.1698 100.144 16.8379 98.0935 18.4672C96.9611 19.3422 96.3184 20.7 96.3184 22.1483Z" fill="#BBCDDB"/>
<path d="M116.764 26.6115L112.57 21.6632L116.702 17.5898H115.203L111.316 21.5123V17.5898H110.183V26.6115H111.316V22.8399L111.775 22.4175L115.233 26.6115H116.764Z" fill="#BBCDDB"/>
<path d="M116.947 22.1141C116.947 24.7391 119.09 26.8512 121.752 26.8512C124.385 26.8512 126.558 24.7391 126.558 22.1141C126.558 19.489 124.415 17.377 121.752 17.377C119.09 17.377 116.947 19.489 116.947 22.1141ZM121.722 18.4632C123.711 18.433 125.364 20.0321 125.395 21.9934C125.395 22.0235 125.395 22.0839 125.395 22.1141C125.578 24.1055 124.079 25.8555 122.059 26.0365C120.039 26.2176 118.263 24.7391 118.08 22.7477C118.049 22.5365 118.049 22.2951 118.08 22.0839C118.018 20.1227 119.61 18.4632 121.599 18.433C121.661 18.4632 121.691 18.4632 121.722 18.4632Z" fill="#BBCDDB"/>
<path d="M134.515 24.2605L127.659 17.1699V26.614H128.792V19.8855L135.648 27.0062V17.5923H134.515V24.2605Z" fill="#BBCDDB"/>
<path d="M141.402 26.825C143.973 26.825 145.748 24.9242 145.748 22.45V22.0879H142.106V23.1138H144.462C144.401 24.5922 142.871 25.7992 141.463 25.7992C139.473 25.7992 137.912 23.9888 137.912 22.1181C137.851 20.1569 139.412 18.5275 141.432 18.4672C142.626 18.437 143.758 18.9801 144.462 19.9457L145.258 19.1913C143.605 17.1698 140.606 16.8379 138.555 18.4672C137.423 19.3724 136.78 20.7301 136.78 22.1483C136.78 24.6526 138.861 26.825 141.402 26.825Z" fill="#BBCDDB"/>
<path d="M47.9297 41.184C50.0415 41.184 51.2658 39.6754 51.2658 37.684V31.9512H50.1333V37.2917C50.1333 38.7702 49.6742 40.128 47.9297 40.128C46.1851 40.128 45.726 38.7702 45.726 37.2917V31.9512H44.5936V37.684C44.563 39.6452 45.8178 41.184 47.9297 41.184Z" fill="#BBCDDB"/>
<path d="M54.0205 34.2468L60.8763 41.3675V31.9537H59.7439V38.6218L52.888 31.5312H52.8574V40.9753H54.0205V34.2468Z" fill="#BBCDDB"/>
<path d="M63.7225 31.9512H62.5901V40.9728H63.7225V31.9512Z" fill="#BBCDDB"/>
<path d="M68.5892 38.6495L65.8652 31.9512H64.6104L68.5892 41.4556L72.568 31.9512H71.3132L68.5892 38.6495Z" fill="#BBCDDB"/>
<path d="M78.3832 39.9469H74.6186V36.5374H78.2914V35.5115H74.6186V32.977H78.3832V31.9512H73.4556V40.9728H78.3832V39.9469Z" fill="#BBCDDB"/>
<path d="M84.9329 34.546C84.9635 33.671 84.5044 32.8564 83.7393 32.3736C83.0047 31.9813 82.1478 31.9512 81.3214 31.9512H79.9441V40.9728H81.0765V37.171H81.5356L84.229 41.003H85.6063L82.7293 37.0805C84.0147 36.8995 84.9635 35.8133 84.9329 34.546ZM81.4132 36.2357H81.0459V32.977H81.352C82.4844 32.977 83.8311 33.1883 83.8311 34.6064C83.8311 36.0245 82.5762 36.2357 81.4132 36.2357Z" fill="#BBCDDB"/>
<path d="M89.0647 40.1305C88.1159 40.1607 87.3201 39.4365 87.2895 38.5012C87.2895 38.471 87.2895 38.4408 87.2895 38.4107L86.1265 38.6521C86.2795 40.0702 87.5038 41.1564 88.9423 41.1866C90.5032 41.2469 91.8193 40.04 91.8805 38.5012C91.8805 38.4408 91.8805 38.4107 91.8805 38.3503C91.8805 36.8417 90.9011 36.1477 89.6156 35.6348L88.9729 35.3934C88.3913 35.1822 87.6874 34.8201 87.6874 34.096C87.6874 33.3115 88.4832 32.8287 89.2177 32.8287C89.8298 32.7986 90.4114 33.1305 90.6868 33.6736L91.605 33.1305C91.1459 32.2856 90.2277 31.7425 89.2483 31.7727C87.871 31.7727 86.555 32.6477 86.555 34.096C86.555 35.3632 87.5037 35.9365 88.5444 36.3891L89.1871 36.6607C89.9829 36.9926 90.7786 37.415 90.7786 38.3805C90.8092 39.3159 90.0747 40.1003 89.1259 40.1305C89.0953 40.1305 89.0953 40.1305 89.0647 40.1305Z" fill="#BBCDDB"/>
<path d="M94.3597 31.9512H93.2273V40.9728H94.3597V31.9512Z" fill="#BBCDDB"/>
<path d="M98.6751 40.9728V32.977H100.848V31.9512H95.3696V32.977H97.5427V40.9728H98.6751Z" fill="#BBCDDB"/>
<path d="M102.225 31.9512H100.94L103.909 37.0504V40.9728H105.041V37.0504L108.041 31.9512H106.725L104.49 35.8133L102.225 31.9512Z" fill="#BBCDDB"/>
<path d="M116.733 41.184C119.335 41.2142 121.508 39.1625 121.538 36.5978C121.538 36.5676 121.538 36.5374 121.538 36.4771C121.477 33.8521 119.273 31.8003 116.611 31.8607C114.07 31.921 111.989 33.9426 111.928 36.4771C111.897 39.0418 114.009 41.1539 116.611 41.184C116.672 41.184 116.702 41.184 116.733 41.184ZM116.733 32.8262C118.722 32.796 120.375 34.3952 120.375 36.3564C120.375 36.3866 120.375 36.4469 120.375 36.4771C120.375 38.4685 118.753 40.0676 116.733 40.0676C114.713 40.0676 113.091 38.4685 113.091 36.4771C113.03 34.5159 114.621 32.8865 116.611 32.8262C116.641 32.8262 116.702 32.8262 116.733 32.8262Z" fill="#BBCDDB"/>
<path d="M123.895 36.5676H127.078V35.5115H123.895V32.977H127.17V31.9512H122.762V40.9728H123.895V36.5676Z" fill="#BBCDDB"/>
<path d="M135.281 35.6348L134.638 35.3934C134.056 35.1822 133.352 34.8201 133.352 34.096C133.352 33.3115 134.148 32.8287 134.883 32.8287C135.495 32.7986 136.076 33.1305 136.352 33.6736L137.27 33.1305C136.811 32.2856 135.893 31.7425 134.913 31.7727C133.536 31.7727 132.22 32.6477 132.22 34.096C132.22 35.3632 133.169 35.9365 134.209 36.3891L134.852 36.6607C135.648 36.9926 136.444 37.415 136.444 38.3805C136.505 39.3159 135.77 40.1305 134.821 40.1909C133.873 40.2512 133.046 39.5271 132.985 38.5917C132.985 38.5615 132.985 38.5012 132.985 38.471L131.822 38.7124C131.975 40.1305 133.199 41.2167 134.638 41.2469C136.199 41.3073 137.515 40.1003 137.576 38.5615C137.576 38.5012 137.576 38.471 137.576 38.4107C137.545 36.8719 136.566 36.1477 135.281 35.6348Z" fill="#BBCDDB"/>
<path d="M143.269 31.7743C140.606 31.7442 138.433 33.8563 138.402 36.4511C138.402 36.4813 138.402 36.4813 138.402 36.5115C138.402 39.0761 140.545 41.1882 143.146 41.1581C143.146 41.1581 143.146 41.1581 143.177 41.1581C144.034 41.1581 144.86 40.9468 145.595 40.5244V39.1968C144.034 40.4641 141.708 40.2529 140.422 38.6839C139.137 37.1451 139.351 34.852 140.943 33.5847C141.585 33.0718 142.381 32.77 143.177 32.77C144.065 32.77 144.922 33.0718 145.595 33.645V32.3174C144.891 31.9554 144.095 31.7442 143.269 31.7743Z" fill="#BBCDDB"/>
<path d="M148.166 31.9512H147.033V40.9728H148.166V31.9512Z" fill="#BBCDDB"/>
<path d="M150.002 40.9728H154.93V39.9469H151.135V36.5374H154.807V35.5115H151.135V32.977H154.93V31.9512H150.002V40.9728Z" fill="#BBCDDB"/>
<path d="M163.224 38.6218L156.338 31.5312V40.9753H157.47V34.2468L164.357 41.3675V31.9537H163.224V38.6218Z" fill="#BBCDDB"/>
<path d="M170.478 31.7743C167.815 31.7442 165.642 33.8563 165.611 36.4511C165.611 36.4813 165.611 36.4813 165.611 36.5114C165.611 39.1063 167.754 41.1882 170.355 41.158C171.212 41.158 172.039 40.9468 172.773 40.5244V39.1968C171.212 40.5244 168.886 40.3434 167.54 38.8046C166.193 37.2658 166.377 34.9726 167.937 33.645C169.315 32.4683 171.396 32.4683 172.773 33.645V32.3174C172.069 31.9554 171.274 31.7442 170.478 31.7743Z" fill="#BBCDDB"/>
<path d="M179.17 32.977V31.9512H174.242V40.9728H179.17V39.9469H175.405V36.5374H179.078V35.5115H175.405V32.977H179.17Z" fill="#BBCDDB"/>
<path d="M43.7673 55.3377H44.9916L46.0322 53.0748H50.2253L51.2659 55.3377H52.4902L48.1441 45.9238L43.7673 55.3377ZM46.5219 52.0489L48.1441 48.398L49.7662 52.0489H46.5219Z" fill="#BBCDDB"/>
<path d="M60.1723 52.9851L53.2859 45.8945V55.3688H54.4183V48.6402L61.3048 55.7308V46.317H60.1723V52.9851Z" fill="#BBCDDB"/>
<path d="M64.8551 46.3145H62.9575V55.3361H64.8245C67.7015 55.3361 69.997 53.8576 69.997 50.78C69.997 47.7929 67.6403 46.3145 64.8551 46.3145ZM64.4878 54.3102H64.09V47.3403H64.4878C66.8139 47.3403 68.834 48.1852 68.834 50.8102C68.834 53.4654 66.8139 54.3102 64.4878 54.3102Z" fill="#BBCDDB"/>
<path d="M74.0371 47.3403H76.2102V55.3663H77.3426V47.3403H79.5157V46.3145H74.0371V47.3403Z" fill="#BBCDDB"/>
<path d="M80.5256 55.3663H85.4533V54.3102H81.6887V50.9007H85.3615V49.8748H81.6887V47.3403H85.4533V46.3145H80.5256V55.3663Z" fill="#BBCDDB"/>
<path d="M91.3603 46.1356C88.6976 46.1055 86.5245 48.2176 86.4939 50.8426C86.4939 50.8728 86.4939 50.8728 86.4939 50.9029C86.4939 53.4978 88.6363 55.5797 91.2379 55.5495C91.2379 55.5495 91.2379 55.5495 91.2685 55.5495C92.1255 55.5495 92.9518 55.3383 93.6864 54.9159V53.5883C92.1255 54.9159 89.7994 54.7349 88.4527 53.2262C87.106 51.6874 87.2897 49.3943 88.82 48.0667C90.1973 46.89 92.2785 46.89 93.6558 48.0667V46.7391C92.9518 46.3167 92.1561 46.1055 91.3603 46.1356Z" fill="#BBCDDB"/>
<path d="M100.542 49.9653H96.1654V46.3145H95.033V55.3663H96.1654V51.0214H100.542V55.3663H101.675V46.3145H100.542V49.9653Z" fill="#BBCDDB"/>
<path d="M110.214 52.9851L103.327 45.8945V55.3688H104.49V48.6402L111.346 55.7308V46.317H110.214V52.9851Z" fill="#BBCDDB"/>
<path d="M117.253 46.1328C114.621 46.1328 112.479 48.2449 112.448 50.8398C112.509 53.4648 114.713 55.5165 117.376 55.4562C119.916 55.3958 121.997 53.3743 122.058 50.8398C122.028 48.2449 119.885 46.1328 117.253 46.1328ZM117.253 54.4906C115.233 54.4906 113.58 52.8613 113.611 50.8398C113.611 50.8398 113.611 50.8398 113.611 50.8096C113.611 48.8182 115.233 47.219 117.253 47.219C119.273 47.219 120.895 48.8182 120.895 50.8096C120.926 52.8312 119.304 54.4605 117.253 54.4906C117.284 54.4906 117.253 54.4906 117.253 54.4906Z" fill="#BBCDDB"/>
<path d="M124.415 46.3145H123.283V55.3663H127.2V54.3102H124.415V46.3145Z" fill="#BBCDDB"/>
<path d="M132.22 46.1328C129.588 46.1328 127.445 48.2449 127.415 50.8398C127.415 53.4648 129.557 55.5769 132.22 55.5769C134.852 55.5769 137.025 53.4648 137.025 50.8398C137.025 48.2449 134.883 46.1328 132.22 46.1328ZM132.22 54.4907C130.2 54.4907 128.547 52.8613 128.578 50.8398C128.578 50.8398 128.578 50.8398 128.578 50.8096C128.578 48.8182 130.2 47.219 132.22 47.219C134.24 47.219 135.893 48.8484 135.893 50.8398C135.923 52.8312 134.27 54.4605 132.22 54.4907C132.25 54.4907 132.25 54.4907 132.22 54.4907Z" fill="#BBCDDB"/>
<path d="M142.963 51.8384H145.319C145.258 53.3169 143.728 54.5238 142.32 54.5238C140.331 54.5238 138.77 52.7436 138.77 50.8427C138.708 48.8815 140.269 47.2521 142.289 47.1918C143.483 47.1616 144.615 47.7047 145.319 48.6703L146.115 47.9159C144.462 45.8944 141.463 45.5625 139.412 47.1918C138.28 48.097 137.637 49.4548 137.637 50.8729C137.637 53.3772 139.718 55.5496 142.259 55.5496C144.83 55.5496 146.605 53.6488 146.605 51.1746V50.8125H142.963V51.8384Z" fill="#BBCDDB"/>
<path d="M150.461 50.1766L148.227 46.3145H146.911L149.91 51.4136V55.3361H151.043V51.4136L154.012 46.3145H152.726L150.461 50.1766Z" fill="#BBCDDB"/>
</svg>
