<svg width="244" height="18" viewBox="0 0 244 18" fill="none" xmlns="http://www.w3.org/2000/svg">
<path d="M9.2379 10.5164L4.61895 1.08398H0V1.91053H1.99344V15.9619H0V16.7884H4.76481V15.9619H2.86861V4.34156L7.97377 14.8436L13.4193 3.90398V15.9619H11.5717V16.7884H18.573V15.9619H16.531V1.91053H18.573V1.08398H13.9541L9.2379 10.5164Z" fill="#BFCCD9"/>
<path d="M32.2354 5.65482C32.2354 4.48792 31.9923 3.56413 31.5547 2.83482C31.1171 2.10552 30.5337 1.57069 29.8044 1.23035C29.0751 0.890002 28.2485 0.744141 27.422 0.744141C26.5954 0.744141 25.6716 0.890002 24.8451 1.23035C24.0185 1.52207 23.2406 2.00828 22.5599 2.59172C21.8792 3.17517 21.3444 3.85586 21.0041 4.68241L24.602 7.7455L23.8727 2.5431C24.1644 2.39724 24.4561 2.20276 24.7478 2.10552C25.4772 1.81379 26.2065 1.71655 26.8872 1.76517C27.5678 1.81379 28.1513 2.10552 28.6375 2.64034C29.0751 3.17517 29.3182 4.00172 29.3182 5.11999V8.37757L22.3654 9.05826C21.1013 10.1279 20.4692 11.4893 20.4692 13.191C20.4692 14.3579 20.8582 15.2817 21.6361 16.011C22.4141 16.7403 23.3865 17.1293 24.5534 17.1293C25.4285 17.1293 26.3037 16.8862 27.1303 16.4486C27.9568 16.011 28.6861 15.3303 29.2696 14.4065V16.7403H34.2775V15.9138H32.2354V5.65482ZM29.2209 13.4341C28.832 14.0176 28.3458 14.5038 27.8109 14.8441C27.2761 15.2331 26.644 15.3789 25.9147 15.3789C25.2827 15.3789 24.7478 15.1844 24.2616 14.7469C23.7754 14.3093 23.5323 13.7258 23.5323 12.9965C23.5323 12.0727 23.7754 11.392 24.2616 10.8086C24.7478 10.2738 25.4285 9.83619 26.3523 9.59308C27.1789 9.34998 28.1513 9.20412 29.2696 9.1555V13.2882C29.2696 13.3369 29.2696 13.3855 29.2209 13.4341Z" fill="#BFCCD9"/>
<path d="M44.8768 10.5164L40.2579 1.08398H35.6389V1.91053H37.6324V15.9619H35.6389V16.7884H40.4037V15.9619H38.5075V4.34156L43.6127 14.8436L49.0582 3.90398V15.9619H47.2106V16.7884H54.212V15.9619H52.1699V1.91053H54.212V1.08398H49.593L44.8768 10.5164Z" fill="#BFCCD9"/>
<path d="M83.9189 1.91053H85.6693V1.08398H81.2448V1.91053H82.8006L79.5431 7.25879L76.4314 1.91053H78.3276V1.08398H71.2776H71.2289H66.8531L60.6783 13.774V1.91053H62.5745V1.08398H55.719V1.91053H57.7611V15.9619H55.719V16.7884H60.1435L66.3183 4.14708V15.9619H64.4221V16.7884H70.9858H71.2776H75.2645V15.9619H73.66L77.501 9.3981L81.342 15.9619H79.3972V16.7884H85.1344L80.0779 8.13397L83.9189 1.91053ZM70.9858 15.9619H69.2355V1.91053H71.2289H71.2776H73.1252L76.9662 8.52293L72.5903 15.9619H71.2776H70.9858Z" fill="#BFCCD9"/>
<path d="M87.7601 1.91053H89.8508C89.8508 2.49398 89.8508 3.27191 89.8508 4.24432C89.8508 5.21673 89.8508 6.28638 89.8022 7.45328C89.7536 8.62017 89.6563 9.73844 89.5591 10.8567C89.4618 11.6833 89.316 12.4126 89.1215 13.0933L85.6694 13.7253L87.8087 17.3719C88.2463 16.837 88.6839 16.205 89.0729 15.5243C89.4618 14.8436 89.7049 14.2602 89.8508 13.7739C90.1425 12.9474 90.337 11.975 90.4829 10.9053C90.6287 9.78706 90.726 8.66879 90.7746 7.5019C90.8232 6.335 90.8232 5.26535 90.8232 4.29294C90.8232 3.32053 90.8232 2.5426 90.8232 1.95915H94.956V16.0105H92.6222V16.837H99.9153V16.0105H97.7759V1.91053H99.818V1.08398H87.7601V1.91053Z" fill="#BFCCD9"/>
<path d="M113.577 5.65482C113.577 4.48792 113.334 3.56413 112.897 2.83482C112.459 2.10552 111.876 1.57069 111.146 1.23035C110.417 0.890002 109.591 0.744141 108.764 0.744141C107.937 0.744141 107.014 0.890002 106.187 1.23035C105.361 1.52207 104.583 2.00828 103.902 2.59172C103.221 3.17517 102.686 3.85586 102.346 4.68241L105.944 7.7455L105.215 2.5431C105.506 2.39724 105.798 2.20276 106.09 2.10552C106.819 1.81379 107.549 1.71655 108.229 1.76517C108.91 1.81379 109.493 2.10552 109.98 2.64034C110.466 3.17517 110.66 4.00172 110.66 5.11999V8.37757L103.707 9.05826C102.443 10.1279 101.811 11.4893 101.811 13.191C101.811 14.3579 102.2 15.2817 102.978 16.011C103.756 16.7403 104.729 17.1293 105.895 17.1293C106.771 17.1293 107.646 16.8862 108.472 16.4486C109.299 16.011 110.028 15.3303 110.612 14.4065V16.7403H115.62V15.9138H113.577V5.65482ZM110.514 13.4341C110.125 14.0176 109.639 14.5038 109.104 14.8441C108.57 15.2331 107.937 15.3789 107.208 15.3789C106.576 15.3789 106.041 15.1844 105.555 14.7469C105.069 14.3093 104.826 13.7258 104.826 12.9965C104.826 12.0727 105.069 11.392 105.555 10.8086C106.041 10.2738 106.722 9.83619 107.646 9.59308C108.472 9.34998 109.445 9.20412 110.563 9.1555V13.2882C110.563 13.3369 110.563 13.3855 110.514 13.4341Z" fill="#BFCCD9"/>
<path d="M117.176 1.91053H119.218V15.9619H117.176V16.7884H124.031V15.9619H122.183V1.91053H127.629V15.9619H125.733V16.7884H132.637V15.9619H130.595V1.91053H132.637V1.08398H117.176V1.91053Z" fill="#BFCCD9"/>
<path d="M139.201 13.774V1.91053H141.097V1.08398H134.241V1.91053H136.284V15.9619H134.241V16.7884H138.666L144.841 4.14708V15.9619H142.945V16.7884H149.849V15.9619H147.807V1.91053H149.849V1.08398H145.376L139.201 13.774Z" fill="#BFCCD9"/>
<path d="M160.302 1.91053H162.15V8.37707H156.364V1.91053H158.26V1.08398H151.405V1.91053H153.447V15.9619H151.405V16.7884H158.26V15.9619H156.364V9.20362H162.15V15.9619H160.302V16.7884H167.158V15.9619H165.116V1.91053H167.158V1.08398H160.302V1.91053Z" fill="#BFCCD9"/>
<path d="M180.917 5.65482C180.917 4.48792 180.674 3.56413 180.236 2.83482C179.799 2.10552 179.215 1.57069 178.486 1.23035C177.757 0.890002 176.93 0.744141 176.104 0.744141C175.277 0.744141 174.353 0.890002 173.527 1.23035C172.7 1.52207 171.922 2.00828 171.242 2.59172C170.561 3.17517 170.026 3.85586 169.686 4.68241L173.284 7.7455L172.554 2.5431C172.846 2.39724 173.138 2.20276 173.429 2.10552C174.159 1.81379 174.888 1.71655 175.569 1.76517C176.249 1.81379 176.833 2.10552 177.319 2.64034C177.805 3.17517 178 4.00172 178 5.11999V8.37757L171.047 9.05826C169.783 10.1279 169.151 11.4893 169.151 13.191C169.151 14.3579 169.54 15.2817 170.318 16.011C171.096 16.7403 172.068 17.1293 173.235 17.1293C174.11 17.1293 174.985 16.8862 175.812 16.4486C176.638 16.011 177.368 15.3303 177.951 14.4065V16.7403H182.959V15.9138H180.917V5.65482ZM177.854 13.4341C177.465 14.0176 176.979 14.5038 176.444 14.8441C175.909 15.2331 175.277 15.3789 174.548 15.3789C173.916 15.3789 173.381 15.1844 172.895 14.7469C172.408 14.3093 172.165 13.7258 172.165 12.9965C172.165 12.0727 172.408 11.392 172.895 10.8086C173.381 10.2738 174.062 9.83619 174.985 9.59308C175.812 9.34998 176.784 9.20412 177.903 9.1555V13.2882C177.951 13.3369 177.903 13.3855 177.854 13.4341Z" fill="#BFCCD9"/>
<path d="M183.348 6.23776L186.46 1.91053H188.453V15.9619H186.411V16.7884H193.413V15.9619H191.371V1.91053H195.552V1.08398H183.348V6.23776Z" fill="#BFCCD9"/>
<path d="M208.047 5.65482C208.047 4.48792 207.804 3.56413 207.367 2.83482C206.929 2.10552 206.346 1.57069 205.616 1.23035C204.887 0.890002 204.061 0.744141 203.234 0.744141C202.407 0.744141 201.484 0.890002 200.657 1.23035C199.831 1.52207 199.053 2.00828 198.372 2.59172C197.691 3.17517 197.156 3.85586 196.816 4.68241L200.414 7.7455L199.685 2.5431C199.976 2.39724 200.268 2.20276 200.56 2.10552C201.289 1.81379 202.018 1.71655 202.699 1.76517C203.38 1.81379 203.963 2.10552 204.449 2.64034C204.936 3.17517 205.13 4.00172 205.13 5.11999V8.37757L198.177 9.05826C196.913 10.1279 196.281 11.4893 196.281 13.191C196.281 14.3579 196.67 15.2817 197.448 16.011C198.226 16.7403 199.198 17.1293 200.365 17.1293C201.241 17.1293 202.116 16.8862 202.942 16.4486C203.769 16.011 204.498 15.3303 205.082 14.4065V16.7403H210.089V15.9138H208.047V5.65482ZM204.984 13.4341C204.595 14.0176 204.109 14.5038 203.574 14.8441C203.04 15.2331 202.407 15.3789 201.678 15.3789C201.046 15.3789 200.511 15.1844 200.025 14.7469C199.539 14.3093 199.296 13.7258 199.296 12.9965C199.296 12.0727 199.539 11.392 200.025 10.8086C200.511 10.2738 201.192 9.83619 202.116 9.59308C202.942 9.34998 203.915 9.20412 205.033 9.1555V13.2882C205.033 13.3369 205.033 13.3855 204.984 13.4341Z" fill="#BFCCD9"/>
<path d="M220.543 1.91053H222.39V8.37707H216.653V1.91053H218.501V1.08398H211.645V1.91053H213.687V15.9619H211.645V16.7884H218.501V15.9619H216.653V9.20362H222.39V15.9619H220.543V16.7884H227.398V15.9619H225.356V1.91053H227.398V1.08398H220.543V1.91053Z" fill="#BFCCD9"/>
<path d="M241.158 15.9624V5.65482C241.158 4.48792 240.915 3.56413 240.477 2.83482C240.04 2.10552 239.456 1.57069 238.727 1.23035C237.998 0.890002 237.171 0.744141 236.345 0.744141C235.518 0.744141 234.594 0.890002 233.768 1.23035C232.941 1.52207 232.163 2.00828 231.483 2.59172C230.802 3.17517 230.267 3.85586 229.927 4.68241L233.525 7.7455L232.795 2.5431C233.087 2.39724 233.379 2.20276 233.67 2.10552C234.4 1.81379 235.129 1.71655 235.81 1.76517C236.49 1.81379 237.074 2.10552 237.56 2.64034C238.046 3.17517 238.241 4.00172 238.241 5.11999V8.37757L231.288 9.05826C230.024 10.1279 229.392 11.4893 229.392 13.191C229.392 14.3579 229.781 15.2817 230.559 16.011C231.337 16.7403 232.309 17.1293 233.476 17.1293C234.351 17.1293 235.226 16.8862 236.053 16.4486C236.879 16.011 237.609 15.3303 238.192 14.4065V16.7403H243.2V15.9138H241.158V15.9624ZM238.144 13.4341C237.755 14.0176 237.268 14.5038 236.734 14.8441C236.199 15.2331 235.567 15.3789 234.837 15.3789C234.205 15.3789 233.67 15.1844 233.184 14.7469C232.698 14.3093 232.455 13.7258 232.455 12.9965C232.455 12.0727 232.698 11.392 233.184 10.8086C233.67 10.2738 234.351 9.83619 235.275 9.59308C236.101 9.34998 237.074 9.20412 238.192 9.1555V13.2882C238.192 13.3369 238.144 13.3855 238.144 13.4341Z" fill="#BFCCD9"/>
</svg>
