<svg width="86" height="37" viewBox="0 0 86 37" fill="none" xmlns="http://www.w3.org/2000/svg">
<path d="M45.2244 18.3841C45.1578 18.5311 45.0245 18.6128 44.8578 18.6128C44.7245 18.6128 44.6079 18.5475 44.5412 18.4494C44.4579 18.3514 44.4413 18.2207 44.4912 18.0899L45.0911 16.4231H43.5581L43.4581 16.6846C43.3081 16.5212 43.0915 16.4231 42.8249 16.4231C42.8082 16.4231 42.7749 16.4231 42.7582 16.4231H41.4418C41.4418 16.3904 41.4585 16.3741 41.4585 16.3414C41.8084 15.1648 42.175 14.8053 43.0249 14.8053H43.1748L43.2915 14.4458H43.0249C42.475 14.4458 42.0917 14.5929 41.7918 14.9034C41.5252 15.1812 41.3252 15.5734 41.1086 16.2597C41.0919 16.3251 41.0752 16.3904 41.0586 16.4394H40.392V16.799H40.9419C40.8086 17.2075 40.6753 17.5997 40.5254 18.0409C40.4754 18.2043 40.4087 18.3841 40.3421 18.5802C40.0588 19.3972 39.6755 19.4626 38.9423 19.4626L38.8257 19.8221C39.6755 19.8875 40.3254 19.7731 40.692 18.6946C40.7586 18.4985 40.8086 18.3187 40.8753 18.1553C41.0419 17.665 41.1752 17.2402 41.3252 16.799H42.1417C42.1084 16.848 42.0917 16.897 42.0584 16.9624L41.7085 17.9429C41.6251 18.188 41.6585 18.4494 41.8084 18.6619C41.9584 18.8743 42.2084 18.9887 42.4583 18.9887C42.7916 18.9887 43.0915 18.7763 43.2082 18.4658L43.5581 17.4853C43.5748 17.4526 43.5748 17.4199 43.5914 17.3709L43.7914 16.799H44.5246L44.0913 17.9755C44.008 18.2043 44.0413 18.4658 44.1913 18.6619C44.3413 18.858 44.5746 18.9887 44.8245 18.9887C45.1245 18.9887 45.4077 18.8089 45.5244 18.5311L45.7743 17.9592L45.4244 17.8121L45.2244 18.3841ZM43.2415 17.3546L42.8916 18.335C42.8249 18.4985 42.6749 18.6128 42.4916 18.6128C42.3583 18.6128 42.225 18.5475 42.1417 18.4331C42.0584 18.3187 42.0417 18.188 42.0917 18.0572L42.4416 17.0768C42.5083 16.9133 42.6583 16.799 42.8416 16.799C43.0082 16.799 43.1415 16.848 43.2082 16.9624C43.2748 17.0604 43.2915 17.2075 43.2415 17.3546Z" fill="#CAD5E0"/>
<path d="M2.63282 0H0.083317C0.0499902 0 0 0.0326827 0 0.0817068V5.40899C0 5.45801 0.0499902 5.49069 0.083317 5.49069H2.61615C2.66614 5.49069 2.69947 5.45801 2.69947 5.40899V5.08216C2.69947 5.03314 2.66614 5.00045 2.61615 5.00045H0.516565V2.99047H2.46618C2.51617 2.99047 2.5495 2.94144 2.5495 2.90876V2.58193C2.5495 2.53291 2.49951 2.50023 2.46618 2.50023H0.516565V0.506582H2.63282C2.68281 0.506582 2.71613 0.473899 2.71613 0.424875V0.0980481C2.71613 0.0326827 2.68281 0 2.63282 0Z" fill="#CAD5E0"/>
<path d="M29.8442 0H29.311C29.2943 0 29.2443 0.0326827 29.2277 0.0490241L28.2779 2.54925L27.328 0.0490241C27.328 0.0326827 27.278 0 27.2447 0H26.7115C26.6615 0 26.6282 0.0326827 26.6282 0.0817068V5.40899C26.6282 5.45801 26.6615 5.49069 26.7115 5.49069H27.0448C27.0947 5.49069 27.1281 5.45801 27.1281 5.40899V0.996822L27.9279 3.10486C27.9279 3.1212 27.9779 3.15388 28.0112 3.15388H28.5278C28.5445 3.15388 28.5945 3.1212 28.6111 3.10486L29.411 0.996822V5.40899C29.411 5.45801 29.4443 5.49069 29.4943 5.49069H29.8276C29.8775 5.49069 29.9109 5.45801 29.9109 5.40899V0.0817068C29.9275 0.0326827 29.8775 0 29.8442 0Z" fill="#CAD5E0"/>
<path d="M58.1553 2.71266C58.4386 2.48389 58.6219 2.14072 58.6219 1.74852V1.24194C58.6219 0.555606 58.0553 0 57.3555 0H55.9891C55.9391 0 55.9058 0.0326827 55.9058 0.0817068V5.40899C55.9058 5.45801 55.9391 5.49069 55.9891 5.49069H57.4221C58.1387 5.49069 58.6886 4.93509 58.6886 4.24875V3.75851C58.7052 3.31729 58.4886 2.94144 58.1553 2.71266ZM56.4223 0.506582H57.3555C57.7721 0.506582 58.122 0.833409 58.122 1.25828V1.76487C58.122 2.1734 57.7887 2.51657 57.3555 2.51657H56.4223V0.506582ZM58.2053 4.23241C58.2053 4.64094 57.8554 4.98411 57.4388 4.98411H56.4223V2.99047H57.4388C57.8554 2.99047 58.2053 3.31729 58.2053 3.74217V4.23241Z" fill="#CAD5E0"/>
<path d="M2.63282 30.4438H0.083317C0.0333268 30.4438 0 30.4765 0 30.5256V35.8528C0 35.9019 0.0499902 35.9345 0.083317 35.9345H2.61615C2.66614 35.9345 2.69947 35.9019 2.69947 35.8528V35.526C2.69947 35.477 2.66614 35.4443 2.61615 35.4443H0.516565V33.4507H2.46618C2.51617 33.4507 2.5495 33.4016 2.5495 33.3689V33.0421C2.5495 32.9931 2.49951 32.9604 2.46618 32.9604H0.516565V30.9668H2.63282C2.68281 30.9668 2.71613 30.9341 2.71613 30.8851V30.5582C2.71613 30.4765 2.68281 30.4438 2.63282 30.4438Z" fill="#CAD5E0"/>
<path d="M16.1801 30.4438H15.8468C15.7969 30.4438 15.7635 30.4765 15.7635 30.5256V34.7743C15.7635 35.1828 15.4303 35.526 14.997 35.526H14.8304C14.4138 35.526 14.0639 35.1828 14.0639 34.7743V30.5256C14.0639 30.4765 14.0139 30.4438 13.9805 30.4438H13.6473C13.5973 30.4438 13.564 30.4765 13.564 30.5256V34.7743C13.564 35.4606 14.1305 36.0162 14.8304 36.0162H14.997C15.6969 36.0162 16.2634 35.4606 16.2634 34.7743V30.5256C16.2634 30.4765 16.2301 30.4438 16.1801 30.4438Z" fill="#CAD5E0"/>
<path d="M28.861 33.9899C29.3109 33.7938 29.6275 33.3689 29.6275 32.846V31.6858C29.6275 30.9995 29.061 30.4438 28.3611 30.4438H26.9947C26.9447 30.4438 26.9114 30.4765 26.9114 30.5256V35.8528C26.9114 35.9019 26.9447 35.9345 26.9947 35.9345H27.328C27.378 35.9345 27.4113 35.9019 27.4113 35.8528V34.1043H28.3444L29.1109 35.8855C29.1109 35.9019 29.1609 35.9345 29.1943 35.9345H29.5609C29.6442 35.9345 29.6608 35.8855 29.6442 35.8202L28.861 33.9899ZM27.4113 33.5977V30.9341H28.3444C28.761 30.9341 29.1109 31.2609 29.1109 31.6858V32.846C29.1109 33.2546 28.7777 33.5977 28.3444 33.5977H27.4113Z" fill="#CAD5E0"/>
<path d="M55.0725 31.8494V31.6042C55.0725 31.1957 55.4057 30.8525 55.839 30.8525H56.0056C56.4222 30.8525 56.7721 31.1794 56.7721 31.6042V31.7677C56.7721 31.8003 56.8221 31.8494 56.8555 31.8494H57.1887C57.2387 31.8494 57.272 31.8003 57.272 31.7677V31.6042C57.272 30.9179 56.7055 30.3623 56.0056 30.3623H55.839C55.1391 30.3623 54.5726 30.9179 54.5726 31.6042V31.8494C54.5726 33.4508 56.8555 33.222 56.8555 34.513V34.7581C56.8555 35.1667 56.5055 35.5098 56.0889 35.5098H55.7557C55.3391 35.5098 54.9892 35.1667 54.9892 34.7581V34.5947C54.9892 34.5457 54.9558 34.513 54.9058 34.513H54.5726C54.5226 34.513 54.4893 34.5457 54.4893 34.5947V34.7581C54.4893 35.4445 55.0558 36.0001 55.7557 36.0001H56.0889C56.8055 36.0001 57.3554 35.4445 57.3554 34.7581V34.513C57.3554 32.8462 55.0725 33.0586 55.0725 31.8494Z" fill="#CAD5E0"/>
<path d="M71.4694 35.428H70.3696V30.9341H71.386C71.436 30.9341 71.4694 30.9014 71.4694 30.8524V30.5256C71.4694 30.4765 71.436 30.4438 71.386 30.4438H68.8366C68.7866 30.4438 68.7532 30.4765 68.7532 30.5256V30.8524C68.7532 30.9014 68.7866 30.9341 68.8366 30.9341H69.853V35.428H68.7532C68.7032 35.428 68.6699 35.4606 68.6699 35.5097V35.8365C68.6699 35.8855 68.7032 35.9182 68.7532 35.9182H71.4694C71.5194 35.9182 71.5527 35.8855 71.5527 35.8365V35.5097C71.5527 35.4606 71.5194 35.428 71.4694 35.428Z" fill="#CAD5E0"/>
<path d="M84.1168 30.5421C84.1001 30.4768 84.0502 30.4277 83.9835 30.4277H82.8671C82.8004 30.4277 82.7504 30.4768 82.7337 30.5421L81.8506 35.7714C81.8339 35.8531 81.9006 35.9184 81.9839 35.9184H82.2505C82.3172 35.9184 82.3672 35.8694 82.3838 35.804L82.6671 34.0719H84.1835L84.4667 35.804C84.4834 35.8694 84.5334 35.9184 84.6001 35.9184H84.8667C84.95 35.9184 85.0166 35.8531 85 35.7714L84.1168 30.5421ZM82.7504 33.598L83.2003 30.9343H83.6669L84.1168 33.598H82.7504Z" fill="#CAD5E0"/>
<path d="M43.0749 30.4438H41.9585C41.8918 30.4438 41.8418 30.4929 41.8252 30.5582L40.942 35.7875C40.9254 35.8692 40.992 35.9345 41.0753 35.9345H41.3419C41.4086 35.9345 41.4586 35.8855 41.4753 35.8202L41.7585 34.088H43.2749L43.5582 35.8202C43.5748 35.8855 43.6248 35.9345 43.6915 35.9345H43.9581C44.0414 35.9345 44.1081 35.8692 44.0914 35.7875L43.2082 30.5582C43.1916 30.4765 43.1416 30.4438 43.0749 30.4438ZM41.8418 33.5977L42.2918 30.9341H42.7583L43.2082 33.5977H41.8418Z" fill="#CAD5E0"/>
<path d="M81.9839 5.49069H82.2505C82.3172 5.49069 82.3672 5.44167 82.3838 5.37631L82.6671 3.64412H84.1835L84.4667 5.37631C84.4834 5.44167 84.5334 5.49069 84.6001 5.49069H84.8667C84.95 5.49069 85.0166 5.42533 85 5.34362L84.1168 0.114389C84.1001 0.0490241 84.0502 0 83.9835 0H82.8671C82.8004 0 82.7504 0.0490241 82.7337 0.114389L81.8506 5.34362C81.8339 5.42533 81.9006 5.49069 81.9839 5.49069ZM83.2003 0.490241H83.6669L84.1168 3.15388H82.7671L83.2003 0.490241Z" fill="#CAD5E0"/>
</svg>
