<svg width="88" height="67" viewBox="0 0 88 67" fill="none" xmlns="http://www.w3.org/2000/svg"><path class="26f9f720-c87e-4b3d-9e4a-d3199e776a9d" d="M62,10.2a18,18,0,0,0-4.41-4.88,27.52,27.52,0,0,0-5.8-3.45A20.19,20.19,0,0,0,45.41.1c-.34,0-.73-.08-1.08-.1H43.07a11.32,11.32,0,0,0-8.55,4.08,10.53,10.53,0,0,0-1,1.43,17.33,17.33,0,0,0-2.25,7.71,33.31,33.31,0,0,0-7-2.73,25.62,25.62,0,0,0-6.44-.9,16.83,16.83,0,0,0-2.71.21,9.89,9.89,0,0,0-3.83,1.37,5,5,0,0,0-2.27,3,4.66,4.66,0,0,0-.16,1.27,7.37,7.37,0,0,0,.74,3.06,13.08,13.08,0,0,0,2.06,3.11,26.66,26.66,0,0,0,5.51,4.74,40.21,40.21,0,0,0,6.69,3.54,39.91,39.91,0,0,0,7.83,2.4,30.54,30.54,0,0,0,5.87.6,20.51,20.51,0,0,0,3.11-.22h0a2,2,0,0,1,.35,0h0a1.93,1.93,0,0,1,.33.08h0l.22.07h0l.31.07h0l.23,0a.53.53,0,0,0,.35.1h0l.31,0c.34,0,.7,0,1.07,0l.57,0a11.92,11.92,0,0,0,2-.35,27.73,27.73,0,0,0,4.92-2c.53-.26,1.06-.51,1.6-.75l.53-.27.24-.12h0l.32-.14a4.23,4.23,0,0,0,.48-.23h0l.16-.11.18-.12c.36-.19.73-.41,1.1-.63a17.91,17.91,0,0,0,6.76-7.16,10.28,10.28,0,0,0,1.05-3.63,9.46,9.46,0,0,0,.06-1.07A12,12,0,0,0,62,10.2Zm-16.72,22H45.1c.63-.27,1.25-.58,1.83-.89l.38-.2a33.33,33.33,0,0,0,2.86-1.72,11,11,0,0,0,1.77.17l-.65.31c-.84.4-1.67.8-2.54,1.17A19.8,19.8,0,0,1,45.24,32.21Zm-2.67-.08a3.08,3.08,0,0,1-.71-.13h0a11.82,11.82,0,0,1-3.09-1.28h0l-.21-.11h0l-.48-.26,0,.09,0-.09-.21-.13-.12-.1a.74.74,0,0,1,0-.28c0-.14,0-.3,0-.41a10.19,10.19,0,0,1,.33-1.68l.12-.48h0c.23-1,.44-1.78.69-2.57a31.22,31.22,0,0,0,9.9,4.36c-.74.52-1.63,1.07-2.75,1.7a12.11,12.11,0,0,1-2.5,1.15l-.22.07A3.14,3.14,0,0,1,42.57,32.13ZM31.32,14.23c0,.3,0,.69,0,1a2.63,2.63,0,0,0,0,.3h0v.18h0c0,.19,0,.47,0,.74a3.53,3.53,0,0,0,0,.38,22.05,22.05,0,0,0-4-2.08,18.48,18.48,0,0,0-5.37-1.27c-.35,0-.7,0-1,0a7.1,7.1,0,0,0-4.43,1.23A2.86,2.86,0,0,0,15.41,17V17a4.88,4.88,0,0,0,.79,2.56,14.6,14.6,0,0,0,5.22,4.78,25.18,25.18,0,0,0,7,3,20.61,20.61,0,0,0,5,.7,6.46,6.46,0,0,0,.78,0,1.66,1.66,0,0,1,.19.27h0a12.9,12.9,0,0,0,2.88,2.6h0a2.06,2.06,0,0,0,.39.21l.45.25a5.56,5.56,0,0,0,1.09.48,17.48,17.48,0,0,1-2.61.19,26.43,26.43,0,0,1-3.7-.27,35,35,0,0,1-6-1.41,36.59,36.59,0,0,1-9.78-4.93,19,19,0,0,1-5.43-5.59,8.47,8.47,0,0,1-1-2.61,5.3,5.3,0,0,1-.11-1.09,4.85,4.85,0,0,1,2.05-3.93,9.54,9.54,0,0,1,4.75-1.59c.52-.05,1.05-.07,1.56-.07a23.16,23.16,0,0,1,6.61,1.08A32.31,32.31,0,0,1,31.34,14Zm1.1,1.25h0A19.7,19.7,0,0,1,33,10.19a8.92,8.92,0,0,1,.53-1.31A12.07,12.07,0,0,0,36.48,13a26.92,26.92,0,0,0,4,3.26,31.64,31.64,0,0,0-2.56,6.51,2.7,2.7,0,0,1-.4-.29l-.25-.19h0a18.37,18.37,0,0,1-3.85-3.74,6.45,6.45,0,0,1-.85-1.49,2.06,2.06,0,0,1-.14-.45,2.64,2.64,0,0,1,0-.5v-.33h0ZM43.85,1a14.72,14.72,0,0,1,2.64.24,4.19,4.19,0,0,1,2.07,1.16,5.78,5.78,0,0,1,1.24,2,12.45,12.45,0,0,1,.65,2.31h0l-.12-.06h0a.85.85,0,0,0-.1-.33h0a7,7,0,0,0-1.38-1.77,7.59,7.59,0,0,0-1.79-1.35,9.84,9.84,0,0,0-4.64-1.09h-.48a9.88,9.88,0,0,0-6.86,2.91,9.68,9.68,0,0,1,2.7-2.46A11.36,11.36,0,0,1,43.34,1ZM54,4l.95.56a6,6,0,0,0-1.88,1.25c-.49.44-.93.93-1.37,1.41h0l-.15.23-.28-.18h0l-.09,0a8.29,8.29,0,0,0-1.92-5.27A30.61,30.61,0,0,1,54,4ZM34.24,7.63v0a4.24,4.24,0,0,1,.26-.39l-.08,0,.08,0a9.32,9.32,0,0,1,6.29-4,11.81,11.81,0,0,1,1.93-.15,9.79,9.79,0,0,1,2.13.21,7,7,0,0,1,3.6,2c.37.36.73.77,1.08,1.16a1,1,0,0,0,.08.11,4.39,4.39,0,0,0-1.78.79,18,18,0,0,0-3.33,3.12,24.07,24.07,0,0,0-3.36,4.88A24.67,24.67,0,0,1,35.44,10a8.36,8.36,0,0,1-1-1.74,2.54,2.54,0,0,1-.19-.64ZM55.35,21.92a42.19,42.19,0,0,1-12.92-5.63,33.22,33.22,0,0,1,5.32-7.21c.33-.33.69-.67,1.09-1a3.57,3.57,0,0,1,1.25-.75h.33a.83.83,0,0,1,.21.14h0l.16.12h0a7.3,7.3,0,0,0,1.44.77c.21.08.43.14.65.2l.47.13a5.38,5.38,0,0,1,1,.4,5.28,5.28,0,0,1,2,3.48,14.06,14.06,0,0,1,.35,3.17,11.5,11.5,0,0,1-.16,2A26.14,26.14,0,0,1,55.35,21.92ZM49.8,28.36a35.29,35.29,0,0,1-10.63-4.63,35.72,35.72,0,0,1,2.7-6.42A44.14,44.14,0,0,0,54.66,23.1a12.23,12.23,0,0,1-.87,1.3A19.67,19.67,0,0,1,49.8,28.36ZM58.06,8.15a10.47,10.47,0,0,0-3.51-.6,7.25,7.25,0,0,0-2,.26l-.32-.15a13.87,13.87,0,0,1,2.38-1.9,2.45,2.45,0,0,1,1.15-.42,1.1,1.1,0,0,1,.45.1,2.74,2.74,0,0,1,.53.39L57,6h0a22,22,0,0,1,3.72,3.69A8.29,8.29,0,0,0,58.06,8.15ZM36.89,23.44h0l.24.17h0c.14.1.27.18.39.25A19,19,0,0,0,37,26.35h0s-.11.66-.16.88a9.54,9.54,0,0,0-.21,1.66,2.46,2.46,0,0,0,0,.28,11.47,11.47,0,0,1-1.5-1.64,9.24,9.24,0,0,1-1.31-2.41,14.59,14.59,0,0,1-.72-3c-.13-.88-.25-1.8-.34-2.74A19.36,19.36,0,0,0,36.89,23.44ZM30,24.12a9.91,9.91,0,0,1-1.08-.06,11.76,11.76,0,0,1-3.43-1,11.28,11.28,0,0,1-2.71-1.68,6.06,6.06,0,0,1-1.06-1.09,3.06,3.06,0,0,1-.61-1.48v-.19c0-.87.5-1.46,1.54-1.82a4.08,4.08,0,0,1,1.28-.18,7.21,7.21,0,0,1,2,.3,8.74,8.74,0,0,1,2.55,1.23h0a4,4,0,0,1,.95.9,2.07,2.07,0,0,1,.43,1.19v.14a1.3,1.3,0,0,1-.95,1.12,2.57,2.57,0,0,1-.75.1A5.23,5.23,0,0,1,25.79,21a2.83,2.83,0,0,1-.69-.51,1.17,1.17,0,0,1-.33-.79v-.14h0a2.27,2.27,0,0,1,.22-.63l0-.05,0-.05a2.74,2.74,0,0,0-.36-.32l-.07-.06,0,0v-.07a.92.92,0,0,0-.52-.27h0a1,1,0,0,0-.88.64.84.84,0,0,0,0,.27,2,2,0,0,0,.4,1.07,3.34,3.34,0,0,0,.85.79A8.7,8.7,0,0,0,26.37,22a7.21,7.21,0,0,0,2.67.53,2.92,2.92,0,0,0,2.12-.61h0a1.36,1.36,0,0,0,.4-1v0a2.8,2.8,0,0,0-.73-1.66,6.08,6.08,0,0,0-1.19-1.12,11.82,11.82,0,0,0-2.93-1.6A12.1,12.1,0,0,0,25,16a9.26,9.26,0,0,0-2-.22c-1,0-2.7.16-3.35,1.38a1.76,1.76,0,0,0-.19.82,3.63,3.63,0,0,0,.66,1.88,10.87,10.87,0,0,0,4.36,3.49,16.33,16.33,0,0,0,3.83,1.37A12.59,12.59,0,0,0,31,25a4.73,4.73,0,0,0,1.75-.27,7.25,7.25,0,0,0,1,2.24v0c-.45,0-.89.07-1.32.07a18.05,18.05,0,0,1-6-1.1,21.41,21.41,0,0,1-5.68-3,11.67,11.67,0,0,1-2.23-2.09,5.36,5.36,0,0,1-1.36-2.88c0-.13,0-.26,0-.37A2.76,2.76,0,0,1,18,15.57a4.58,4.58,0,0,1,1.86-1,5.69,5.69,0,0,1,.88-.19A8.18,8.18,0,0,1,22,14.31a12.57,12.57,0,0,1,2.83.34,16.64,16.64,0,0,1,4.83,1.91,12.48,12.48,0,0,1,1.89,1.32c.1.65.18,1.31.27,2a26.65,26.65,0,0,0,.66,3.69A4.75,4.75,0,0,1,30,24.12Zm26.17-.82a15.15,15.15,0,0,0,2.19.18A5.54,5.54,0,0,0,60.71,23h0a16.26,16.26,0,0,1-3.87,3.79,15.65,15.65,0,0,1-2.44,1.53,4.51,4.51,0,0,1-1.91.34,10.29,10.29,0,0,1-1.23-.08A18.24,18.24,0,0,0,56.17,23.3Zm5.67-2c-.46.66-1.6,1.05-3.22,1.05a6.56,6.56,0,0,1-1.85-.23A15.72,15.72,0,0,0,58.1,16a11.87,11.87,0,0,0-.2-2.18,9.38,9.38,0,0,0-1.46-3.73A4.31,4.31,0,0,0,54,8.32l.41,0a9.54,9.54,0,0,1,3.92.82,8.71,8.71,0,0,1,4.21,4.82,5.53,5.53,0,0,1,.36,1.15,9.33,9.33,0,0,1,.11,1.4,10.53,10.53,0,0,1-.8,3.94,5.05,5.05,0,0,1-.41.84l.08.05ZM37,26.35ZM7.72,44.56c-.1-1.88-1.63-2.46-3-2.46-1,0-2.77.28-2.77,2.11,0,1,.49,1.31,3,1.89,3.69.85,4.6,1.6,4.6,3.65,0,2.84-2.64,3.64-4.72,3.64-4,0-4.86-2.47-4.86-4.22H1.53c0,2.2,1.77,2.82,3.3,2.82C6,52,8,51.7,8,50c0-1.26-.28-1.68-4.15-2.51C1.73,47,.4,46.35.4,44.42s1.23-3.71,4.15-3.71c4.2,0,4.62,2.52,4.7,3.85Zm5.13,2.3L18.7,41h2.24l-5,4.87,5.15,7.19H19l-4.22-6-1.89,1.81v4.24H11.22V41h1.63Zm14.63,6.53c-4.5,0-5.86-3.74-5.86-6.34s1.36-6.34,5.86-6.34,5.86,3.73,5.86,6.34S32,53.39,27.48,53.39Zm0-11.24c-2.62,0-4.19,2-4.19,4.86S24.86,52,27.48,52s4.18-2.06,4.18-4.9S30.1,42.15,27.48,42.15Zm9.13,9.48H42.7v1.45H35V41h1.63Zm8.93-4.77L51.39,41h2.24l-5,4.87,5.15,7.19H51.65l-4.21-6-1.9,1.81v4.24H43.92V41h1.62Zm14.63,6.53c-4.5,0-5.86-3.74-5.86-6.34s1.36-6.34,5.86-6.34S66,44.44,66,47.05,64.67,53.39,60.17,53.39Zm0-11.24c-2.62,0-4.19,2-4.19,4.86S57.55,52,60.17,52s4.18-2.06,4.18-4.9S62.79,42.15,60.17,42.15ZM74.71,41h1.83L72.15,53.08H70.41L66,41h1.81L71.27,51.3h0ZM82.4,53.39c-4.5,0-5.87-3.74-5.87-6.34s1.37-6.34,5.87-6.34,5.86,3.73,5.86,6.34S86.89,53.39,82.4,53.39Zm0-11.24c-2.63,0-4.19,2-4.19,4.86S79.77,52,82.4,52s4.18-2.06,4.18-4.9S85,42.15,82.4,42.15ZM11.86,55.82l1,2.84h0l1-2.84h.65v3.36H14v-2c0-.1,0-.53,0-.84h0l-.94,2.82H12.6l-.95-2.82h0c0,.3,0,.74,0,.84v2h-.44V55.82Zm4.21.84a1.31,1.31,0,0,1,0,2.59,1.31,1.31,0,0,1,0-2.59Zm0,2.23c.59,0,.71-.61.71-.93s-.12-.94-.71-.94-.71.61-.71.94S15.48,58.89,16.07,58.89Zm3-1.46c0-.15,0-.41-.58-.41-.12,0-.48,0-.48.35s.12.25.65.38c.72.17.89.36.89.69,0,.51-.42.81-1,.81-1,0-1-.56-1.05-.85h.4c0,.18.06.49.65.49.29,0,.56-.1.56-.38s-.15-.3-.74-.42-.79-.26-.79-.64a.81.81,0,0,1,.92-.79c.88,0,.94.65.94.77Zm2.51.13A.54.54,0,0,0,21,57c-.51,0-.67.48-.67.92s.1.93.66.93a.62.62,0,0,0,.59-.57H22a1,1,0,0,1-1,.93A1.09,1.09,0,0,1,19.88,58c0-.76.36-1.37,1.17-1.37a.88.88,0,0,1,.91.9Zm1.8-.9A1.31,1.31,0,1,1,22.24,58,1.18,1.18,0,0,1,23.37,56.66Zm0,2.23c.59,0,.72-.61.72-.93S24,57,23.37,57s-.71.61-.71.94S22.79,58.89,23.37,58.89Zm1.82-2.16.47,1.92h0l.47-1.92h.46l.48,1.92h0l.49-1.92H28l-.71,2.45h-.42l-.5-1.89h0l-.48,1.89h-.42l-.7-2.45Zm6.54.08c0-.53-.45-.69-.83-.69s-.77.08-.77.59c0,.29.14.37.84.53,1,.23,1.28.44,1.28,1,0,.79-.73,1-1.31,1-1.13,0-1.36-.69-1.36-1.18H30c0,.61.49.79.92.79s.88-.08.88-.56-.08-.47-1.16-.7c-.59-.13-1-.31-1-.85a1,1,0,0,1,1.16-1c1.17,0,1.29.71,1.31,1.08Zm2.59.75a.54.54,0,0,0-.58-.52c-.51,0-.67.48-.67.92s.1.93.66.93a.62.62,0,0,0,.59-.57h.4a1,1,0,0,1-1,.93A1.09,1.09,0,0,1,32.63,58c0-.76.36-1.37,1.17-1.37a.89.89,0,0,1,.92.9Zm1.22-.5h0a.84.84,0,0,1,.71-.4.77.77,0,0,1,.85.86v1.66H36.7v-1.6c0-.33-.09-.54-.48-.54s-.68.19-.68.81v1.33h-.42V55.82h.42Zm3.18-.4A1.31,1.31,0,1,1,37.58,58,1.17,1.17,0,0,1,38.72,56.66Zm0,2.23c.59,0,.71-.61.71-.93s-.12-.94-.71-.94S38,57.63,38,58,38.13,58.89,38.72,58.89Zm2.6-2.23A1.31,1.31,0,1,1,40.19,58,1.17,1.17,0,0,1,41.32,56.66Zm0,2.23c.59,0,.71-.61.71-.93s-.12-.94-.71-.94-.71.61-.71.94S40.73,58.89,41.32,58.89Zm2,.29h-.41V55.82h.41Zm2.91-2.52A1.31,1.31,0,1,1,45.1,58,1.17,1.17,0,0,1,46.24,56.66Zm0,2.23c.58,0,.71-.61.71-.93s-.13-.94-.71-.94-.72.61-.72.94S45.65,58.89,46.24,58.89Zm2.52-2.74H48.6c-.18,0-.25.08-.25.28v.3h.41v.35h-.41v2.1h-.41v-2.1h-.33v-.35h.33v-.41c0-.38.23-.55.63-.55a.58.58,0,0,1,.19,0Zm2.37-.33.95,2.84h0l1-2.84h.64v3.36h-.44v-2c0-.1,0-.53,0-.84h0l-.95,2.82h-.45l-.94-2.82h0c0,.3,0,.74,0,.84v2h-.44V55.82Zm3.19,1.66c0-.59.4-.82,1-.82.2,0,.91.06.91.69v1.4c0,.1,0,.15.13.15l.14,0v.3a.71.71,0,0,1-.23,0c-.36,0-.41-.19-.43-.38a1.1,1.1,0,0,1-.89.4.7.7,0,0,1-.76-.71c0-.29.08-.72.94-.78.64,0,.69-.11.69-.36s-.18-.39-.57-.39-.54.28-.56.47Zm1.51.45c-.07,0-.17.09-.68.16-.21,0-.53.08-.53.39a.4.4,0,0,0,.45.43c.39,0,.76-.25.76-.58Zm1.49-1.2v.35h0a.88.88,0,0,1,.74-.42.77.77,0,0,1,.85.86v1.66h-.41V57.67c0-.42-.12-.63-.52-.63-.23,0-.65.14-.65.81v1.33h-.41V56.73Zm2.19.75c0-.59.4-.82,1-.82.2,0,.91.06.91.69v1.4c0,.1,0,.15.13.15l.14,0v.3a.71.71,0,0,1-.22,0c-.37,0-.42-.19-.44-.38a1.1,1.1,0,0,1-.88.4.7.7,0,0,1-.77-.71c0-.29.08-.72.94-.78.64,0,.69-.11.69-.36s-.18-.39-.57-.39-.54.28-.56.47Zm1.51.45c-.07,0-.17.09-.68.16-.2,0-.53.08-.53.39a.4.4,0,0,0,.45.43c.39,0,.76-.25.76-.58Zm3.11-1.2V59A1.05,1.05,0,0,1,63,60.21a.84.84,0,0,1-.93-.73h.41a.54.54,0,0,0,.55.39c.68,0,.7-.53.7-1a.77.77,0,0,1-.66.34c-.83,0-1.07-.78-1.07-1.36s.37-1.23,1-1.23a.83.83,0,0,1,.74.42v-.35ZM62.41,58c0,.53.21.94.66.94.26,0,.65-.17.65-.82,0-.41,0-1-.64-1S62.41,57.63,62.41,58Zm4.38.46a1,1,0,0,1-1.1.84A1.09,1.09,0,0,1,64.6,58c0-.77.36-1.37,1.17-1.37s1,.57,1,1.43H65c0,.51.23.8.71.8a.61.61,0,0,0,.63-.48Zm-.39-.64c0-.38-.19-.73-.69-.73a.71.71,0,0,0-.67.73Zm1.27-1v.35h0a.86.86,0,0,1,.74-.42.65.65,0,0,1,.65.4.93.93,0,0,1,.75-.4.74.74,0,0,1,.76.83v1.69h-.41V57.6c0-.34-.11-.56-.46-.56a.61.61,0,0,0-.57.65v1.49h-.41V57.49c0-.21-.08-.45-.39-.45s-.64.13-.64.8v1.34h-.41V56.73Zm5.57,1.68a1,1,0,0,1-1.1.84A1.09,1.09,0,0,1,71.05,58c0-.77.36-1.37,1.17-1.37s1,.57,1,1.43H71.49c0,.51.24.8.71.8a.61.61,0,0,0,.63-.48Zm-.39-.64c0-.38-.18-.73-.69-.73a.72.72,0,0,0-.67.73Zm1.27-1v.35h0a.88.88,0,0,1,.73-.42.78.78,0,0,1,.86.86v1.66h-.41V57.67c0-.42-.12-.63-.52-.63-.24,0-.65.14-.65.81v1.33h-.41V56.73Zm2.72-.67v.68h.4v.34h-.4v1.59c0,.18.17.19.25.19h.14v.32a1.53,1.53,0,0,1-.3,0c-.41,0-.5-.23-.5-.53V57.08H76.1v-.34h.33v-.68Z" fill="#BBCDDB"/></svg>