<svg width="133" height="56" viewBox="0 0 133 56" fill="none" xmlns="http://www.w3.org/2000/svg">
<path d="M70.3187 28.5825C70.215 28.8112 70.0078 28.9382 69.7487 28.9382C69.5414 28.9382 69.36 28.8366 69.2564 28.6841C69.1268 28.5317 69.1009 28.3284 69.1786 28.1252L70.1114 25.5335H67.7277L67.5722 25.94C67.3391 25.6859 67.0022 25.5335 66.5877 25.5335C66.5618 25.5335 66.51 25.5335 66.484 25.5335H64.4372C64.4372 25.4826 64.4631 25.4572 64.4631 25.4064C65.0072 23.577 65.5772 23.018 66.8986 23.018H67.1318L67.3131 22.459H66.8986C66.0436 22.459 65.4477 22.6877 64.9813 23.1704C64.5667 23.6024 64.2558 24.2122 63.919 25.2794C63.8931 25.381 63.8672 25.4826 63.8413 25.5589H62.8049V26.1179H63.6599C63.4526 26.7531 63.2453 27.3629 63.0122 28.0489C62.9344 28.303 62.8308 28.5825 62.7272 28.8874C62.2867 30.1579 61.6908 30.2595 60.5508 30.2595L60.3694 30.8185C61.6908 30.9201 62.7012 30.7423 63.2713 29.0653C63.3749 28.7604 63.4526 28.4809 63.5563 28.2268C63.8154 27.4645 64.0226 26.8039 64.2558 26.1179H65.5254C65.4736 26.1941 65.4477 26.2703 65.3958 26.3719L64.8517 27.8965C64.7222 28.2776 64.774 28.6841 65.0072 29.0145C65.2404 29.3448 65.629 29.5226 66.0177 29.5226C66.5359 29.5226 67.0022 29.1923 67.1836 28.7096L67.7277 27.185C67.7536 27.1342 67.7536 27.0834 67.7795 27.0072L68.0904 26.1179H69.2305L68.5568 27.9473C68.4273 28.303 68.4791 28.7096 68.7123 29.0145C68.9455 29.3194 69.3082 29.5226 69.6968 29.5226C70.1632 29.5226 70.6037 29.2431 70.785 28.8112L71.1737 27.9219L70.6296 27.6932L70.3187 28.5825ZM67.2354 26.9818L66.6913 28.5063C66.5877 28.7604 66.3545 28.9382 66.0695 28.9382C65.8622 28.9382 65.6549 28.8366 65.5254 28.6587C65.3958 28.4809 65.3699 28.2776 65.4477 28.0743L65.9918 26.5498C66.0954 26.2957 66.3286 26.1179 66.6136 26.1179C66.8727 26.1179 67.08 26.1941 67.1836 26.3719C67.2872 26.5244 67.3132 26.7531 67.2354 26.9818Z" fill="#CAD5E0"/>
<path d="M4.09371 0H0.129548C0.0777287 0 0 0.0508176 0 0.127044V8.41032C0 8.48655 0.0777287 8.53736 0.129548 8.53736H4.0678C4.14553 8.53736 4.19735 8.48655 4.19735 8.41032V7.90214C4.19735 7.82592 4.14553 7.7751 4.0678 7.7751H0.803197V4.64981H3.83462C3.91235 4.64981 3.96416 4.57359 3.96416 4.52277V4.01459C3.96416 3.93837 3.88644 3.88755 3.83462 3.88755H0.803197V0.787674H4.09371C4.17144 0.787674 4.22326 0.736856 4.22326 0.660629V0.152453C4.22326 0.0508177 4.17144 0 4.09371 0Z" fill="#CAD5E0"/>
<path d="M46.4041 0H45.575C45.5491 0 45.4714 0.0508177 45.4455 0.0762265L43.9686 3.96378L42.4918 0.0762265C42.4918 0.0508177 42.414 0 42.3622 0H41.5331C41.4554 0 41.4036 0.0508176 41.4036 0.127044V8.41032C41.4036 8.48655 41.4554 8.53736 41.5331 8.53736H42.0513C42.129 8.53736 42.1809 8.48655 42.1809 8.41032V1.54994L43.4245 4.82768C43.4245 4.85309 43.5022 4.9039 43.5541 4.9039H44.3573C44.3832 4.9039 44.4609 4.85309 44.4868 4.82768L45.7305 1.54994V8.41032C45.7305 8.48655 45.7823 8.53736 45.86 8.53736H46.3782C46.4559 8.53736 46.5078 8.48655 46.5078 8.41032V0.127044C46.5337 0.0508176 46.4559 0 46.4041 0Z" fill="#CAD5E0"/>
<path d="M90.4245 4.21786C90.865 3.86214 91.15 3.32856 91.15 2.71874V1.93107C91.15 0.8639 90.2691 0 89.1809 0H87.0563C86.9786 0 86.9268 0.0508176 86.9268 0.127044V8.41032C86.9268 8.48655 86.9786 8.53736 87.0563 8.53736H89.2845C90.3986 8.53736 91.2537 7.67347 91.2537 6.60629V5.84403C91.2796 5.15799 90.9427 4.57359 90.4245 4.21786ZM87.73 0.787674H89.1809C89.8286 0.787674 90.3727 1.29585 90.3727 1.95648V2.74415C90.3727 3.37937 89.8545 3.91296 89.1809 3.91296H87.73V0.787674ZM90.5023 6.58089C90.5023 7.21611 89.9582 7.74969 89.3104 7.74969H87.73V4.64981H89.3104C89.9582 4.64981 90.5023 5.15799 90.5023 5.81862V6.58089Z" fill="#CAD5E0"/>
<path d="M4.09371 47.334H0.129548C0.0518191 47.334 0 47.3848 0 47.461V55.7443C0 55.8205 0.0777287 55.8713 0.129548 55.8713H4.0678C4.14553 55.8713 4.19735 55.8205 4.19735 55.7443V55.2361C4.19735 55.1599 4.14553 55.1091 4.0678 55.1091H0.803197V52.0092H3.83462C3.91235 52.0092 3.96416 51.933 3.96416 51.8822V51.374C3.96416 51.2978 3.88644 51.2469 3.83462 51.2469H0.803197V48.1471H4.09371C4.17144 48.1471 4.22326 48.0962 4.22326 48.02V47.5118C4.22326 47.3848 4.17144 47.334 4.09371 47.334Z" fill="#CAD5E0"/>
<path d="M25.1581 47.334H24.6399C24.5622 47.334 24.5104 47.3848 24.5104 47.461V54.0673C24.5104 54.7025 23.9922 55.2361 23.3186 55.2361H23.0595C22.4117 55.2361 21.8676 54.7025 21.8676 54.0673V47.461C21.8676 47.3848 21.7899 47.334 21.7381 47.334H21.2199C21.1422 47.334 21.0903 47.3848 21.0903 47.461V54.0673C21.0903 55.1345 21.9713 55.9984 23.0595 55.9984H23.3186C24.4068 55.9984 25.2877 55.1345 25.2877 54.0673V47.461C25.2877 47.3848 25.2359 47.334 25.1581 47.334Z" fill="#CAD5E0"/>
<path d="M44.8754 52.8477C45.575 52.5428 46.0673 51.8822 46.0673 51.0691V49.2651C46.0673 48.1979 45.1863 47.334 44.0981 47.334H41.9735C41.8958 47.334 41.844 47.3848 41.844 47.461V55.7443C41.844 55.8205 41.8958 55.8713 41.9735 55.8713H42.4917C42.5695 55.8713 42.6213 55.8205 42.6213 55.7443V53.0256H44.0722L45.2641 55.7951C45.2641 55.8205 45.3418 55.8713 45.3936 55.8713H45.9636C46.0932 55.8713 46.1191 55.7951 46.0932 55.6935L44.8754 52.8477ZM42.6213 52.2379V48.0962H44.0722C44.72 48.0962 45.2641 48.6044 45.2641 49.2651V51.0691C45.2641 51.7043 44.7459 52.2379 44.0722 52.2379H42.6213Z" fill="#CAD5E0"/>
<path d="M85.631 49.5212V49.1401C85.631 48.5048 86.1491 47.9712 86.8228 47.9712H87.0819C87.7296 47.9712 88.2737 48.4794 88.2737 49.1401V49.3941C88.2737 49.445 88.3515 49.5212 88.4033 49.5212H88.9215C88.9992 49.5212 89.051 49.445 89.051 49.3941V49.1401C89.051 48.0729 88.1701 47.209 87.0819 47.209H86.8228C85.7346 47.209 84.8537 48.0729 84.8537 49.1401V49.5212C84.8537 52.0113 88.4033 51.6555 88.4033 53.6628V54.044C88.4033 54.6792 87.8592 55.2128 87.2114 55.2128H86.6932C86.0455 55.2128 85.5014 54.6792 85.5014 54.044V53.7899C85.5014 53.7136 85.4496 53.6628 85.3719 53.6628H84.8537C84.7759 53.6628 84.7241 53.7136 84.7241 53.7899V54.044C84.7241 55.1111 85.605 55.975 86.6932 55.975H87.2114C88.3255 55.975 89.1806 55.1111 89.1806 54.044V53.6628C89.1806 51.0711 85.631 51.4014 85.631 49.5212Z" fill="#CAD5E0"/>
<path d="M111.126 55.0837H109.416V48.0962H110.997C111.074 48.0962 111.126 48.0454 111.126 47.9692V47.461C111.126 47.3848 111.074 47.334 110.997 47.334H107.033C106.955 47.334 106.903 47.3848 106.903 47.461V47.9692C106.903 48.0454 106.955 48.0962 107.033 48.0962H108.613V55.0837H106.903C106.825 55.0837 106.773 55.1345 106.773 55.2107V55.7189C106.773 55.7951 106.825 55.8459 106.903 55.8459H111.126C111.204 55.8459 111.256 55.7951 111.256 55.7189V55.2107C111.256 55.1345 111.204 55.0837 111.126 55.0837Z" fill="#CAD5E0"/>
<path d="M130.791 47.4904C130.765 47.3887 130.688 47.3125 130.584 47.3125H128.848C128.745 47.3125 128.667 47.3887 128.641 47.4904L127.268 55.6212C127.242 55.7482 127.345 55.8499 127.475 55.8499H127.889C127.993 55.8499 128.071 55.7736 128.097 55.672L128.537 52.9787H130.895L131.335 55.672C131.361 55.7736 131.439 55.8499 131.543 55.8499H131.957C132.087 55.8499 132.19 55.7482 132.165 55.6212L130.791 47.4904ZM128.667 52.2418L129.366 48.1002H130.092L130.791 52.2418H128.667Z" fill="#CAD5E0"/>
<path d="M66.9764 47.334H65.2405C65.1369 47.334 65.0591 47.4102 65.0332 47.5118L63.66 55.6427C63.6341 55.7697 63.7377 55.8713 63.8673 55.8713H64.2818C64.3855 55.8713 64.4632 55.7951 64.4891 55.6935L64.9296 53.0002H67.2873L67.7278 55.6935C67.7537 55.7951 67.8314 55.8713 67.9351 55.8713H68.3496C68.4792 55.8713 68.5828 55.7697 68.5569 55.6427L67.1837 47.5118C67.1578 47.3848 67.0801 47.334 66.9764 47.334ZM65.0591 52.2379L65.7587 48.0962H66.4841L67.1837 52.2379H65.0591Z" fill="#CAD5E0"/>
<path d="M127.475 8.53736H127.889C127.993 8.53736 128.071 8.46114 128.097 8.3595L128.537 5.66617H130.895L131.335 8.3595C131.361 8.46114 131.439 8.53736 131.543 8.53736H131.957C132.087 8.53736 132.19 8.43573 132.165 8.30869L130.791 0.177862C130.765 0.0762265 130.688 0 130.584 0H128.848C128.745 0 128.667 0.0762265 128.641 0.177862L127.268 8.30869C127.242 8.43573 127.345 8.53736 127.475 8.53736ZM129.366 0.762265H130.092L130.791 4.9039H128.693L129.366 0.762265Z" fill="#CAD5E0"/>
</svg>
