<svg width="60" height="34" viewBox="0 0 60 34" fill="none" xmlns="http://www.w3.org/2000/svg"><path class="st0" d="M40.2,5.7c-0.6-1-1.5-1.9-2.5-2.8c-1-0.8-2.1-1.4-3.3-1.9c-0.9-0.4-2.1-0.8-3.6-1c-0.2,0-0.4,0-0.6-0.1l0,0h-0.7h0c-2,0.1-3.7,0.9-4.8,2.3c-0.2,0.2-0.4,0.5-0.5,0.8c-0.8,1.3-1.2,2.8-1.3,4.4c-1.3-0.7-2.6-1.2-3.9-1.5c-1.3-0.3-2.5-0.5-3.6-0.5c-0.5,0-1.1,0-1.5,0.1c-0.9,0.1-1.6,0.4-2.2,0.8c-0.7,0.4-1.1,1-1.3,1.7c-0.1,0.2-0.1,0.5-0.1,0.7c0,0.7,0.2,1.3,0.4,1.7c0.3,0.6,0.6,1.1,1.2,1.8c0.8,0.9,1.8,1.8,3.1,2.7c1.1,0.7,2.3,1.4,3.8,2c1.4,0.6,2.9,1,4.4,1.4c1.1,0.2,2.3,0.3,3.3,0.3c0.6,0,1.2,0,1.8-0.1l0,0l0,0c0.1,0,0.1,0,0.2,0h0c0.1,0,0.1,0,0.2,0h0l0.1,0l0,0l0.2,0l0,0l0.1,0c0.1,0.1,0.1,0.1,0.2,0.1l0,0l0.2,0c0.2,0,0.4,0,0.6,0c0.1,0,0.2,0,0.3,0c0.4,0,0.7-0.1,1.1-0.2c1-0.3,1.9-0.7,2.8-1.1c0.3-0.1,0.6-0.3,0.9-0.4c0.1,0,0.2-0.1,0.3-0.1l0.1-0.1l0,0c0.1,0,0.1-0.1,0.2-0.1c0.1,0,0.2-0.1,0.3-0.1l0,0l0.1-0.1l0.1-0.1c0.2-0.1,0.4-0.2,0.6-0.4c1.8-1.1,3-2.5,3.8-4c0.3-0.7,0.5-1.3,0.6-2c0-0.2,0-0.4,0-0.6C41.3,8.1,40.9,6.9,40.2,5.7z M30.8,18.2C30.7,18.2,30.7,18.2,30.8,18.2c0.3-0.1,0.6-0.3,1-0.5l0.2-0.1c0.5-0.3,1.1-0.6,1.6-1c0.2,0,0.6,0.1,1,0.1c-0.1,0.1-0.2,0.1-0.4,0.2c-0.5,0.2-0.9,0.5-1.4,0.7C32.2,17.8,31.5,18,30.8,18.2z M29.2,18.1c-0.1,0-0.3,0-0.4-0.1l0,0c-0.6-0.2-1.2-0.4-1.7-0.7l0,0L27,17.3l0,0h0c-0.1,0-0.1-0.1-0.3-0.1l0,0l0,0l-0.1-0.1L26.5,17c0,0,0-0.1,0-0.2c0-0.1,0-0.2,0-0.2c0-0.3,0.1-0.6,0.2-0.9l0.1-0.3l0,0c0.1-0.5,0.2-1,0.4-1.5c2,1.3,3.7,2,5.6,2.5c-0.4,0.3-0.9,0.6-1.6,1c-0.4,0.2-0.9,0.5-1.4,0.7l-0.1,0C29.5,18.1,29.4,18.1,29.2,18.1z M22.9,8c0,0.2,0,0.4,0,0.6c0,0.1,0,0.1,0,0.2h0l0,0.1l0,0c0,0.1,0,0.3,0,0.4c0,0.1,0,0.2,0,0.2c-0.6-0.4-1.3-0.8-2.3-1.2c-1.1-0.4-2-0.6-3-0.7c-0.2,0-0.4,0-0.6,0c-1.1,0-1.9,0.2-2.5,0.7c-0.4,0.3-0.7,0.8-0.7,1.3l0,0c0,0.6,0.2,1.1,0.4,1.4c0.6,1,1.6,1.9,2.9,2.7c1.3,0.8,2.6,1.3,3.9,1.7c0.8,0.2,1.7,0.4,2.8,0.4c0.2,0,0.3,0,0.4,0c0,0,0.1,0.1,0.1,0.2l0,0l0,0c0.5,0.6,1.1,1.1,1.6,1.5l0,0c0,0,0.1,0.1,0.2,0.1l0.3,0.1c0.2,0.1,0.4,0.2,0.6,0.3c-0.5,0.1-0.9,0.1-1.5,0.1c-0.7,0-1.4-0.1-2.1-0.2c-1.2-0.2-2.3-0.4-3.4-0.8c-2.1-0.7-4-1.7-5.5-2.8c-1-0.7-2.2-1.7-3.1-3.2c-0.3-0.5-0.5-1-0.6-1.5c0-0.2-0.1-0.4-0.1-0.6c0-1.2,0.8-1.9,1.2-2.2C13,6.4,13.9,6.1,15,6c0.3,0,0.6,0,0.9,0c1.1,0,2.4,0.2,3.7,0.6c1.1,0.3,2.2,0.8,3.3,1.3L22.9,8z M23.5,8.7L23.5,8.7c0-1.2,0.1-2.2,0.3-3C23.9,5.5,24,5.2,24.1,5c0.4,1,1.1,1.7,1.7,2.3c0.6,0.6,1.3,1.2,2.3,1.8c-0.6,1.1-1.1,2.4-1.4,3.7c-0.1,0-0.1-0.1-0.2-0.2l-0.1-0.1l0,0l0,0c-1-0.7-1.7-1.4-2.2-2.1c-0.2-0.3-0.4-0.6-0.5-0.8c0-0.1-0.1-0.2-0.1-0.3c0-0.1,0-0.2,0-0.3c0-0.1,0-0.1,0-0.2v0L23.5,8.7z M30,0.6c0.5,0,1.1,0.1,1.5,0.1c0.6,0.1,1,0.5,1.2,0.7c0.3,0.3,0.5,0.6,0.7,1.2c0.2,0.4,0.3,0.9,0.4,1.3c0,0,0,0,0,0c0,0,0,0-0.1,0v0c0-0.1,0-0.1-0.1-0.2l0,0c-0.2-0.4-0.5-0.7-0.8-1c-0.3-0.3-0.7-0.6-1-0.8c-0.7-0.4-1.7-0.6-2.6-0.6c-0.1,0-0.2,0-0.3,0C27.3,1.3,26,1.8,25,2.8c0.4-0.5,0.9-1,1.5-1.4c0.9-0.5,1.9-0.8,3.1-0.9C29.8,0.6,29.9,0.6,30,0.6z M35.7,2.2c0.2,0.1,0.4,0.2,0.5,0.3c-0.5,0.2-0.8,0.5-1.1,0.7c-0.3,0.3-0.5,0.5-0.8,0.8l0,0l-0.1,0.1l-0.2-0.1l0,0l-0.1,0c-0.1-1.3-0.5-2.3-1.1-3C33.9,1.3,34.8,1.7,35.7,2.2z M24.5,4.3L24.5,4.3c0-0.1,0.1-0.1,0.2-0.2l0,0l0,0c0.9-1.2,2.1-2,3.6-2.2c0.3-0.1,0.7-0.1,1.1-0.1c0.4,0,0.9,0,1.2,0.1C31.3,2,32,2.4,32.6,3c0.2,0.2,0.4,0.4,0.6,0.7c0,0,0,0,0,0.1c-0.4,0.1-0.7,0.2-1,0.4c-0.8,0.5-1.4,1.2-1.9,1.8c-0.8,0.9-1.4,1.8-1.9,2.8c-1.1-0.8-2.3-1.8-3.2-3c-0.2-0.3-0.4-0.6-0.6-1C24.6,4.6,24.5,4.4,24.5,4.3L24.5,4.3z M36.5,12.4c-2.5-0.6-4.8-1.6-7.3-3.2c0.9-1.6,1.9-3,3-4.1c0.2-0.2,0.4-0.4,0.6-0.6c0.2-0.2,0.4-0.4,0.7-0.4l0,0c0,0,0.1,0,0.1,0l0.1,0c0,0,0.1,0,0.1,0.1h0l0.1,0.1l0,0l0,0c0.3,0.2,0.6,0.3,0.8,0.4c0.1,0,0.2,0.1,0.4,0.1c0.1,0,0.2,0,0.3,0.1C35.6,5,35.7,5,35.9,5.1c0.5,0.3,0.9,1,1.2,2c0.1,0.6,0.2,1.2,0.2,1.8c0,0.4,0,0.8-0.1,1.1C37,10.9,36.7,11.7,36.5,12.4z M33.3,16c-2-0.5-3.9-1.3-6-2.6c0.4-1.4,0.9-2.6,1.5-3.6c1.8,1.1,4.2,2.5,7.2,3.3c-0.1,0.2-0.3,0.5-0.5,0.7C34.9,14.7,34.1,15.4,33.3,16z M38,4.6c-0.6-0.2-1.3-0.3-2-0.3c-0.4,0-0.8,0-1.1,0.1l-0.2-0.1C35.1,4,35.5,3.6,36,3.2C36.2,3.1,36.5,3,36.7,3c0.1,0,0.2,0,0.3,0.1c0.1,0,0.2,0.1,0.3,0.2l0.1,0.1h0l0,0c0.8,0.6,1.5,1.4,2.1,2.1C39.1,5.1,38.6,4.8,38,4.6z M26,13.2L26,13.2L26,13.2l0.1,0.1l0,0c0.1,0.1,0.2,0.1,0.2,0.1c-0.1,0.5-0.2,0.9-0.3,1.4v0c0,0-0.1,0.4-0.1,0.5c-0.1,0.3-0.1,0.6-0.1,0.9c0,0.1,0,0.1,0,0.2c-0.3-0.3-0.6-0.6-0.8-0.9c-0.3-0.4-0.6-0.9-0.7-1.4c-0.2-0.5-0.3-1-0.4-1.7c-0.1-0.5-0.1-1-0.2-1.5C24.3,11.8,25.1,12.5,26,13.2zM22.1,13.6c-0.2,0-0.4,0-0.6,0c-0.7-0.1-1.3-0.3-1.9-0.5c-0.6-0.3-1.1-0.6-1.5-0.9c-0.2-0.2-0.4-0.4-0.6-0.6c-0.1-0.2-0.3-0.5-0.3-0.8l0-0.1c0-0.5,0.3-0.8,0.9-1c0.2-0.1,0.4-0.1,0.7-0.1c0.4,0,0.8,0.1,1.1,0.2c0.5,0.2,1,0.4,1.4,0.7l0,0c0.2,0.1,0.4,0.3,0.5,0.5C22,11,22,11.2,22,11.4l0,0.1c0,0.3-0.2,0.5-0.5,0.6c-0.1,0-0.3,0.1-0.4,0.1c-0.5,0-1-0.2-1.3-0.4c-0.2-0.1-0.3-0.2-0.4-0.3c-0.1-0.1-0.2-0.2-0.2-0.4l0-0.1l0,0c0-0.1,0.1-0.2,0.1-0.4l0,0l0,0c-0.1-0.1-0.1-0.1-0.2-0.2l0,0l0,0l0,0l0,0l0,0c-0.1-0.1-0.1-0.1-0.3-0.2h0h0c-0.2,0-0.4,0.2-0.5,0.4c0,0.1,0,0.1,0,0.2c0,0.2,0.1,0.5,0.2,0.6c0.1,0.2,0.3,0.3,0.5,0.4c0.3,0.2,0.8,0.5,1.2,0.6c0.5,0.2,1,0.3,1.5,0.3c0.6,0,1-0.1,1.2-0.3l0,0C23,12.2,23,12,23,11.8v0c0-0.4-0.2-0.7-0.4-0.9c-0.2-0.2-0.4-0.4-0.7-0.6c-0.5-0.3-1-0.7-1.7-0.9c-0.3-0.1-0.7-0.2-1-0.3c-0.4-0.1-0.8-0.1-1.1-0.1c-0.5,0-1.5,0.1-1.9,0.8c-0.1,0.1-0.1,0.3-0.1,0.5c0,0.5,0.3,0.9,0.4,1.1c0.5,0.8,1.3,1.4,2.5,2c0.7,0.4,1.4,0.6,2.2,0.8c0.6,0.1,1.1,0.2,1.5,0.2c0.4,0,0.7,0,1-0.1c0.1,0.5,0.3,1,0.5,1.3l0,0c-0.3,0-0.5,0-0.7,0c-1.1,0-2.2-0.2-3.4-0.6c-1.2-0.4-2.3-1-3.2-1.7c-0.5-0.4-0.9-0.8-1.3-1.2c-0.3-0.4-0.7-0.9-0.8-1.6c0-0.1,0-0.1,0-0.2c0-0.5,0.2-0.9,0.5-1.2c0.3-0.3,0.7-0.5,1.1-0.6c0.2,0,0.3-0.1,0.5-0.1c0.2,0,0.5,0,0.7,0c0.5,0,1.1,0.1,1.6,0.2c1,0.2,1.9,0.6,2.7,1.1c0.5,0.3,0.8,0.5,1.1,0.7c0.1,0.4,0.1,0.7,0.2,1.1c0.1,0.7,0.2,1.5,0.4,2.1C23.2,13.5,22.7,13.6,22.1,13.6z M36.9,13.1c0.4,0.1,0.8,0.1,1.2,0.1c0.4,0,0.9,0,1.3-0.2l0,0c0,0,0,0,0,0c0,0,0,0,0,0v0c0,0,0,0,0,0c-0.5,0.8-1.2,1.4-2.2,2.1c-0.4,0.3-0.9,0.6-1.4,0.9c-0.3,0.1-0.6,0.2-1.1,0.2c-0.2,0-0.5,0-0.7,0C35.4,15.2,36.3,14.2,36.9,13.1z M40.1,12c-0.3,0.4-0.9,0.6-1.8,0.6c-0.4,0-0.7,0-1-0.1C37.5,11.9,38,10.6,38,9c0-0.4,0-0.8-0.1-1.2c-0.2-0.8-0.4-1.6-0.8-2.1c-0.4-0.5-0.8-0.8-1.4-1c0.1,0,0.2,0,0.2,0c0.8,0,1.6,0.2,2.2,0.5c1,0.5,1.9,1.4,2.4,2.7c0.1,0.2,0.2,0.4,0.2,0.6c0,0.3,0.1,0.5,0.1,0.8c0,0.8-0.2,1.6-0.5,2.2C40.3,11.7,40.2,11.9,40.1,12L40.1,12L40.1,12z M26.1,14.9L26.1,14.9C26.1,14.9,26.1,14.9,26.1,14.9L26.1,14.9z M9.6,25.2c-0.1-1.1-0.9-1.4-1.7-1.4c-0.6,0-1.6,0.2-1.6,1.2c0,0.6,0.3,0.7,1.7,1.1c2.1,0.5,2.6,0.9,2.6,2.1c0,1.6-1.5,2.1-2.7,2.1c-2.3,0-2.7-1.4-2.7-2.4h0.9c0,1.2,1,1.6,1.9,1.6c0.7,0,1.8-0.2,1.8-1.1c0-0.7-0.2-0.9-2.3-1.4c-1.2-0.3-2-0.6-2-1.7C5.4,24,6.1,23,7.8,23c2.4,0,2.6,1.4,2.7,2.2H9.6z M12.5,26.5l3.3-3.3H17l-2.8,2.7l2.9,4.1h-1.2l-2.4-3.4l-1.1,1V30h-0.9v-6.8h0.9V26.5z M20.7,30.1c-2.5,0-3.3-2.1-3.3-3.6c0-1.5,0.8-3.6,3.3-3.6c2.5,0,3.3,2.1,3.3,3.6C24,28,23.3,30.1,20.7,30.1z M20.7,23.8c-1.5,0-2.4,1.1-2.4,2.7c0,1.6,0.9,2.8,2.4,2.8c1.5,0,2.4-1.2,2.4-2.8C23.1,25,22.2,23.8,20.7,23.8z M25.9,29.2h3.4V30H25v-6.8h0.9V29.2z M30.9,26.5l3.3-3.3h1.3l-2.8,2.7l2.9,4.1h-1.2L32,26.6l-1.1,1V30H30v-6.8h0.9V26.5z M39.2,30.1c-2.5,0-3.3-2.1-3.3-3.6c0-1.5,0.8-3.6,3.3-3.6c2.5,0,3.3,2.1,3.3,3.6C42.5,28,41.7,30.1,39.2,30.1z M39.2,23.8c-1.5,0-2.4,1.1-2.4,2.7c0,1.6,0.9,2.8,2.4,2.8c1.5,0,2.4-1.2,2.4-2.8C41.6,25,40.7,23.8,39.2,23.8z M47.4,23.2h1L46,30h-1l-2.5-6.8h1l1.9,5.8h0L47.4,23.2z M51.7,30.1c-2.5,0-3.3-2.1-3.3-3.6c0-1.5,0.8-3.6,3.3-3.6c2.5,0,3.3,2.1,3.3,3.6C55.1,28,54.3,30.1,51.7,30.1z M51.7,23.8c-1.5,0-2.4,1.1-2.4,2.7c0,1.6,0.9,2.8,2.4,2.8c1.5,0,2.4-1.2,2.4-2.8C54.1,25,53.2,23.8,51.7,23.8z M11.9,31.5l0.5,1.6h0l0.5-1.6h0.4v1.9h-0.2v-1.1c0-0.1,0-0.3,0-0.5h0l-0.5,1.6h-0.3l-0.5-1.6h0c0,0.2,0,0.4,0,0.5v1.1h-0.2v-1.9H11.9z M14.3,32c0.4,0,0.6,0.4,0.6,0.7c0,0.4-0.2,0.7-0.6,0.7c-0.4,0-0.6-0.4-0.6-0.7C13.6,32.4,13.8,32,14.3,32z M14.3,33.3c0.3,0,0.4-0.3,0.4-0.5c0-0.2-0.1-0.5-0.4-0.5c-0.3,0-0.4,0.3-0.4,0.5C13.9,32.9,13.9,33.3,14.3,33.3z M16,32.4c0-0.1,0-0.2-0.3-0.2c-0.1,0-0.3,0-0.3,0.2c0,0.1,0.1,0.1,0.4,0.2c0.4,0.1,0.5,0.2,0.5,0.4c0,0.3-0.2,0.5-0.5,0.5c-0.5,0-0.6-0.3-0.6-0.5h0.2c0,0.1,0,0.3,0.4,0.3c0.2,0,0.3-0.1,0.3-0.2c0-0.1-0.1-0.2-0.4-0.2c-0.3-0.1-0.4-0.2-0.4-0.4c0-0.3,0.3-0.4,0.5-0.4c0.5,0,0.5,0.4,0.5,0.4H16z M17.4,32.5c0-0.2-0.1-0.3-0.3-0.3c-0.3,0-0.4,0.3-0.4,0.5c0,0.2,0.1,0.5,0.4,0.5c0.2,0,0.3-0.1,0.3-0.3h0.2c0,0.2-0.2,0.5-0.6,0.5c-0.4,0-0.6-0.3-0.6-0.7c0-0.4,0.2-0.8,0.7-0.8c0.4,0,0.5,0.3,0.5,0.5H17.4z M18.4,32c0.4,0,0.6,0.4,0.6,0.7c0,0.4-0.2,0.7-0.6,0.7c-0.4,0-0.6-0.4-0.6-0.7C17.8,32.4,18,32,18.4,32z M18.4,33.3c0.3,0,0.4-0.3,0.4-0.5c0-0.2-0.1-0.5-0.4-0.5c-0.3,0-0.4,0.3-0.4,0.5C18,32.9,18.1,33.3,18.4,33.3z M19.4,32l0.3,1.1h0L20,32h0.3l0.3,1.1h0l0.3-1.1H21l-0.4,1.4h-0.2l-0.3-1.1h0l-0.3,1.1h-0.2L19.2,32H19.4z M23.1,32.1c0-0.3-0.3-0.4-0.5-0.4c-0.2,0-0.4,0-0.4,0.3c0,0.2,0.1,0.2,0.5,0.3c0.6,0.1,0.7,0.3,0.7,0.6c0,0.4-0.4,0.6-0.7,0.6c-0.6,0-0.8-0.4-0.8-0.7h0.2c0,0.3,0.3,0.4,0.5,0.4c0.2,0,0.5,0,0.5-0.3c0-0.2,0-0.3-0.7-0.4c-0.3-0.1-0.5-0.2-0.5-0.5c0-0.3,0.2-0.6,0.7-0.6c0.7,0,0.7,0.4,0.7,0.6H23.1z M24.6,32.5c0-0.2-0.1-0.3-0.3-0.3c-0.3,0-0.4,0.3-0.4,0.5c0,0.2,0.1,0.5,0.4,0.5c0.2,0,0.3-0.1,0.3-0.3h0.2c0,0.2-0.2,0.5-0.6,0.5c-0.4,0-0.6-0.3-0.6-0.7c0-0.4,0.2-0.8,0.7-0.8c0.4,0,0.5,0.3,0.5,0.5H24.6z M25.3,32.2L25.3,32.2c0.1-0.1,0.2-0.2,0.4-0.2c0.2,0,0.5,0.1,0.5,0.5v0.9h-0.2v-0.9c0-0.2-0.1-0.3-0.3-0.3c-0.2,0-0.4,0.1-0.4,0.5v0.8H25v-1.9h0.2V32.2z M27.1,32c0.4,0,0.6,0.4,0.6,0.7c0,0.4-0.2,0.7-0.6,0.7c-0.4,0-0.6-0.4-0.6-0.7C26.4,32.4,26.6,32,27.1,32z M27.1,33.3c0.3,0,0.4-0.3,0.4-0.5c0-0.2-0.1-0.5-0.4-0.5c-0.3,0-0.4,0.3-0.4,0.5C26.7,32.9,26.7,33.3,27.1,33.3z M28.5,32c0.4,0,0.6,0.4,0.6,0.7c0,0.4-0.2,0.7-0.6,0.7c-0.4,0-0.6-0.4-0.6-0.7C27.9,32.4,28.1,32,28.5,32z M28.5,33.3c0.3,0,0.4-0.3,0.4-0.5c0-0.2-0.1-0.5-0.4-0.5c-0.3,0-0.4,0.3-0.4,0.5C28.1,32.9,28.2,33.3,28.5,33.3z M29.7,33.4h-0.2v-1.9h0.2V33.4z M31.3,32c0.4,0,0.6,0.4,0.6,0.7c0,0.4-0.2,0.7-0.6,0.7c-0.4,0-0.6-0.4-0.6-0.7C30.7,32.4,30.9,32,31.3,32z M31.3,33.3c0.3,0,0.4-0.3,0.4-0.5c0-0.2-0.1-0.5-0.4-0.5c-0.3,0-0.4,0.3-0.4,0.5C30.9,32.9,31,33.3,31.3,33.3z M32.7,31.7C32.7,31.7,32.7,31.7,32.7,31.7c-0.2,0-0.2,0-0.2,0.2V32h0.2v0.2h-0.2v1.2h-0.2v-1.2h-0.2V32h0.2v-0.2c0-0.2,0.1-0.3,0.4-0.3c0,0,0.1,0,0.1,0V31.7z M34.1,31.5l0.5,1.6h0l0.5-1.6h0.4v1.9h-0.2v-1.1c0-0.1,0-0.3,0-0.5h0l-0.5,1.6h-0.3L34,31.8h0c0,0.2,0,0.4,0,0.5v1.1h-0.2v-1.9H34.1z M35.9,32.5c0-0.3,0.2-0.5,0.6-0.5c0.1,0,0.5,0,0.5,0.4v0.8c0,0.1,0,0.1,0.1,0.1c0,0,0,0,0.1,0v0.2c0,0-0.1,0-0.1,0c-0.2,0-0.2-0.1-0.2-0.2c-0.1,0.1-0.2,0.2-0.5,0.2c-0.3,0-0.4-0.2-0.4-0.4c0-0.2,0-0.4,0.5-0.4c0.4,0,0.4-0.1,0.4-0.2c0-0.2-0.1-0.2-0.3-0.2c-0.3,0-0.3,0.2-0.3,0.3H35.9z M36.7,32.7c0,0-0.1,0-0.4,0.1c-0.1,0-0.3,0-0.3,0.2c0,0.2,0.1,0.2,0.3,0.2c0.2,0,0.4-0.1,0.4-0.3V32.7z M37.6,32v0.2h0c0.1-0.1,0.2-0.2,0.4-0.2c0.2,0,0.5,0.1,0.5,0.5v0.9h-0.2v-0.9c0-0.2-0.1-0.4-0.3-0.4c-0.1,0-0.4,0.1-0.4,0.5v0.8h-0.2V32H37.6zM38.8,32.5c0-0.3,0.2-0.5,0.6-0.5c0.1,0,0.5,0,0.5,0.4v0.8c0,0.1,0,0.1,0.1,0.1c0,0,0,0,0.1,0v0.2c0,0-0.1,0-0.1,0c-0.2,0-0.2-0.1-0.2-0.2c-0.1,0.1-0.2,0.2-0.5,0.2c-0.3,0-0.4-0.2-0.4-0.4c0-0.2,0-0.4,0.5-0.4c0.4,0,0.4-0.1,0.4-0.2c0-0.2-0.1-0.2-0.3-0.2c-0.3,0-0.3,0.2-0.3,0.3H38.8z M39.7,32.7c0,0-0.1,0-0.4,0.1c-0.1,0-0.3,0-0.3,0.2c0,0.2,0.1,0.2,0.3,0.2c0.2,0,0.4-0.1,0.4-0.3V32.7z M41.4,32v1.3c0,0.2,0,0.7-0.6,0.7c-0.2,0-0.5,0-0.5-0.4h0.2c0,0.2,0.3,0.2,0.3,0.2c0.4,0,0.4-0.3,0.4-0.5c-0.1,0.1-0.2,0.2-0.4,0.2c-0.5,0-0.6-0.4-0.6-0.8c0-0.4,0.2-0.7,0.6-0.7c0.2,0,0.3,0.1,0.4,0.2V32H41.4zM40.5,32.7c0,0.3,0.1,0.5,0.4,0.5c0.1,0,0.4-0.1,0.4-0.5c0-0.2,0-0.6-0.4-0.6C40.5,32.2,40.5,32.5,40.5,32.7z M42.9,33c-0.1,0.2-0.2,0.5-0.6,0.5c-0.4,0-0.6-0.3-0.6-0.7c0-0.4,0.2-0.8,0.7-0.8c0.4,0,0.6,0.3,0.6,0.8h-1c0,0.3,0.1,0.5,0.4,0.5c0.2,0,0.4-0.2,0.4-0.3H42.9z M42.7,32.6c0-0.2-0.1-0.4-0.4-0.4c-0.2,0-0.4,0.2-0.4,0.4H42.7z M43.4,32v0.2h0c0-0.1,0.2-0.2,0.4-0.2c0.2,0,0.3,0.2,0.4,0.2c0.1-0.1,0.2-0.2,0.4-0.2c0.1,0,0.4,0.1,0.4,0.5v1h-0.2v-0.9c0-0.2-0.1-0.3-0.3-0.3c-0.2,0-0.3,0.2-0.3,0.4v0.8H44v-1c0-0.1,0-0.3-0.2-0.3c-0.1,0-0.4,0.1-0.4,0.5v0.8h-0.2V32H43.4z M46.6,33c-0.1,0.2-0.2,0.5-0.6,0.5c-0.4,0-0.6-0.3-0.6-0.7c0-0.4,0.2-0.8,0.7-0.8c0.4,0,0.6,0.3,0.6,0.8h-1c0,0.3,0.1,0.5,0.4,0.5c0.2,0,0.4-0.2,0.4-0.3H46.6zM46.4,32.6c0-0.2-0.1-0.4-0.4-0.4c-0.2,0-0.4,0.2-0.4,0.4H46.4z M47.1,32v0.2h0c0-0.1,0.2-0.2,0.4-0.2c0.2,0,0.5,0.1,0.5,0.5v0.9h-0.2v-0.9c0-0.2-0.1-0.4-0.3-0.4c-0.1,0-0.4,0.1-0.4,0.5v0.8h-0.2V32H47.1z M48.6,31.7V32h0.2v0.2h-0.2v0.9c0,0.1,0.1,0.1,0.1,0.1h0.1v0.2c-0.1,0-0.1,0-0.2,0c-0.2,0-0.3-0.1-0.3-0.3v-0.9h-0.2V32h0.2v-0.4H48.6z" fill="#BBCDDB"/></svg>