<?xml version="1.0" encoding="utf-8"?>
<!-- Generator: Adobe Illustrator 23.1.1, SVG Export Plug-In . SVG Version: 6.00 Build 0)  -->
<svg version="1.1" id="Слой_1" xmlns="http://www.w3.org/2000/svg" xmlns:xlink="http://www.w3.org/1999/xlink" x="0px" y="0px"
	 viewBox="0 0 48 48" style="enable-background:new 0 0 48 48;" xml:space="preserve">
<style type="text/css">
	.st0{fill:#161A23;}
</style>
<path class="st0" d="M12.6,14c-1.5,0-2.8,1.3-2.8,2.8v14.3c0,1.5,1.2,2.8,2.8,2.8h22.8c1.5,0,2.8-1.3,2.8-2.8V16.8
	c0-1.5-1.2-2.8-2.8-2.8H12.6z M11.3,16.7l7.9,7.4l-7.7,7.7c-0.1-0.2-0.2-0.4-0.2-0.7V16.8C11.2,16.8,11.3,16.7,11.3,16.7z
	 M36.7,16.7c0,0.1,0,0.1,0,0.2v14.3c0,0.2-0.1,0.5-0.2,0.7l-7.7-7.7L36.7,16.7z M27.9,25.1l7.5,7.6c0,0,0,0-0.1,0H12.6
	c0,0,0,0-0.1,0l7.6-7.5l2.1,2c1,0.9,2.6,1,3.6,0L27.9,25.1z"/>
</svg>
