<svg width="11" height="13" viewBox="0 0 11 13" fill="none" xmlns="http://www.w3.org/2000/svg">
<path d="M1.39286 13H8.82143C9.58951 13 10.2143 12.3752 10.2143 11.6071V6.5C10.2143 5.73192 9.58951 5.10714 8.82143 5.10714V3.25C8.82143 1.45786 7.36357 0 5.57143 0H4.64286C2.85071 0 1.39286 1.45786 1.39286 3.25V5.10714C0.624774 5.10714 0 5.73192 0 6.5V11.6071C0 12.3752 0.624774 13 1.39286 13ZM2.32143 3.25C2.32143 1.96996 3.36282 0.928571 4.64286 0.928571H5.57143C6.85146 0.928571 7.89286 1.96996 7.89286 3.25V5.10714H2.32143V3.25ZM0.928571 6.5C0.928571 6.24402 1.13688 6.03571 1.39286 6.03571C4.12998 6.03571 6.08183 6.03571 8.82143 6.03571C9.0774 6.03571 9.28572 6.24402 9.28572 6.5V11.6071C9.28572 11.8631 9.0774 12.0714 8.82143 12.0714H1.39286C1.13688 12.0714 0.928571 11.8631 0.928571 11.6071V6.5Z" fill="#E86B4C"/>
<path d="M4.17847 8.35728C4.17847 7.84518 4.59493 7.42871 5.10704 7.42871C5.61915 7.42871 6.03561 7.84518 6.03561 8.35728C6.03561 8.69946 5.84757 8.99568 5.57132 9.15678V10.2144C5.57132 10.4709 5.36348 10.6787 5.10704 10.6787C4.8506 10.6787 4.64275 10.4709 4.64275 10.2144V9.15678C4.3665 8.99568 4.17847 8.69946 4.17847 8.35728Z" fill="#E86B4C"/>
</svg>
