<?xml version="1.0" encoding="utf-8"?>
<!-- Generator: Adobe Illustrator 23.1.1, SVG Export Plug-In . SVG Version: 6.00 Build 0)  -->
<svg version="1.1" id="Слой_1" xmlns="http://www.w3.org/2000/svg" xmlns:xlink="http://www.w3.org/1999/xlink" x="0px" y="0px"
	 viewBox="0 0 48 48" style="enable-background:new 0 0 48 48;" xml:space="preserve">
<style type="text/css">
	.st0{fill-rule:evenodd;clip-rule:evenodd;fill:#161A23;}
</style>
<path class="st0" d="M21.1,27.4L21.1,27.4L21.1,27.4L21.1,27.4L21.1,27.4l11.4-9.9c0.5-0.4-0.1-0.6-0.8-0.2l-14,8.5L11.6,24
	c-1.3-0.4-1.3-1.3,0.3-1.9l23.6-8.8c1.1-0.5,2.1,0.2,1.7,1.8l-4,18.3c-0.3,1.3-1.1,1.6-2.2,1l-6.1-4.4l-2.9,2.8c0,0,0,0,0,0
	c-0.3,0.3-0.6,0.6-1.2,0.6L21.1,27.4z"/>
</svg>
