<?xml version="1.0" encoding="utf-8"?>
<!-- Generator: Adobe Illustrator 23.1.1, SVG Export Plug-In . SVG Version: 6.00 Build 0)  -->
<svg version="1.1" id="Слой_1" xmlns="http://www.w3.org/2000/svg" xmlns:xlink="http://www.w3.org/1999/xlink" x="0px" y="0px"
	 viewBox="0 0 48 48" style="enable-background:new 0 0 48 48;" xml:space="preserve">
<style type="text/css">
	.st0{fill-rule:evenodd;clip-rule:evenodd;fill:#1D2332;}
	.st1{fill:#E86B4C;}
</style>
<path class="st0" d="M11.4,23.7c0-7,5.7-12.7,12.8-12.7C31.3,11,37,16.7,37,23.7c0,7-5.7,12.7-12.8,12.7c-2.1,0-4.1-0.5-5.8-1.4
	L12.3,37c-0.4,0.1-0.8,0-1-0.3c-0.3-0.3-0.4-0.7-0.2-1l2-5.8C12,28,11.4,25.9,11.4,23.7z"/>
<path class="st1" d="M30.4,26.4c-0.1-0.1-0.3-0.2-0.6-0.3c-0.3-0.1-1.7-0.8-2-0.9c-0.3-0.1-0.5-0.1-0.7,0.1c-0.2,0.3-0.8,0.9-0.9,1
	c-0.2,0.2-0.3,0.2-0.6,0.1c-0.3-0.1-1.2-0.4-2.4-1.3c-0.9-0.7-1.5-1.6-1.6-1.8c-0.2-0.3,0-0.4,0.1-0.5c0.1-0.1,0.3-0.3,0.4-0.5
	c0.1-0.2,0.2-0.3,0.3-0.4c0.1-0.2,0-0.3,0-0.5c-0.1-0.1-0.7-1.4-0.9-2C21.2,18.9,21,19,20.8,19c-0.2,0-0.4,0-0.6,0
	c-0.2,0-0.5,0.1-0.8,0.3c-0.3,0.3-1,0.9-1,2.2c0,1.3,1.1,2.6,1.2,2.7c0.1,0.2,2,2.9,5,4c3,1.1,3,0.7,3.5,0.7c0.5,0,1.7-0.6,2-1.3
	C30.4,27,30.4,26.5,30.4,26.4z"/>
</svg>
